<mxfile host="app.diagrams.net" agent="Mozilla/5.0 (Windows NT 10.0; Win64; x64) AppleWebKit/537.36 (KHTML, like Gecko) Chrome/135.0.0.0 Safari/537.36" version="26.2.13">
  <diagram name="Page-1" id="N0b4WHaTD0N3oPW35bhp">
    <mxGraphModel dx="1336" dy="289" grid="0" gridSize="10" guides="1" tooltips="1" connect="1" arrows="1" fold="1" page="1" pageScale="1" pageWidth="850" pageHeight="1100" math="0" shadow="0">
      <root>
        <mxCell id="0" />
        <mxCell id="1" parent="0" />
        <mxCell id="ww2nhfKNjPysvLxSNDaB-7" value="" style="shape=image;verticalLabelPosition=bottom;labelBackgroundColor=default;verticalAlign=top;aspect=fixed;imageAspect=0;editableCssRules=.*;image=data:image/svg+xml,PHN2ZyB4bWxuczp4bGluaz0iaHR0cDovL3d3dy53My5vcmcvMTk5OS94bGluayIgeG1sbnM9Imh0dHA6Ly93d3cudzMub3JnLzIwMDAvc3ZnIiBjbGFzcz0iV2F2ZURyb20iIG92ZXJmbG93PSJoaWRkZW4iIHZpZXdCb3g9IjAgMCA0MDAgMzAuNSIgd2lkdGg9IjQwMCIgaGVpZ2h0PSIzMC41IiBpZD0ic3ZnY29udGVudF8wIj48c3R5bGUgdHlwZT0idGV4dC9jc3MiPnRleHR7Zm9udC1zaXplOjExcHQ7Zm9udC1zdHlsZTpub3JtYWw7Zm9udC12YXJpYW50Om5vcm1hbDtmb250LXdlaWdodDpub3JtYWw7Zm9udC1zdHJldGNoOm5vcm1hbDt0ZXh0LWFsaWduOmNlbnRlcjtmaWxsLW9wYWNpdHk6MTtmb250LWZhbWlseTpIZWx2ZXRpY2F9Lmgxe2ZvbnQtc2l6ZTozM3B0O2ZvbnQtd2VpZ2h0OmJvbGR9Lmgye2ZvbnQtc2l6ZToyN3B0O2ZvbnQtd2VpZ2h0OmJvbGR9Lmgze2ZvbnQtc2l6ZToyMHB0O2ZvbnQtd2VpZ2h0OmJvbGR9Lmg0e2ZvbnQtc2l6ZToxNHB0O2ZvbnQtd2VpZ2h0OmJvbGR9Lmg1e2ZvbnQtc2l6ZToxMXB0O2ZvbnQtd2VpZ2h0OmJvbGR9Lmg2e2ZvbnQtc2l6ZTo4cHQ7Zm9udC13ZWlnaHQ6Ym9sZH0ubXV0ZWR7ZmlsbDojYWFhfS53YXJuaW5ne2ZpbGw6I2Y2YjkwMH0uZXJyb3J7ZmlsbDojZjYwMDAwfS5pbmZve2ZpbGw6IzAwNDFjNH0uc3VjY2Vzc3tmaWxsOiMwMGFiMDB9LnMxe2ZpbGw6bm9uZTtzdHJva2U6IzAwMDtzdHJva2Utd2lkdGg6MTtzdHJva2UtbGluZWNhcDpyb3VuZDtzdHJva2UtbGluZWpvaW46bWl0ZXI7c3Ryb2tlLW1pdGVybGltaXQ6NDtzdHJva2Utb3BhY2l0eToxO3N0cm9rZS1kYXNoYXJyYXk6bm9uZX0uczJ7ZmlsbDpub25lO3N0cm9rZTojMDAwO3N0cm9rZS13aWR0aDowLjU7c3Ryb2tlLWxpbmVjYXA6cm91bmQ7c3Ryb2tlLWxpbmVqb2luOm1pdGVyO3N0cm9rZS1taXRlcmxpbWl0OjQ7c3Ryb2tlLW9wYWNpdHk6MTtzdHJva2UtZGFzaGFycmF5Om5vbmV9LnMze2NvbG9yOiMwMDA7ZmlsbDpub25lO3N0cm9rZTojMDAwO3N0cm9rZS13aWR0aDoxO3N0cm9rZS1saW5lY2FwOnJvdW5kO3N0cm9rZS1saW5lam9pbjptaXRlcjtzdHJva2UtbWl0ZXJsaW1pdDo0O3N0cm9rZS1vcGFjaXR5OjE7c3Ryb2tlLWRhc2hhcnJheToxLCAzO3N0cm9rZS1kYXNob2Zmc2V0OjA7bWFya2VyOm5vbmU7dmlzaWJpbGl0eTp2aXNpYmxlO2Rpc3BsYXk6aW5saW5lO292ZXJmbG93OnZpc2libGV9LnM0e2NvbG9yOiMwMDA7ZmlsbDpub25lO3N0cm9rZTojMDAwO3N0cm9rZS13aWR0aDoxO3N0cm9rZS1saW5lY2FwOnJvdW5kO3N0cm9rZS1saW5lam9pbjptaXRlcjtzdHJva2UtbWl0ZXJsaW1pdDo0O3N0cm9rZS1vcGFjaXR5OjE7c3Ryb2tlLWRhc2hhcnJheTpub25lO3N0cm9rZS1kYXNob2Zmc2V0OjA7bWFya2VyOm5vbmU7dmlzaWJpbGl0eTp2aXNpYmxlO2Rpc3BsYXk6aW5saW5lO292ZXJmbG93OnZpc2libGV9LnM1e2ZpbGw6I2ZmZjtzdHJva2U6bm9uZX0uczZ7ZmlsbDojMDAwO2ZpbGwtb3BhY2l0eToxO3N0cm9rZTpub25lfS5zN3tjb2xvcjojMDAwO2ZpbGw6I2ZmZjtmaWxsLW9wYWNpdHk6MTtmaWxsLXJ1bGU6bm9uemVybztzdHJva2U6bm9uZTtzdHJva2Utd2lkdGg6MXB4O21hcmtlcjpub25lO3Zpc2liaWxpdHk6dmlzaWJsZTtkaXNwbGF5OmlubGluZTtvdmVyZmxvdzp2aXNpYmxlfS5zOHtjb2xvcjojMDAwO2ZpbGw6I2ZmZmZiNDtmaWxsLW9wYWNpdHk6MTtmaWxsLXJ1bGU6bm9uemVybztzdHJva2U6bm9uZTtzdHJva2Utd2lkdGg6MXB4O21hcmtlcjpub25lO3Zpc2liaWxpdHk6dmlzaWJsZTtkaXNwbGF5OmlubGluZTtvdmVyZmxvdzp2aXNpYmxlfS5zOXtjb2xvcjojMDAwO2ZpbGw6I2ZmZTBiOTtmaWxsLW9wYWNpdHk6MTtmaWxsLXJ1bGU6bm9uemVybztzdHJva2U6bm9uZTtzdHJva2Utd2lkdGg6MXB4O21hcmtlcjpub25lO3Zpc2liaWxpdHk6dmlzaWJsZTtkaXNwbGF5OmlubGluZTtvdmVyZmxvdzp2aXNpYmxlfS5zMTB7Y29sb3I6IzAwMDtmaWxsOiNiOWUwZmY7ZmlsbC1vcGFjaXR5OjE7ZmlsbC1ydWxlOm5vbnplcm87c3Ryb2tlOm5vbmU7c3Ryb2tlLXdpZHRoOjFweDttYXJrZXI6bm9uZTt2aXNpYmlsaXR5OnZpc2libGU7ZGlzcGxheTppbmxpbmU7b3ZlcmZsb3c6dmlzaWJsZX0uczExe2NvbG9yOiMwMDA7ZmlsbDojY2NmZGZlO2ZpbGwtb3BhY2l0eToxO2ZpbGwtcnVsZTpub256ZXJvO3N0cm9rZTpub25lO3N0cm9rZS13aWR0aDoxcHg7bWFya2VyOm5vbmU7dmlzaWJpbGl0eTp2aXNpYmxlO2Rpc3BsYXk6aW5saW5lO292ZXJmbG93OnZpc2libGV9LnMxMntjb2xvcjojMDAwO2ZpbGw6I2NkZmRjNTtmaWxsLW9wYWNpdHk6MTtmaWxsLXJ1bGU6bm9uemVybztzdHJva2U6bm9uZTtzdHJva2Utd2lkdGg6MXB4O21hcmtlcjpub25lO3Zpc2liaWxpdHk6dmlzaWJsZTtkaXNwbGF5OmlubGluZTtvdmVyZmxvdzp2aXNpYmxlfS5zMTN7Y29sb3I6IzAwMDtmaWxsOiNmMGMxZmI7ZmlsbC1vcGFjaXR5OjE7ZmlsbC1ydWxlOm5vbnplcm87c3Ryb2tlOm5vbmU7c3Ryb2tlLXdpZHRoOjFweDttYXJrZXI6bm9uZTt2aXNpYmlsaXR5OnZpc2libGU7ZGlzcGxheTppbmxpbmU7b3ZlcmZsb3c6dmlzaWJsZX0uczE0e2NvbG9yOiMwMDA7ZmlsbDojZjVjMmMwO2ZpbGwtb3BhY2l0eToxO2ZpbGwtcnVsZTpub256ZXJvO3N0cm9rZTpub25lO3N0cm9rZS13aWR0aDoxcHg7bWFya2VyOm5vbmU7dmlzaWJpbGl0eTp2aXNpYmxlO2Rpc3BsYXk6aW5saW5lO292ZXJmbG93OnZpc2libGV9LnMxNXtmaWxsOiMwMDQxYzQ7ZmlsbC1vcGFjaXR5OjE7c3Ryb2tlOm5vbmV9LnMxNntmaWxsOm5vbmU7c3Ryb2tlOiMwMDQxYzQ7c3Ryb2tlLXdpZHRoOjE7c3Ryb2tlLWxpbmVjYXA6cm91bmQ7c3Ryb2tlLWxpbmVqb2luOm1pdGVyO3N0cm9rZS1taXRlcmxpbWl0OjQ7c3Ryb2tlLW9wYWNpdHk6MTtzdHJva2UtZGFzaGFycmF5Om5vbmV9PC9zdHlsZT48ZGVmcz48ZyBpZD0ic29ja2V0Ij48cmVjdCB3aWR0aD0iMjAiIGhlaWdodD0iMjAiIHg9IjYiIHk9IjE1Ii8+PC9nPjxnIGlkPSJwY2xrIj48cGF0aCBjbGFzcz0iczEiIGQ9Ik0wLDIwIDAsMCAyMCwwIi8+PC9nPjxnIGlkPSJuY2xrIj48cGF0aCBjbGFzcz0iczEiIGQ9Im0wLDAgMCwyMCAyMCwwIi8+PC9nPjxnIGlkPSIwMDAiPjxwYXRoIGNsYXNzPSJzMSIgZD0ibTAsMjAgMjAsMCIvPjwvZz48ZyBpZD0iMG0wIj48cGF0aCBjbGFzcz0iczEiIGQ9Im0wLDIwIDMsMCAzLC0xMCAzLDEwIDExLDAiLz48L2c+PGcgaWQ9IjBtMSI+PHBhdGggY2xhc3M9InMxIiBkPSJNMCwyMCAzLDIwIDksMCAyMCwwIi8+PC9nPjxnIGlkPSIwbXgiPjxwYXRoIGNsYXNzPSJzMSIgZD0iTTMsMjAgOSwwIDIwLDAiLz48cGF0aCBjbGFzcz0iczIiIGQ9Im0yMCwxNSAtNSw1Ii8+PHBhdGggY2xhc3M9InMyIiBkPSJNMjAsMTAgMTAsMjAiLz48cGF0aCBjbGFzcz0iczIiIGQ9Ik0yMCw1IDUsMjAiLz48cGF0aCBjbGFzcz0iczIiIGQ9Ik0yMCwwIDQsMTYiLz48cGF0aCBjbGFzcz0iczIiIGQ9Ik0xNSwwIDYsOSIvPjxwYXRoIGNsYXNzPSJzMiIgZD0iTTEwLDAgOSwxIi8+PHBhdGggY2xhc3M9InMxIiBkPSJtMCwyMCAyMCwwIi8+PC9nPjxnIGlkPSIwbWQiPjxwYXRoIGNsYXNzPSJzMyIgZD0ibTgsMjAgMTAsMCIvPjxwYXRoIGNsYXNzPSJzMSIgZD0ibTAsMjAgNSwwIi8+PC9nPjxnIGlkPSIwbXUiPjxwYXRoIGNsYXNzPSJzMSIgZD0ibTAsMjAgMywwIEMgNywxMCAxMC4xMDc2MDMsMCAyMCwwIi8+PC9nPjxnIGlkPSIwbXoiPjxwYXRoIGNsYXNzPSJzMSIgZD0ibTAsMjAgMywwIEMgMTAsMTAgMTUsMTAgMjAsMTAiLz48L2c+PGcgaWQ9IjExMSI+PHBhdGggY2xhc3M9InMxIiBkPSJNMCwwIDIwLDAiLz48L2c+PGcgaWQ9IjFtMCI+PHBhdGggY2xhc3M9InMxIiBkPSJtMCwwIDMsMCA2LDIwIDExLDAiLz48L2c+PGcgaWQ9IjFtMSI+PHBhdGggY2xhc3M9InMxIiBkPSJNMCwwIDMsMCA2LDEwIDksMCAyMCwwIi8+PC9nPjxnIGlkPSIxbXgiPjxwYXRoIGNsYXNzPSJzMSIgZD0ibTMsMCA2LDIwIDExLDAiLz48cGF0aCBjbGFzcz0iczEiIGQ9Ik0wLDAgMjAsMCIvPjxwYXRoIGNsYXNzPSJzMiIgZD0ibTIwLDE1IC01LDUiLz48cGF0aCBjbGFzcz0iczIiIGQ9Ik0yMCwxMCAxMCwyMCIvPjxwYXRoIGNsYXNzPSJzMiIgZD0iTTIwLDUgOCwxNyIvPjxwYXRoIGNsYXNzPSJzMiIgZD0iTTIwLDAgNywxMyIvPjxwYXRoIGNsYXNzPSJzMiIgZD0iTTE1LDAgNiw5Ii8+PHBhdGggY2xhc3M9InMyIiBkPSJNMTAsMCA1LDUiLz48cGF0aCBjbGFzcz0iczIiIGQ9Ik0zLjUsMS41IDUsMCIvPjwvZz48ZyBpZD0iMW1kIj48cGF0aCBjbGFzcz0iczEiIGQ9Im0wLDAgMywwIGMgNCwxMCA3LDIwIDE3LDIwIi8+PC9nPjxnIGlkPSIxbXUiPjxwYXRoIGNsYXNzPSJzMSIgZD0iTTAsMCA1LDAiLz48cGF0aCBjbGFzcz0iczMiIGQ9Ik04LDAgMTgsMCIvPjwvZz48ZyBpZD0iMW16Ij48cGF0aCBjbGFzcz0iczEiIGQ9Im0wLDAgMywwIGMgNywxMCAxMiwxMCAxNywxMCIvPjwvZz48ZyBpZD0ieHh4Ij48cGF0aCBjbGFzcz0iczEiIGQ9Im0wLDIwIDIwLDAiLz48cGF0aCBjbGFzcz0iczEiIGQ9Ik0wLDAgMjAsMCIvPjxwYXRoIGNsYXNzPSJzMiIgZD0iTTAsNSA1LDAiLz48cGF0aCBjbGFzcz0iczIiIGQ9Ik0wLDEwIDEwLDAiLz48cGF0aCBjbGFzcz0iczIiIGQ9Ik0wLDE1IDE1LDAiLz48cGF0aCBjbGFzcz0iczIiIGQ9Ik0wLDIwIDIwLDAiLz48cGF0aCBjbGFzcz0iczIiIGQ9Ik01LDIwIDIwLDUiLz48cGF0aCBjbGFzcz0iczIiIGQ9Ik0xMCwyMCAyMCwxMCIvPjxwYXRoIGNsYXNzPSJzMiIgZD0ibTE1LDIwIDUsLTUiLz48L2c+PGcgaWQ9InhtMCI+PHBhdGggY2xhc3M9InMxIiBkPSJNMCwwIDQsMCA5LDIwIi8+PHBhdGggY2xhc3M9InMxIiBkPSJtMCwyMCAyMCwwIi8+PHBhdGggY2xhc3M9InMyIiBkPSJNMCw1IDQsMSIvPjxwYXRoIGNsYXNzPSJzMiIgZD0iTTAsMTAgNSw1Ii8+PHBhdGggY2xhc3M9InMyIiBkPSJNMCwxNSA2LDkiLz48cGF0aCBjbGFzcz0iczIiIGQ9Ik0wLDIwIDcsMTMiLz48cGF0aCBjbGFzcz0iczIiIGQ9Ik01LDIwIDgsMTciLz48L2c+PGcgaWQ9InhtMSI+PHBhdGggY2xhc3M9InMxIiBkPSJNMCwwIDIwLDAiLz48cGF0aCBjbGFzcz0iczEiIGQ9Ik0wLDIwIDQsMjAgOSwwIi8+PHBhdGggY2xhc3M9InMyIiBkPSJNMCw1IDUsMCIvPjxwYXRoIGNsYXNzPSJzMiIgZD0iTTAsMTAgOSwxIi8+PHBhdGggY2xhc3M9InMyIiBkPSJNMCwxNSA3LDgiLz48cGF0aCBjbGFzcz0iczIiIGQ9Ik0wLDIwIDUsMTUiLz48L2c+PGcgaWQ9InhteCI+PHBhdGggY2xhc3M9InMxIiBkPSJtMCwyMCAyMCwwIi8+PHBhdGggY2xhc3M9InMxIiBkPSJNMCwwIDIwLDAiLz48cGF0aCBjbGFzcz0iczIiIGQ9Ik0wLDUgNSwwIi8+PHBhdGggY2xhc3M9InMyIiBkPSJNMCwxMCAxMCwwIi8+PHBhdGggY2xhc3M9InMyIiBkPSJNMCwxNSAxNSwwIi8+PHBhdGggY2xhc3M9InMyIiBkPSJNMCwyMCAyMCwwIi8+PHBhdGggY2xhc3M9InMyIiBkPSJNNSwyMCAyMCw1Ii8+PHBhdGggY2xhc3M9InMyIiBkPSJNMTAsMjAgMjAsMTAiLz48cGF0aCBjbGFzcz0iczIiIGQ9Im0xNSwyMCA1LC01Ii8+PC9nPjxnIGlkPSJ4bWQiPjxwYXRoIGNsYXNzPSJzMSIgZD0ibTAsMCA0LDAgYyAzLDEwIDYsMjAgMTYsMjAiLz48cGF0aCBjbGFzcz0iczEiIGQ9Im0wLDIwIDIwLDAiLz48cGF0aCBjbGFzcz0iczIiIGQ9Ik0wLDUgNCwxIi8+PHBhdGggY2xhc3M9InMyIiBkPSJNMCwxMCA1LjUsNC41Ii8+PHBhdGggY2xhc3M9InMyIiBkPSJNMCwxNSA2LjUsOC41Ii8+PHBhdGggY2xhc3M9InMyIiBkPSJNMCwyMCA4LDEyIi8+PHBhdGggY2xhc3M9InMyIiBkPSJtNSwyMCA1LC01Ii8+PHBhdGggY2xhc3M9InMyIiBkPSJtMTAsMjAgMi41LC0yLjUiLz48L2c+PGcgaWQ9InhtdSI+PHBhdGggY2xhc3M9InMxIiBkPSJNMCwwIDIwLDAiLz48cGF0aCBjbGFzcz0iczEiIGQ9Im0wLDIwIDQsMCBDIDcsMTAgMTAsMCAyMCwwIi8+PHBhdGggY2xhc3M9InMyIiBkPSJNMCw1IDUsMCIvPjxwYXRoIGNsYXNzPSJzMiIgZD0iTTAsMTAgMTAsMCIvPjxwYXRoIGNsYXNzPSJzMiIgZD0iTTAsMTUgMTAsNSIvPjxwYXRoIGNsYXNzPSJzMiIgZD0iTTAsMjAgNiwxNCIvPjwvZz48ZyBpZD0ieG16Ij48cGF0aCBjbGFzcz0iczEiIGQ9Im0wLDAgNCwwIGMgNiwxMCAxMSwxMCAxNiwxMCIvPjxwYXRoIGNsYXNzPSJzMSIgZD0ibTAsMjAgNCwwIEMgMTAsMTAgMTUsMTAgMjAsMTAiLz48cGF0aCBjbGFzcz0iczIiIGQ9Ik0wLDUgNC41LDAuNSIvPjxwYXRoIGNsYXNzPSJzMiIgZD0iTTAsMTAgNi41LDMuNSIvPjxwYXRoIGNsYXNzPSJzMiIgZD0iTTAsMTUgOC41LDYuNSIvPjxwYXRoIGNsYXNzPSJzMiIgZD0iTTAsMjAgMTEuNSw4LjUiLz48L2c+PGcgaWQ9ImRkZCI+PHBhdGggY2xhc3M9InMzIiBkPSJtMCwyMCAyMCwwIi8+PC9nPjxnIGlkPSJkbTAiPjxwYXRoIGNsYXNzPSJzMyIgZD0ibTAsMjAgMTAsMCIvPjxwYXRoIGNsYXNzPSJzMSIgZD0ibTEyLDIwIDgsMCIvPjwvZz48ZyBpZD0iZG0xIj48cGF0aCBjbGFzcz0iczEiIGQ9Ik0wLDIwIDMsMjAgOSwwIDIwLDAiLz48L2c+PGcgaWQ9ImRteCI+PHBhdGggY2xhc3M9InMxIiBkPSJNMywyMCA5LDAgMjAsMCIvPjxwYXRoIGNsYXNzPSJzMiIgZD0ibTIwLDE1IC01LDUiLz48cGF0aCBjbGFzcz0iczIiIGQ9Ik0yMCwxMCAxMCwyMCIvPjxwYXRoIGNsYXNzPSJzMiIgZD0iTTIwLDUgNSwyMCIvPjxwYXRoIGNsYXNzPSJzMiIgZD0iTTIwLDAgNCwxNiIvPjxwYXRoIGNsYXNzPSJzMiIgZD0iTTE1LDAgNiw5Ii8+PHBhdGggY2xhc3M9InMyIiBkPSJNMTAsMCA5LDEiLz48cGF0aCBjbGFzcz0iczEiIGQ9Im0wLDIwIDIwLDAiLz48L2c+PGcgaWQ9ImRtZCI+PHBhdGggY2xhc3M9InMzIiBkPSJtMCwyMCAyMCwwIi8+PC9nPjxnIGlkPSJkbXUiPjxwYXRoIGNsYXNzPSJzMSIgZD0ibTAsMjAgMywwIEMgNywxMCAxMC4xMDc2MDMsMCAyMCwwIi8+PC9nPjxnIGlkPSJkbXoiPjxwYXRoIGNsYXNzPSJzMSIgZD0ibTAsMjAgMywwIEMgMTAsMTAgMTUsMTAgMjAsMTAiLz48L2c+PGcgaWQ9InV1dSI+PHBhdGggY2xhc3M9InMzIiBkPSJNMCwwIDIwLDAiLz48L2c+PGcgaWQ9InVtMCI+PHBhdGggY2xhc3M9InMxIiBkPSJtMCwwIDMsMCA2LDIwIDExLDAiLz48L2c+PGcgaWQ9InVtMSI+PHBhdGggY2xhc3M9InMzIiBkPSJNMCwwIDEwLDAiLz48cGF0aCBjbGFzcz0iczEiIGQ9Im0xMiwwIDgsMCIvPjwvZz48ZyBpZD0idW14Ij48cGF0aCBjbGFzcz0iczEiIGQ9Im0zLDAgNiwyMCAxMSwwIi8+PHBhdGggY2xhc3M9InMxIiBkPSJNMCwwIDIwLDAiLz48cGF0aCBjbGFzcz0iczIiIGQ9Im0yMCwxNSAtNSw1Ii8+PHBhdGggY2xhc3M9InMyIiBkPSJNMjAsMTAgMTAsMjAiLz48cGF0aCBjbGFzcz0iczIiIGQ9Ik0yMCw1IDgsMTciLz48cGF0aCBjbGFzcz0iczIiIGQ9Ik0yMCwwIDcsMTMiLz48cGF0aCBjbGFzcz0iczIiIGQ9Ik0xNSwwIDYsOSIvPjxwYXRoIGNsYXNzPSJzMiIgZD0iTTEwLDAgNSw1Ii8+PHBhdGggY2xhc3M9InMyIiBkPSJNMy41LDEuNSA1LDAiLz48L2c+PGcgaWQ9InVtZCI+PHBhdGggY2xhc3M9InMxIiBkPSJtMCwwIDMsMCBjIDQsMTAgNywyMCAxNywyMCIvPjwvZz48ZyBpZD0idW11Ij48cGF0aCBjbGFzcz0iczMiIGQ9Ik0wLDAgMjAsMCIvPjwvZz48ZyBpZD0idW16Ij48cGF0aCBjbGFzcz0iczQiIGQ9Im0wLDAgMywwIGMgNywxMCAxMiwxMCAxNywxMCIvPjwvZz48ZyBpZD0ienp6Ij48cGF0aCBjbGFzcz0iczEiIGQ9Im0wLDEwIDIwLDAiLz48L2c+PGcgaWQ9InptMCI+PHBhdGggY2xhc3M9InMxIiBkPSJtMCwxMCA2LDAgMywxMCAxMSwwIi8+PC9nPjxnIGlkPSJ6bTEiPjxwYXRoIGNsYXNzPSJzMSIgZD0iTTAsMTAgNiwxMCA5LDAgMjAsMCIvPjwvZz48ZyBpZD0iem14Ij48cGF0aCBjbGFzcz0iczEiIGQ9Im02LDEwIDMsMTAgMTEsMCIvPjxwYXRoIGNsYXNzPSJzMSIgZD0iTTAsMTAgNiwxMCA5LDAgMjAsMCIvPjxwYXRoIGNsYXNzPSJzMiIgZD0ibTIwLDE1IC01LDUiLz48cGF0aCBjbGFzcz0iczIiIGQ9Ik0yMCwxMCAxMCwyMCIvPjxwYXRoIGNsYXNzPSJzMiIgZD0iTTIwLDUgOCwxNyIvPjxwYXRoIGNsYXNzPSJzMiIgZD0iTTIwLDAgNywxMyIvPjxwYXRoIGNsYXNzPSJzMiIgZD0iTTE1LDAgNi41LDguNSIvPjxwYXRoIGNsYXNzPSJzMiIgZD0iTTEwLDAgOSwxIi8+PC9nPjxnIGlkPSJ6bWQiPjxwYXRoIGNsYXNzPSJzMSIgZD0ibTAsMTAgNywwIGMgMyw1IDgsMTAgMTMsMTAiLz48L2c+PGcgaWQ9InptdSI+PHBhdGggY2xhc3M9InMxIiBkPSJtMCwxMCA3LDAgQyAxMCw1IDE1LDAgMjAsMCIvPjwvZz48ZyBpZD0iem16Ij48cGF0aCBjbGFzcz0iczEiIGQ9Im0wLDEwIDIwLDAiLz48L2c+PGcgaWQ9ImdhcCI+PHBhdGggY2xhc3M9InM1IiBkPSJtNywtMiAtNCwwIGMgLTUsMCAtNSwyNCAtMTAsMjQgbCA0LDAgQyAyLDIyIDIsLTIgNywtMiB6Ii8+PHBhdGggY2xhc3M9InMxIiBkPSJNLTcsMjIgQyAtMiwyMiAtMiwtMiAzLC0yIi8+PHBhdGggY2xhc3M9InMxIiBkPSJNLTMsMjIgQyAyLDIyIDIsLTIgNywtMiIvPjwvZz48ZyBpZD0iUGNsayI+PHBhdGggY2xhc3M9InM2IiBkPSJNLTMsMTIgMCwzIDMsMTIgQyAxLDExIC0xLDExIC0zLDEyIHoiLz48cGF0aCBjbGFzcz0iczEiIGQ9Ik0wLDIwIDAsMCAyMCwwIi8+PC9nPjxnIGlkPSJOY2xrIj48cGF0aCBjbGFzcz0iczYiIGQ9Ik0tMyw4IDAsMTcgMyw4IEMgMSw5IC0xLDkgLTMsOCB6Ii8+PHBhdGggY2xhc3M9InMxIiBkPSJtMCwwIDAsMjAgMjAsMCIvPjwvZz48ZyBpZD0iMG12LTIiPjxwYXRoIGNsYXNzPSJzNyIgZD0iTTksMCAyMCwwIDIwLDIwIDMsMjAgeiIvPjxwYXRoIGNsYXNzPSJzMSIgZD0iTTMsMjAgOSwwIDIwLDAiLz48cGF0aCBjbGFzcz0iczEiIGQ9Im0wLDIwIDIwLDAiLz48L2c+PGcgaWQ9IjFtdi0yIj48cGF0aCBjbGFzcz0iczciIGQ9Ik0yLjg3NSwwIDIwLDAgMjAsMjAgOSwyMCB6Ii8+PHBhdGggY2xhc3M9InMxIiBkPSJtMywwIDYsMjAgMTEsMCIvPjxwYXRoIGNsYXNzPSJzMSIgZD0iTTAsMCAyMCwwIi8+PC9nPjxnIGlkPSJ4bXYtMiI+PHBhdGggY2xhc3M9InM3IiBkPSJNOSwwIDIwLDAgMjAsMjAgOSwyMCA2LDEwIHoiLz48cGF0aCBjbGFzcz0iczEiIGQ9Ik0wLDIwIDMsMjAgOSwwIDIwLDAiLz48cGF0aCBjbGFzcz0iczEiIGQ9Im0wLDAgMywwIDYsMjAgMTEsMCIvPjxwYXRoIGNsYXNzPSJzMiIgZD0iTTAsNSAzLjUsMS41Ii8+PHBhdGggY2xhc3M9InMyIiBkPSJNMCwxMCA0LjUsNS41Ii8+PHBhdGggY2xhc3M9InMyIiBkPSJNMCwxNSA2LDkiLz48cGF0aCBjbGFzcz0iczIiIGQ9Ik0wLDIwIDQsMTYiLz48L2c+PGcgaWQ9ImRtdi0yIj48cGF0aCBjbGFzcz0iczciIGQ9Ik05LDAgMjAsMCAyMCwyMCAzLDIwIHoiLz48cGF0aCBjbGFzcz0iczEiIGQ9Ik0zLDIwIDksMCAyMCwwIi8+PHBhdGggY2xhc3M9InMxIiBkPSJtMCwyMCAyMCwwIi8+PC9nPjxnIGlkPSJ1bXYtMiI+PHBhdGggY2xhc3M9InM3IiBkPSJNMywwIDIwLDAgMjAsMjAgOSwyMCB6Ii8+PHBhdGggY2xhc3M9InMxIiBkPSJtMywwIDYsMjAgMTEsMCIvPjxwYXRoIGNsYXNzPSJzMSIgZD0iTTAsMCAyMCwwIi8+PC9nPjxnIGlkPSJ6bXYtMiI+PHBhdGggY2xhc3M9InM3IiBkPSJNOSwwIDIwLDAgMjAsMjAgOSwyMCA2LDEwIHoiLz48cGF0aCBjbGFzcz0iczEiIGQ9Im02LDEwIDMsMTAgMTEsMCIvPjxwYXRoIGNsYXNzPSJzMSIgZD0iTTAsMTAgNiwxMCA5LDAgMjAsMCIvPjwvZz48ZyBpZD0idnZ2LTIiPjxwYXRoIGNsYXNzPSJzNyIgZD0iTTIwLDIwIDAsMjAgMCwwIDIwLDAiLz48cGF0aCBjbGFzcz0iczEiIGQ9Im0wLDIwIDIwLDAiLz48cGF0aCBjbGFzcz0iczEiIGQ9Ik0wLDAgMjAsMCIvPjwvZz48ZyBpZD0idm0wLTIiPjxwYXRoIGNsYXNzPSJzNyIgZD0iTTAsMjAgMCwwIDMsMCA5LDIwIi8+PHBhdGggY2xhc3M9InMxIiBkPSJNMCwwIDMsMCA5LDIwIi8+PHBhdGggY2xhc3M9InMxIiBkPSJtMCwyMCAyMCwwIi8+PC9nPjxnIGlkPSJ2bTEtMiI+PHBhdGggY2xhc3M9InM3IiBkPSJNMCwwIDAsMjAgMywyMCA5LDAiLz48cGF0aCBjbGFzcz0iczEiIGQ9Ik0wLDAgMjAsMCIvPjxwYXRoIGNsYXNzPSJzMSIgZD0iTTAsMjAgMywyMCA5LDAiLz48L2c+PGcgaWQ9InZteC0yIj48cGF0aCBjbGFzcz0iczciIGQ9Ik0wLDAgMCwyMCAzLDIwIDYsMTAgMywwIi8+PHBhdGggY2xhc3M9InMxIiBkPSJtMCwwIDMsMCA2LDIwIDExLDAiLz48cGF0aCBjbGFzcz0iczEiIGQ9Ik0wLDIwIDMsMjAgOSwwIDIwLDAiLz48cGF0aCBjbGFzcz0iczIiIGQ9Im0yMCwxNSAtNSw1Ii8+PHBhdGggY2xhc3M9InMyIiBkPSJNMjAsMTAgMTAsMjAiLz48cGF0aCBjbGFzcz0iczIiIGQ9Ik0yMCw1IDgsMTciLz48cGF0aCBjbGFzcz0iczIiIGQ9Ik0yMCwwIDcsMTMiLz48cGF0aCBjbGFzcz0iczIiIGQ9Ik0xNSwwIDcsOCIvPjxwYXRoIGNsYXNzPSJzMiIgZD0iTTEwLDAgOSwxIi8+PC9nPjxnIGlkPSJ2bWQtMiI+PHBhdGggY2xhc3M9InM3IiBkPSJtMCwwIDAsMjAgMjAsMCBDIDEwLDIwIDcsMTAgMywwIi8+PHBhdGggY2xhc3M9InMxIiBkPSJtMCwwIDMsMCBjIDQsMTAgNywyMCAxNywyMCIvPjxwYXRoIGNsYXNzPSJzMSIgZD0ibTAsMjAgMjAsMCIvPjwvZz48ZyBpZD0idm11LTIiPjxwYXRoIGNsYXNzPSJzNyIgZD0ibTAsMCAwLDIwIDMsMCBDIDcsMTAgMTAsMCAyMCwwIi8+PHBhdGggY2xhc3M9InMxIiBkPSJtMCwyMCAzLDAgQyA3LDEwIDEwLDAgMjAsMCIvPjxwYXRoIGNsYXNzPSJzMSIgZD0iTTAsMCAyMCwwIi8+PC9nPjxnIGlkPSJ2bXotMiI+PHBhdGggY2xhc3M9InM3IiBkPSJNMCwwIDMsMCBDIDEwLDEwIDE1LDEwIDIwLDEwIDE1LDEwIDEwLDEwIDMsMjAgTCAwLDIwIi8+PHBhdGggY2xhc3M9InMxIiBkPSJtMCwwIDMsMCBjIDcsMTAgMTIsMTAgMTcsMTAiLz48cGF0aCBjbGFzcz0iczEiIGQ9Im0wLDIwIDMsMCBDIDEwLDEwIDE1LDEwIDIwLDEwIi8+PC9nPjxnIGlkPSIwbXYtMyI+PHBhdGggY2xhc3M9InM4IiBkPSJNOSwwIDIwLDAgMjAsMjAgMywyMCB6Ii8+PHBhdGggY2xhc3M9InMxIiBkPSJNMywyMCA5LDAgMjAsMCIvPjxwYXRoIGNsYXNzPSJzMSIgZD0ibTAsMjAgMjAsMCIvPjwvZz48ZyBpZD0iMW12LTMiPjxwYXRoIGNsYXNzPSJzOCIgZD0iTTIuODc1LDAgMjAsMCAyMCwyMCA5LDIwIHoiLz48cGF0aCBjbGFzcz0iczEiIGQ9Im0zLDAgNiwyMCAxMSwwIi8+PHBhdGggY2xhc3M9InMxIiBkPSJNMCwwIDIwLDAiLz48L2c+PGcgaWQ9Inhtdi0zIj48cGF0aCBjbGFzcz0iczgiIGQ9Ik05LDAgMjAsMCAyMCwyMCA5LDIwIDYsMTAgeiIvPjxwYXRoIGNsYXNzPSJzMSIgZD0iTTAsMjAgMywyMCA5LDAgMjAsMCIvPjxwYXRoIGNsYXNzPSJzMSIgZD0ibTAsMCAzLDAgNiwyMCAxMSwwIi8+PHBhdGggY2xhc3M9InMyIiBkPSJNMCw1IDMuNSwxLjUiLz48cGF0aCBjbGFzcz0iczIiIGQ9Ik0wLDEwIDQuNSw1LjUiLz48cGF0aCBjbGFzcz0iczIiIGQ9Ik0wLDE1IDYsOSIvPjxwYXRoIGNsYXNzPSJzMiIgZD0iTTAsMjAgNCwxNiIvPjwvZz48ZyBpZD0iZG12LTMiPjxwYXRoIGNsYXNzPSJzOCIgZD0iTTksMCAyMCwwIDIwLDIwIDMsMjAgeiIvPjxwYXRoIGNsYXNzPSJzMSIgZD0iTTMsMjAgOSwwIDIwLDAiLz48cGF0aCBjbGFzcz0iczEiIGQ9Im0wLDIwIDIwLDAiLz48L2c+PGcgaWQ9InVtdi0zIj48cGF0aCBjbGFzcz0iczgiIGQ9Ik0zLDAgMjAsMCAyMCwyMCA5LDIwIHoiLz48cGF0aCBjbGFzcz0iczEiIGQ9Im0zLDAgNiwyMCAxMSwwIi8+PHBhdGggY2xhc3M9InMxIiBkPSJNMCwwIDIwLDAiLz48L2c+PGcgaWQ9Inptdi0zIj48cGF0aCBjbGFzcz0iczgiIGQ9Ik05LDAgMjAsMCAyMCwyMCA5LDIwIDYsMTAgeiIvPjxwYXRoIGNsYXNzPSJzMSIgZD0ibTYsMTAgMywxMCAxMSwwIi8+PHBhdGggY2xhc3M9InMxIiBkPSJNMCwxMCA2LDEwIDksMCAyMCwwIi8+PC9nPjxnIGlkPSJ2dnYtMyI+PHBhdGggY2xhc3M9InM4IiBkPSJNMjAsMjAgMCwyMCAwLDAgMjAsMCIvPjxwYXRoIGNsYXNzPSJzMSIgZD0ibTAsMjAgMjAsMCIvPjxwYXRoIGNsYXNzPSJzMSIgZD0iTTAsMCAyMCwwIi8+PC9nPjxnIGlkPSJ2bTAtMyI+PHBhdGggY2xhc3M9InM4IiBkPSJNMCwyMCAwLDAgMywwIDksMjAiLz48cGF0aCBjbGFzcz0iczEiIGQ9Ik0wLDAgMywwIDksMjAiLz48cGF0aCBjbGFzcz0iczEiIGQ9Im0wLDIwIDIwLDAiLz48L2c+PGcgaWQ9InZtMS0zIj48cGF0aCBjbGFzcz0iczgiIGQ9Ik0wLDAgMCwyMCAzLDIwIDksMCIvPjxwYXRoIGNsYXNzPSJzMSIgZD0iTTAsMCAyMCwwIi8+PHBhdGggY2xhc3M9InMxIiBkPSJNMCwyMCAzLDIwIDksMCIvPjwvZz48ZyBpZD0idm14LTMiPjxwYXRoIGNsYXNzPSJzOCIgZD0iTTAsMCAwLDIwIDMsMjAgNiwxMCAzLDAiLz48cGF0aCBjbGFzcz0iczEiIGQ9Im0wLDAgMywwIDYsMjAgMTEsMCIvPjxwYXRoIGNsYXNzPSJzMSIgZD0iTTAsMjAgMywyMCA5LDAgMjAsMCIvPjxwYXRoIGNsYXNzPSJzMiIgZD0ibTIwLDE1IC01LDUiLz48cGF0aCBjbGFzcz0iczIiIGQ9Ik0yMCwxMCAxMCwyMCIvPjxwYXRoIGNsYXNzPSJzMiIgZD0iTTIwLDUgOCwxNyIvPjxwYXRoIGNsYXNzPSJzMiIgZD0iTTIwLDAgNywxMyIvPjxwYXRoIGNsYXNzPSJzMiIgZD0iTTE1LDAgNyw4Ii8+PHBhdGggY2xhc3M9InMyIiBkPSJNMTAsMCA5LDEiLz48L2c+PGcgaWQ9InZtZC0zIj48cGF0aCBjbGFzcz0iczgiIGQ9Im0wLDAgMCwyMCAyMCwwIEMgMTAsMjAgNywxMCAzLDAiLz48cGF0aCBjbGFzcz0iczEiIGQ9Im0wLDAgMywwIGMgNCwxMCA3LDIwIDE3LDIwIi8+PHBhdGggY2xhc3M9InMxIiBkPSJtMCwyMCAyMCwwIi8+PC9nPjxnIGlkPSJ2bXUtMyI+PHBhdGggY2xhc3M9InM4IiBkPSJtMCwwIDAsMjAgMywwIEMgNywxMCAxMCwwIDIwLDAiLz48cGF0aCBjbGFzcz0iczEiIGQ9Im0wLDIwIDMsMCBDIDcsMTAgMTAsMCAyMCwwIi8+PHBhdGggY2xhc3M9InMxIiBkPSJNMCwwIDIwLDAiLz48L2c+PGcgaWQ9InZtei0zIj48cGF0aCBjbGFzcz0iczgiIGQ9Ik0wLDAgMywwIEMgMTAsMTAgMTUsMTAgMjAsMTAgMTUsMTAgMTAsMTAgMywyMCBMIDAsMjAiLz48cGF0aCBjbGFzcz0iczEiIGQ9Im0wLDAgMywwIGMgNywxMCAxMiwxMCAxNywxMCIvPjxwYXRoIGNsYXNzPSJzMSIgZD0ibTAsMjAgMywwIEMgMTAsMTAgMTUsMTAgMjAsMTAiLz48L2c+PGcgaWQ9IjBtdi00Ij48cGF0aCBjbGFzcz0iczkiIGQ9Ik05LDAgMjAsMCAyMCwyMCAzLDIwIHoiLz48cGF0aCBjbGFzcz0iczEiIGQ9Ik0zLDIwIDksMCAyMCwwIi8+PHBhdGggY2xhc3M9InMxIiBkPSJtMCwyMCAyMCwwIi8+PC9nPjxnIGlkPSIxbXYtNCI+PHBhdGggY2xhc3M9InM5IiBkPSJNMi44NzUsMCAyMCwwIDIwLDIwIDksMjAgeiIvPjxwYXRoIGNsYXNzPSJzMSIgZD0ibTMsMCA2LDIwIDExLDAiLz48cGF0aCBjbGFzcz0iczEiIGQ9Ik0wLDAgMjAsMCIvPjwvZz48ZyBpZD0ieG12LTQiPjxwYXRoIGNsYXNzPSJzOSIgZD0iTTksMCAyMCwwIDIwLDIwIDksMjAgNiwxMCB6Ii8+PHBhdGggY2xhc3M9InMxIiBkPSJNMCwyMCAzLDIwIDksMCAyMCwwIi8+PHBhdGggY2xhc3M9InMxIiBkPSJtMCwwIDMsMCA2LDIwIDExLDAiLz48cGF0aCBjbGFzcz0iczIiIGQ9Ik0wLDUgMy41LDEuNSIvPjxwYXRoIGNsYXNzPSJzMiIgZD0iTTAsMTAgNC41LDUuNSIvPjxwYXRoIGNsYXNzPSJzMiIgZD0iTTAsMTUgNiw5Ii8+PHBhdGggY2xhc3M9InMyIiBkPSJNMCwyMCA0LDE2Ii8+PC9nPjxnIGlkPSJkbXYtNCI+PHBhdGggY2xhc3M9InM5IiBkPSJNOSwwIDIwLDAgMjAsMjAgMywyMCB6Ii8+PHBhdGggY2xhc3M9InMxIiBkPSJNMywyMCA5LDAgMjAsMCIvPjxwYXRoIGNsYXNzPSJzMSIgZD0ibTAsMjAgMjAsMCIvPjwvZz48ZyBpZD0idW12LTQiPjxwYXRoIGNsYXNzPSJzOSIgZD0iTTMsMCAyMCwwIDIwLDIwIDksMjAgeiIvPjxwYXRoIGNsYXNzPSJzMSIgZD0ibTMsMCA2LDIwIDExLDAiLz48cGF0aCBjbGFzcz0iczEiIGQ9Ik0wLDAgMjAsMCIvPjwvZz48ZyBpZD0iem12LTQiPjxwYXRoIGNsYXNzPSJzOSIgZD0iTTksMCAyMCwwIDIwLDIwIDksMjAgNiwxMCB6Ii8+PHBhdGggY2xhc3M9InMxIiBkPSJtNiwxMCAzLDEwIDExLDAiLz48cGF0aCBjbGFzcz0iczEiIGQ9Ik0wLDEwIDYsMTAgOSwwIDIwLDAiLz48L2c+PGcgaWQ9InZ2di00Ij48cGF0aCBjbGFzcz0iczkiIGQ9Ik0yMCwyMCAwLDIwIDAsMCAyMCwwIi8+PHBhdGggY2xhc3M9InMxIiBkPSJtMCwyMCAyMCwwIi8+PHBhdGggY2xhc3M9InMxIiBkPSJNMCwwIDIwLDAiLz48L2c+PGcgaWQ9InZtMC00Ij48cGF0aCBjbGFzcz0iczkiIGQ9Ik0wLDIwIDAsMCAzLDAgOSwyMCIvPjxwYXRoIGNsYXNzPSJzMSIgZD0iTTAsMCAzLDAgOSwyMCIvPjxwYXRoIGNsYXNzPSJzMSIgZD0ibTAsMjAgMjAsMCIvPjwvZz48ZyBpZD0idm0xLTQiPjxwYXRoIGNsYXNzPSJzOSIgZD0iTTAsMCAwLDIwIDMsMjAgOSwwIi8+PHBhdGggY2xhc3M9InMxIiBkPSJNMCwwIDIwLDAiLz48cGF0aCBjbGFzcz0iczEiIGQ9Ik0wLDIwIDMsMjAgOSwwIi8+PC9nPjxnIGlkPSJ2bXgtNCI+PHBhdGggY2xhc3M9InM5IiBkPSJNMCwwIDAsMjAgMywyMCA2LDEwIDMsMCIvPjxwYXRoIGNsYXNzPSJzMSIgZD0ibTAsMCAzLDAgNiwyMCAxMSwwIi8+PHBhdGggY2xhc3M9InMxIiBkPSJNMCwyMCAzLDIwIDksMCAyMCwwIi8+PHBhdGggY2xhc3M9InMyIiBkPSJtMjAsMTUgLTUsNSIvPjxwYXRoIGNsYXNzPSJzMiIgZD0iTTIwLDEwIDEwLDIwIi8+PHBhdGggY2xhc3M9InMyIiBkPSJNMjAsNSA4LDE3Ii8+PHBhdGggY2xhc3M9InMyIiBkPSJNMjAsMCA3LDEzIi8+PHBhdGggY2xhc3M9InMyIiBkPSJNMTUsMCA3LDgiLz48cGF0aCBjbGFzcz0iczIiIGQ9Ik0xMCwwIDksMSIvPjwvZz48ZyBpZD0idm1kLTQiPjxwYXRoIGNsYXNzPSJzOSIgZD0ibTAsMCAwLDIwIDIwLDAgQyAxMCwyMCA3LDEwIDMsMCIvPjxwYXRoIGNsYXNzPSJzMSIgZD0ibTAsMCAzLDAgYyA0LDEwIDcsMjAgMTcsMjAiLz48cGF0aCBjbGFzcz0iczEiIGQ9Im0wLDIwIDIwLDAiLz48L2c+PGcgaWQ9InZtdS00Ij48cGF0aCBjbGFzcz0iczkiIGQ9Im0wLDAgMCwyMCAzLDAgQyA3LDEwIDEwLDAgMjAsMCIvPjxwYXRoIGNsYXNzPSJzMSIgZD0ibTAsMjAgMywwIEMgNywxMCAxMCwwIDIwLDAiLz48cGF0aCBjbGFzcz0iczEiIGQ9Ik0wLDAgMjAsMCIvPjwvZz48ZyBpZD0idm16LTQiPjxwYXRoIGNsYXNzPSJzOSIgZD0iTTAsMCAzLDAgQyAxMCwxMCAxNSwxMCAyMCwxMCAxNSwxMCAxMCwxMCAzLDIwIEwgMCwyMCIvPjxwYXRoIGNsYXNzPSJzMSIgZD0ibTAsMCAzLDAgYyA3LDEwIDEyLDEwIDE3LDEwIi8+PHBhdGggY2xhc3M9InMxIiBkPSJtMCwyMCAzLDAgQyAxMCwxMCAxNSwxMCAyMCwxMCIvPjwvZz48ZyBpZD0iMG12LTUiPjxwYXRoIGNsYXNzPSJzMTAiIGQ9Ik05LDAgMjAsMCAyMCwyMCAzLDIwIHoiLz48cGF0aCBjbGFzcz0iczEiIGQ9Ik0zLDIwIDksMCAyMCwwIi8+PHBhdGggY2xhc3M9InMxIiBkPSJtMCwyMCAyMCwwIi8+PC9nPjxnIGlkPSIxbXYtNSI+PHBhdGggY2xhc3M9InMxMCIgZD0iTTIuODc1LDAgMjAsMCAyMCwyMCA5LDIwIHoiLz48cGF0aCBjbGFzcz0iczEiIGQ9Im0zLDAgNiwyMCAxMSwwIi8+PHBhdGggY2xhc3M9InMxIiBkPSJNMCwwIDIwLDAiLz48L2c+PGcgaWQ9Inhtdi01Ij48cGF0aCBjbGFzcz0iczEwIiBkPSJNOSwwIDIwLDAgMjAsMjAgOSwyMCA2LDEwIHoiLz48cGF0aCBjbGFzcz0iczEiIGQ9Ik0wLDIwIDMsMjAgOSwwIDIwLDAiLz48cGF0aCBjbGFzcz0iczEiIGQ9Im0wLDAgMywwIDYsMjAgMTEsMCIvPjxwYXRoIGNsYXNzPSJzMiIgZD0iTTAsNSAzLjUsMS41Ii8+PHBhdGggY2xhc3M9InMyIiBkPSJNMCwxMCA0LjUsNS41Ii8+PHBhdGggY2xhc3M9InMyIiBkPSJNMCwxNSA2LDkiLz48cGF0aCBjbGFzcz0iczIiIGQ9Ik0wLDIwIDQsMTYiLz48L2c+PGcgaWQ9ImRtdi01Ij48cGF0aCBjbGFzcz0iczEwIiBkPSJNOSwwIDIwLDAgMjAsMjAgMywyMCB6Ii8+PHBhdGggY2xhc3M9InMxIiBkPSJNMywyMCA5LDAgMjAsMCIvPjxwYXRoIGNsYXNzPSJzMSIgZD0ibTAsMjAgMjAsMCIvPjwvZz48ZyBpZD0idW12LTUiPjxwYXRoIGNsYXNzPSJzMTAiIGQ9Ik0zLDAgMjAsMCAyMCwyMCA5LDIwIHoiLz48cGF0aCBjbGFzcz0iczEiIGQ9Im0zLDAgNiwyMCAxMSwwIi8+PHBhdGggY2xhc3M9InMxIiBkPSJNMCwwIDIwLDAiLz48L2c+PGcgaWQ9Inptdi01Ij48cGF0aCBjbGFzcz0iczEwIiBkPSJNOSwwIDIwLDAgMjAsMjAgOSwyMCA2LDEwIHoiLz48cGF0aCBjbGFzcz0iczEiIGQ9Im02LDEwIDMsMTAgMTEsMCIvPjxwYXRoIGNsYXNzPSJzMSIgZD0iTTAsMTAgNiwxMCA5LDAgMjAsMCIvPjwvZz48ZyBpZD0idnZ2LTUiPjxwYXRoIGNsYXNzPSJzMTAiIGQ9Ik0yMCwyMCAwLDIwIDAsMCAyMCwwIi8+PHBhdGggY2xhc3M9InMxIiBkPSJtMCwyMCAyMCwwIi8+PHBhdGggY2xhc3M9InMxIiBkPSJNMCwwIDIwLDAiLz48L2c+PGcgaWQ9InZtMC01Ij48cGF0aCBjbGFzcz0iczEwIiBkPSJNMCwyMCAwLDAgMywwIDksMjAiLz48cGF0aCBjbGFzcz0iczEiIGQ9Ik0wLDAgMywwIDksMjAiLz48cGF0aCBjbGFzcz0iczEiIGQ9Im0wLDIwIDIwLDAiLz48L2c+PGcgaWQ9InZtMS01Ij48cGF0aCBjbGFzcz0iczEwIiBkPSJNMCwwIDAsMjAgMywyMCA5LDAiLz48cGF0aCBjbGFzcz0iczEiIGQ9Ik0wLDAgMjAsMCIvPjxwYXRoIGNsYXNzPSJzMSIgZD0iTTAsMjAgMywyMCA5LDAiLz48L2c+PGcgaWQ9InZteC01Ij48cGF0aCBjbGFzcz0iczEwIiBkPSJNMCwwIDAsMjAgMywyMCA2LDEwIDMsMCIvPjxwYXRoIGNsYXNzPSJzMSIgZD0ibTAsMCAzLDAgNiwyMCAxMSwwIi8+PHBhdGggY2xhc3M9InMxIiBkPSJNMCwyMCAzLDIwIDksMCAyMCwwIi8+PHBhdGggY2xhc3M9InMyIiBkPSJtMjAsMTUgLTUsNSIvPjxwYXRoIGNsYXNzPSJzMiIgZD0iTTIwLDEwIDEwLDIwIi8+PHBhdGggY2xhc3M9InMyIiBkPSJNMjAsNSA4LDE3Ii8+PHBhdGggY2xhc3M9InMyIiBkPSJNMjAsMCA3LDEzIi8+PHBhdGggY2xhc3M9InMyIiBkPSJNMTUsMCA3LDgiLz48cGF0aCBjbGFzcz0iczIiIGQ9Ik0xMCwwIDksMSIvPjwvZz48ZyBpZD0idm1kLTUiPjxwYXRoIGNsYXNzPSJzMTAiIGQ9Im0wLDAgMCwyMCAyMCwwIEMgMTAsMjAgNywxMCAzLDAiLz48cGF0aCBjbGFzcz0iczEiIGQ9Im0wLDAgMywwIGMgNCwxMCA3LDIwIDE3LDIwIi8+PHBhdGggY2xhc3M9InMxIiBkPSJtMCwyMCAyMCwwIi8+PC9nPjxnIGlkPSJ2bXUtNSI+PHBhdGggY2xhc3M9InMxMCIgZD0ibTAsMCAwLDIwIDMsMCBDIDcsMTAgMTAsMCAyMCwwIi8+PHBhdGggY2xhc3M9InMxIiBkPSJtMCwyMCAzLDAgQyA3LDEwIDEwLDAgMjAsMCIvPjxwYXRoIGNsYXNzPSJzMSIgZD0iTTAsMCAyMCwwIi8+PC9nPjxnIGlkPSJ2bXotNSI+PHBhdGggY2xhc3M9InMxMCIgZD0iTTAsMCAzLDAgQyAxMCwxMCAxNSwxMCAyMCwxMCAxNSwxMCAxMCwxMCAzLDIwIEwgMCwyMCIvPjxwYXRoIGNsYXNzPSJzMSIgZD0ibTAsMCAzLDAgYyA3LDEwIDEyLDEwIDE3LDEwIi8+PHBhdGggY2xhc3M9InMxIiBkPSJtMCwyMCAzLDAgQyAxMCwxMCAxNSwxMCAyMCwxMCIvPjwvZz48ZyBpZD0iMG12LTYiPjxwYXRoIGNsYXNzPSJzMTEiIGQ9Ik05LDAgMjAsMCAyMCwyMCAzLDIwIHoiLz48cGF0aCBjbGFzcz0iczEiIGQ9Ik0zLDIwIDksMCAyMCwwIi8+PHBhdGggY2xhc3M9InMxIiBkPSJtMCwyMCAyMCwwIi8+PC9nPjxnIGlkPSIxbXYtNiI+PHBhdGggY2xhc3M9InMxMSIgZD0iTTIuODc1LDAgMjAsMCAyMCwyMCA5LDIwIHoiLz48cGF0aCBjbGFzcz0iczEiIGQ9Im0zLDAgNiwyMCAxMSwwIi8+PHBhdGggY2xhc3M9InMxIiBkPSJNMCwwIDIwLDAiLz48L2c+PGcgaWQ9Inhtdi02Ij48cGF0aCBjbGFzcz0iczExIiBkPSJNOSwwIDIwLDAgMjAsMjAgOSwyMCA2LDEwIHoiLz48cGF0aCBjbGFzcz0iczEiIGQ9Ik0wLDIwIDMsMjAgOSwwIDIwLDAiLz48cGF0aCBjbGFzcz0iczEiIGQ9Im0wLDAgMywwIDYsMjAgMTEsMCIvPjxwYXRoIGNsYXNzPSJzMiIgZD0iTTAsNSAzLjUsMS41Ii8+PHBhdGggY2xhc3M9InMyIiBkPSJNMCwxMCA0LjUsNS41Ii8+PHBhdGggY2xhc3M9InMyIiBkPSJNMCwxNSA2LDkiLz48cGF0aCBjbGFzcz0iczIiIGQ9Ik0wLDIwIDQsMTYiLz48L2c+PGcgaWQ9ImRtdi02Ij48cGF0aCBjbGFzcz0iczExIiBkPSJNOSwwIDIwLDAgMjAsMjAgMywyMCB6Ii8+PHBhdGggY2xhc3M9InMxIiBkPSJNMywyMCA5LDAgMjAsMCIvPjxwYXRoIGNsYXNzPSJzMSIgZD0ibTAsMjAgMjAsMCIvPjwvZz48ZyBpZD0idW12LTYiPjxwYXRoIGNsYXNzPSJzMTEiIGQ9Ik0zLDAgMjAsMCAyMCwyMCA5LDIwIHoiLz48cGF0aCBjbGFzcz0iczEiIGQ9Im0zLDAgNiwyMCAxMSwwIi8+PHBhdGggY2xhc3M9InMxIiBkPSJNMCwwIDIwLDAiLz48L2c+PGcgaWQ9Inptdi02Ij48cGF0aCBjbGFzcz0iczExIiBkPSJNOSwwIDIwLDAgMjAsMjAgOSwyMCA2LDEwIHoiLz48cGF0aCBjbGFzcz0iczEiIGQ9Im02LDEwIDMsMTAgMTEsMCIvPjxwYXRoIGNsYXNzPSJzMSIgZD0iTTAsMTAgNiwxMCA5LDAgMjAsMCIvPjwvZz48ZyBpZD0idnZ2LTYiPjxwYXRoIGNsYXNzPSJzMTEiIGQ9Ik0yMCwyMCAwLDIwIDAsMCAyMCwwIi8+PHBhdGggY2xhc3M9InMxIiBkPSJtMCwyMCAyMCwwIi8+PHBhdGggY2xhc3M9InMxIiBkPSJNMCwwIDIwLDAiLz48L2c+PGcgaWQ9InZtMC02Ij48cGF0aCBjbGFzcz0iczExIiBkPSJNMCwyMCAwLDAgMywwIDksMjAiLz48cGF0aCBjbGFzcz0iczEiIGQ9Ik0wLDAgMywwIDksMjAiLz48cGF0aCBjbGFzcz0iczEiIGQ9Im0wLDIwIDIwLDAiLz48L2c+PGcgaWQ9InZtMS02Ij48cGF0aCBjbGFzcz0iczExIiBkPSJNMCwwIDAsMjAgMywyMCA5LDAiLz48cGF0aCBjbGFzcz0iczEiIGQ9Ik0wLDAgMjAsMCIvPjxwYXRoIGNsYXNzPSJzMSIgZD0iTTAsMjAgMywyMCA5LDAiLz48L2c+PGcgaWQ9InZteC02Ij48cGF0aCBjbGFzcz0iczExIiBkPSJNMCwwIDAsMjAgMywyMCA2LDEwIDMsMCIvPjxwYXRoIGNsYXNzPSJzMSIgZD0ibTAsMCAzLDAgNiwyMCAxMSwwIi8+PHBhdGggY2xhc3M9InMxIiBkPSJNMCwyMCAzLDIwIDksMCAyMCwwIi8+PHBhdGggY2xhc3M9InMyIiBkPSJtMjAsMTUgLTUsNSIvPjxwYXRoIGNsYXNzPSJzMiIgZD0iTTIwLDEwIDEwLDIwIi8+PHBhdGggY2xhc3M9InMyIiBkPSJNMjAsNSA4LDE3Ii8+PHBhdGggY2xhc3M9InMyIiBkPSJNMjAsMCA3LDEzIi8+PHBhdGggY2xhc3M9InMyIiBkPSJNMTUsMCA3LDgiLz48cGF0aCBjbGFzcz0iczIiIGQ9Ik0xMCwwIDksMSIvPjwvZz48ZyBpZD0idm1kLTYiPjxwYXRoIGNsYXNzPSJzMTEiIGQ9Im0wLDAgMCwyMCAyMCwwIEMgMTAsMjAgNywxMCAzLDAiLz48cGF0aCBjbGFzcz0iczEiIGQ9Im0wLDAgMywwIGMgNCwxMCA3LDIwIDE3LDIwIi8+PHBhdGggY2xhc3M9InMxIiBkPSJtMCwyMCAyMCwwIi8+PC9nPjxnIGlkPSJ2bXUtNiI+PHBhdGggY2xhc3M9InMxMSIgZD0ibTAsMCAwLDIwIDMsMCBDIDcsMTAgMTAsMCAyMCwwIi8+PHBhdGggY2xhc3M9InMxIiBkPSJtMCwyMCAzLDAgQyA3LDEwIDEwLDAgMjAsMCIvPjxwYXRoIGNsYXNzPSJzMSIgZD0iTTAsMCAyMCwwIi8+PC9nPjxnIGlkPSJ2bXotNiI+PHBhdGggY2xhc3M9InMxMSIgZD0iTTAsMCAzLDAgQyAxMCwxMCAxNSwxMCAyMCwxMCAxNSwxMCAxMCwxMCAzLDIwIEwgMCwyMCIvPjxwYXRoIGNsYXNzPSJzMSIgZD0ibTAsMCAzLDAgYyA3LDEwIDEyLDEwIDE3LDEwIi8+PHBhdGggY2xhc3M9InMxIiBkPSJtMCwyMCAzLDAgQyAxMCwxMCAxNSwxMCAyMCwxMCIvPjwvZz48ZyBpZD0iMG12LTciPjxwYXRoIGNsYXNzPSJzMTIiIGQ9Ik05LDAgMjAsMCAyMCwyMCAzLDIwIHoiLz48cGF0aCBjbGFzcz0iczEiIGQ9Ik0zLDIwIDksMCAyMCwwIi8+PHBhdGggY2xhc3M9InMxIiBkPSJtMCwyMCAyMCwwIi8+PC9nPjxnIGlkPSIxbXYtNyI+PHBhdGggY2xhc3M9InMxMiIgZD0iTTIuODc1LDAgMjAsMCAyMCwyMCA5LDIwIHoiLz48cGF0aCBjbGFzcz0iczEiIGQ9Im0zLDAgNiwyMCAxMSwwIi8+PHBhdGggY2xhc3M9InMxIiBkPSJNMCwwIDIwLDAiLz48L2c+PGcgaWQ9Inhtdi03Ij48cGF0aCBjbGFzcz0iczEyIiBkPSJNOSwwIDIwLDAgMjAsMjAgOSwyMCA2LDEwIHoiLz48cGF0aCBjbGFzcz0iczEiIGQ9Ik0wLDIwIDMsMjAgOSwwIDIwLDAiLz48cGF0aCBjbGFzcz0iczEiIGQ9Im0wLDAgMywwIDYsMjAgMTEsMCIvPjxwYXRoIGNsYXNzPSJzMiIgZD0iTTAsNSAzLjUsMS41Ii8+PHBhdGggY2xhc3M9InMyIiBkPSJNMCwxMCA0LjUsNS41Ii8+PHBhdGggY2xhc3M9InMyIiBkPSJNMCwxNSA2LDkiLz48cGF0aCBjbGFzcz0iczIiIGQ9Ik0wLDIwIDQsMTYiLz48L2c+PGcgaWQ9ImRtdi03Ij48cGF0aCBjbGFzcz0iczEyIiBkPSJNOSwwIDIwLDAgMjAsMjAgMywyMCB6Ii8+PHBhdGggY2xhc3M9InMxIiBkPSJNMywyMCA5LDAgMjAsMCIvPjxwYXRoIGNsYXNzPSJzMSIgZD0ibTAsMjAgMjAsMCIvPjwvZz48ZyBpZD0idW12LTciPjxwYXRoIGNsYXNzPSJzMTIiIGQ9Ik0zLDAgMjAsMCAyMCwyMCA5LDIwIHoiLz48cGF0aCBjbGFzcz0iczEiIGQ9Im0zLDAgNiwyMCAxMSwwIi8+PHBhdGggY2xhc3M9InMxIiBkPSJNMCwwIDIwLDAiLz48L2c+PGcgaWQ9Inptdi03Ij48cGF0aCBjbGFzcz0iczEyIiBkPSJNOSwwIDIwLDAgMjAsMjAgOSwyMCA2LDEwIHoiLz48cGF0aCBjbGFzcz0iczEiIGQ9Im02LDEwIDMsMTAgMTEsMCIvPjxwYXRoIGNsYXNzPSJzMSIgZD0iTTAsMTAgNiwxMCA5LDAgMjAsMCIvPjwvZz48ZyBpZD0idnZ2LTciPjxwYXRoIGNsYXNzPSJzMTIiIGQ9Ik0yMCwyMCAwLDIwIDAsMCAyMCwwIi8+PHBhdGggY2xhc3M9InMxIiBkPSJtMCwyMCAyMCwwIi8+PHBhdGggY2xhc3M9InMxIiBkPSJNMCwwIDIwLDAiLz48L2c+PGcgaWQ9InZtMC03Ij48cGF0aCBjbGFzcz0iczEyIiBkPSJNMCwyMCAwLDAgMywwIDksMjAiLz48cGF0aCBjbGFzcz0iczEiIGQ9Ik0wLDAgMywwIDksMjAiLz48cGF0aCBjbGFzcz0iczEiIGQ9Im0wLDIwIDIwLDAiLz48L2c+PGcgaWQ9InZtMS03Ij48cGF0aCBjbGFzcz0iczEyIiBkPSJNMCwwIDAsMjAgMywyMCA5LDAiLz48cGF0aCBjbGFzcz0iczEiIGQ9Ik0wLDAgMjAsMCIvPjxwYXRoIGNsYXNzPSJzMSIgZD0iTTAsMjAgMywyMCA5LDAiLz48L2c+PGcgaWQ9InZteC03Ij48cGF0aCBjbGFzcz0iczEyIiBkPSJNMCwwIDAsMjAgMywyMCA2LDEwIDMsMCIvPjxwYXRoIGNsYXNzPSJzMSIgZD0ibTAsMCAzLDAgNiwyMCAxMSwwIi8+PHBhdGggY2xhc3M9InMxIiBkPSJNMCwyMCAzLDIwIDksMCAyMCwwIi8+PHBhdGggY2xhc3M9InMyIiBkPSJtMjAsMTUgLTUsNSIvPjxwYXRoIGNsYXNzPSJzMiIgZD0iTTIwLDEwIDEwLDIwIi8+PHBhdGggY2xhc3M9InMyIiBkPSJNMjAsNSA4LDE3Ii8+PHBhdGggY2xhc3M9InMyIiBkPSJNMjAsMCA3LDEzIi8+PHBhdGggY2xhc3M9InMyIiBkPSJNMTUsMCA3LDgiLz48cGF0aCBjbGFzcz0iczIiIGQ9Ik0xMCwwIDksMSIvPjwvZz48ZyBpZD0idm1kLTciPjxwYXRoIGNsYXNzPSJzMTIiIGQ9Im0wLDAgMCwyMCAyMCwwIEMgMTAsMjAgNywxMCAzLDAiLz48cGF0aCBjbGFzcz0iczEiIGQ9Im0wLDAgMywwIGMgNCwxMCA3LDIwIDE3LDIwIi8+PHBhdGggY2xhc3M9InMxIiBkPSJtMCwyMCAyMCwwIi8+PC9nPjxnIGlkPSJ2bXUtNyI+PHBhdGggY2xhc3M9InMxMiIgZD0ibTAsMCAwLDIwIDMsMCBDIDcsMTAgMTAsMCAyMCwwIi8+PHBhdGggY2xhc3M9InMxIiBkPSJtMCwyMCAzLDAgQyA3LDEwIDEwLDAgMjAsMCIvPjxwYXRoIGNsYXNzPSJzMSIgZD0iTTAsMCAyMCwwIi8+PC9nPjxnIGlkPSJ2bXotNyI+PHBhdGggY2xhc3M9InMxMiIgZD0iTTAsMCAzLDAgQyAxMCwxMCAxNSwxMCAyMCwxMCAxNSwxMCAxMCwxMCAzLDIwIEwgMCwyMCIvPjxwYXRoIGNsYXNzPSJzMSIgZD0ibTAsMCAzLDAgYyA3LDEwIDEyLDEwIDE3LDEwIi8+PHBhdGggY2xhc3M9InMxIiBkPSJtMCwyMCAzLDAgQyAxMCwxMCAxNSwxMCAyMCwxMCIvPjwvZz48ZyBpZD0iMG12LTgiPjxwYXRoIGNsYXNzPSJzMTMiIGQ9Ik05LDAgMjAsMCAyMCwyMCAzLDIwIHoiLz48cGF0aCBjbGFzcz0iczEiIGQ9Ik0zLDIwIDksMCAyMCwwIi8+PHBhdGggY2xhc3M9InMxIiBkPSJtMCwyMCAyMCwwIi8+PC9nPjxnIGlkPSIxbXYtOCI+PHBhdGggY2xhc3M9InMxMyIgZD0iTTIuODc1LDAgMjAsMCAyMCwyMCA5LDIwIHoiLz48cGF0aCBjbGFzcz0iczEiIGQ9Im0zLDAgNiwyMCAxMSwwIi8+PHBhdGggY2xhc3M9InMxIiBkPSJNMCwwIDIwLDAiLz48L2c+PGcgaWQ9Inhtdi04Ij48cGF0aCBjbGFzcz0iczEzIiBkPSJNOSwwIDIwLDAgMjAsMjAgOSwyMCA2LDEwIHoiLz48cGF0aCBjbGFzcz0iczEiIGQ9Ik0wLDIwIDMsMjAgOSwwIDIwLDAiLz48cGF0aCBjbGFzcz0iczEiIGQ9Im0wLDAgMywwIDYsMjAgMTEsMCIvPjxwYXRoIGNsYXNzPSJzMiIgZD0iTTAsNSAzLjUsMS41Ii8+PHBhdGggY2xhc3M9InMyIiBkPSJNMCwxMCA0LjUsNS41Ii8+PHBhdGggY2xhc3M9InMyIiBkPSJNMCwxNSA2LDkiLz48cGF0aCBjbGFzcz0iczIiIGQ9Ik0wLDIwIDQsMTYiLz48L2c+PGcgaWQ9ImRtdi04Ij48cGF0aCBjbGFzcz0iczEzIiBkPSJNOSwwIDIwLDAgMjAsMjAgMywyMCB6Ii8+PHBhdGggY2xhc3M9InMxIiBkPSJNMywyMCA5LDAgMjAsMCIvPjxwYXRoIGNsYXNzPSJzMSIgZD0ibTAsMjAgMjAsMCIvPjwvZz48ZyBpZD0idW12LTgiPjxwYXRoIGNsYXNzPSJzMTMiIGQ9Ik0zLDAgMjAsMCAyMCwyMCA5LDIwIHoiLz48cGF0aCBjbGFzcz0iczEiIGQ9Im0zLDAgNiwyMCAxMSwwIi8+PHBhdGggY2xhc3M9InMxIiBkPSJNMCwwIDIwLDAiLz48L2c+PGcgaWQ9Inptdi04Ij48cGF0aCBjbGFzcz0iczEzIiBkPSJNOSwwIDIwLDAgMjAsMjAgOSwyMCA2LDEwIHoiLz48cGF0aCBjbGFzcz0iczEiIGQ9Im02LDEwIDMsMTAgMTEsMCIvPjxwYXRoIGNsYXNzPSJzMSIgZD0iTTAsMTAgNiwxMCA5LDAgMjAsMCIvPjwvZz48ZyBpZD0idnZ2LTgiPjxwYXRoIGNsYXNzPSJzMTMiIGQ9Ik0yMCwyMCAwLDIwIDAsMCAyMCwwIi8+PHBhdGggY2xhc3M9InMxIiBkPSJtMCwyMCAyMCwwIi8+PHBhdGggY2xhc3M9InMxIiBkPSJNMCwwIDIwLDAiLz48L2c+PGcgaWQ9InZtMC04Ij48cGF0aCBjbGFzcz0iczEzIiBkPSJNMCwyMCAwLDAgMywwIDksMjAiLz48cGF0aCBjbGFzcz0iczEiIGQ9Ik0wLDAgMywwIDksMjAiLz48cGF0aCBjbGFzcz0iczEiIGQ9Im0wLDIwIDIwLDAiLz48L2c+PGcgaWQ9InZtMS04Ij48cGF0aCBjbGFzcz0iczEzIiBkPSJNMCwwIDAsMjAgMywyMCA5LDAiLz48cGF0aCBjbGFzcz0iczEiIGQ9Ik0wLDAgMjAsMCIvPjxwYXRoIGNsYXNzPSJzMSIgZD0iTTAsMjAgMywyMCA5LDAiLz48L2c+PGcgaWQ9InZteC04Ij48cGF0aCBjbGFzcz0iczEzIiBkPSJNMCwwIDAsMjAgMywyMCA2LDEwIDMsMCIvPjxwYXRoIGNsYXNzPSJzMSIgZD0ibTAsMCAzLDAgNiwyMCAxMSwwIi8+PHBhdGggY2xhc3M9InMxIiBkPSJNMCwyMCAzLDIwIDksMCAyMCwwIi8+PHBhdGggY2xhc3M9InMyIiBkPSJtMjAsMTUgLTUsNSIvPjxwYXRoIGNsYXNzPSJzMiIgZD0iTTIwLDEwIDEwLDIwIi8+PHBhdGggY2xhc3M9InMyIiBkPSJNMjAsNSA4LDE3Ii8+PHBhdGggY2xhc3M9InMyIiBkPSJNMjAsMCA3LDEzIi8+PHBhdGggY2xhc3M9InMyIiBkPSJNMTUsMCA3LDgiLz48cGF0aCBjbGFzcz0iczIiIGQ9Ik0xMCwwIDksMSIvPjwvZz48ZyBpZD0idm1kLTgiPjxwYXRoIGNsYXNzPSJzMTMiIGQ9Im0wLDAgMCwyMCAyMCwwIEMgMTAsMjAgNywxMCAzLDAiLz48cGF0aCBjbGFzcz0iczEiIGQ9Im0wLDAgMywwIGMgNCwxMCA3LDIwIDE3LDIwIi8+PHBhdGggY2xhc3M9InMxIiBkPSJtMCwyMCAyMCwwIi8+PC9nPjxnIGlkPSJ2bXUtOCI+PHBhdGggY2xhc3M9InMxMyIgZD0ibTAsMCAwLDIwIDMsMCBDIDcsMTAgMTAsMCAyMCwwIi8+PHBhdGggY2xhc3M9InMxIiBkPSJtMCwyMCAzLDAgQyA3LDEwIDEwLDAgMjAsMCIvPjxwYXRoIGNsYXNzPSJzMSIgZD0iTTAsMCAyMCwwIi8+PC9nPjxnIGlkPSJ2bXotOCI+PHBhdGggY2xhc3M9InMxMyIgZD0iTTAsMCAzLDAgQyAxMCwxMCAxNSwxMCAyMCwxMCAxNSwxMCAxMCwxMCAzLDIwIEwgMCwyMCIvPjxwYXRoIGNsYXNzPSJzMSIgZD0ibTAsMCAzLDAgYyA3LDEwIDEyLDEwIDE3LDEwIi8+PHBhdGggY2xhc3M9InMxIiBkPSJtMCwyMCAzLDAgQyAxMCwxMCAxNSwxMCAyMCwxMCIvPjwvZz48ZyBpZD0iMG12LTkiPjxwYXRoIGNsYXNzPSJzMTQiIGQ9Ik05LDAgMjAsMCAyMCwyMCAzLDIwIHoiLz48cGF0aCBjbGFzcz0iczEiIGQ9Ik0zLDIwIDksMCAyMCwwIi8+PHBhdGggY2xhc3M9InMxIiBkPSJtMCwyMCAyMCwwIi8+PC9nPjxnIGlkPSIxbXYtOSI+PHBhdGggY2xhc3M9InMxNCIgZD0iTTIuODc1LDAgMjAsMCAyMCwyMCA5LDIwIHoiLz48cGF0aCBjbGFzcz0iczEiIGQ9Im0zLDAgNiwyMCAxMSwwIi8+PHBhdGggY2xhc3M9InMxIiBkPSJNMCwwIDIwLDAiLz48L2c+PGcgaWQ9Inhtdi05Ij48cGF0aCBjbGFzcz0iczE0IiBkPSJNOSwwIDIwLDAgMjAsMjAgOSwyMCA2LDEwIHoiLz48cGF0aCBjbGFzcz0iczEiIGQ9Ik0wLDIwIDMsMjAgOSwwIDIwLDAiLz48cGF0aCBjbGFzcz0iczEiIGQ9Im0wLDAgMywwIDYsMjAgMTEsMCIvPjxwYXRoIGNsYXNzPSJzMiIgZD0iTTAsNSAzLjUsMS41Ii8+PHBhdGggY2xhc3M9InMyIiBkPSJNMCwxMCA0LjUsNS41Ii8+PHBhdGggY2xhc3M9InMyIiBkPSJNMCwxNSA2LDkiLz48cGF0aCBjbGFzcz0iczIiIGQ9Ik0wLDIwIDQsMTYiLz48L2c+PGcgaWQ9ImRtdi05Ij48cGF0aCBjbGFzcz0iczE0IiBkPSJNOSwwIDIwLDAgMjAsMjAgMywyMCB6Ii8+PHBhdGggY2xhc3M9InMxIiBkPSJNMywyMCA5LDAgMjAsMCIvPjxwYXRoIGNsYXNzPSJzMSIgZD0ibTAsMjAgMjAsMCIvPjwvZz48ZyBpZD0idW12LTkiPjxwYXRoIGNsYXNzPSJzMTQiIGQ9Ik0zLDAgMjAsMCAyMCwyMCA5LDIwIHoiLz48cGF0aCBjbGFzcz0iczEiIGQ9Im0zLDAgNiwyMCAxMSwwIi8+PHBhdGggY2xhc3M9InMxIiBkPSJNMCwwIDIwLDAiLz48L2c+PGcgaWQ9Inptdi05Ij48cGF0aCBjbGFzcz0iczE0IiBkPSJNOSwwIDIwLDAgMjAsMjAgOSwyMCA2LDEwIHoiLz48cGF0aCBjbGFzcz0iczEiIGQ9Im02LDEwIDMsMTAgMTEsMCIvPjxwYXRoIGNsYXNzPSJzMSIgZD0iTTAsMTAgNiwxMCA5LDAgMjAsMCIvPjwvZz48ZyBpZD0idnZ2LTkiPjxwYXRoIGNsYXNzPSJzMTQiIGQ9Ik0yMCwyMCAwLDIwIDAsMCAyMCwwIi8+PHBhdGggY2xhc3M9InMxIiBkPSJtMCwyMCAyMCwwIi8+PHBhdGggY2xhc3M9InMxIiBkPSJNMCwwIDIwLDAiLz48L2c+PGcgaWQ9InZtMC05Ij48cGF0aCBjbGFzcz0iczE0IiBkPSJNMCwyMCAwLDAgMywwIDksMjAiLz48cGF0aCBjbGFzcz0iczEiIGQ9Ik0wLDAgMywwIDksMjAiLz48cGF0aCBjbGFzcz0iczEiIGQ9Im0wLDIwIDIwLDAiLz48L2c+PGcgaWQ9InZtMS05Ij48cGF0aCBjbGFzcz0iczE0IiBkPSJNMCwwIDAsMjAgMywyMCA5LDAiLz48cGF0aCBjbGFzcz0iczEiIGQ9Ik0wLDAgMjAsMCIvPjxwYXRoIGNsYXNzPSJzMSIgZD0iTTAsMjAgMywyMCA5LDAiLz48L2c+PGcgaWQ9InZteC05Ij48cGF0aCBjbGFzcz0iczE0IiBkPSJNMCwwIDAsMjAgMywyMCA2LDEwIDMsMCIvPjxwYXRoIGNsYXNzPSJzMSIgZD0ibTAsMCAzLDAgNiwyMCAxMSwwIi8+PHBhdGggY2xhc3M9InMxIiBkPSJNMCwyMCAzLDIwIDksMCAyMCwwIi8+PHBhdGggY2xhc3M9InMyIiBkPSJtMjAsMTUgLTUsNSIvPjxwYXRoIGNsYXNzPSJzMiIgZD0iTTIwLDEwIDEwLDIwIi8+PHBhdGggY2xhc3M9InMyIiBkPSJNMjAsNSA4LDE3Ii8+PHBhdGggY2xhc3M9InMyIiBkPSJNMjAsMCA3LDEzIi8+PHBhdGggY2xhc3M9InMyIiBkPSJNMTUsMCA3LDgiLz48cGF0aCBjbGFzcz0iczIiIGQ9Ik0xMCwwIDksMSIvPjwvZz48ZyBpZD0idm1kLTkiPjxwYXRoIGNsYXNzPSJzMTQiIGQ9Im0wLDAgMCwyMCAyMCwwIEMgMTAsMjAgNywxMCAzLDAiLz48cGF0aCBjbGFzcz0iczEiIGQ9Im0wLDAgMywwIGMgNCwxMCA3LDIwIDE3LDIwIi8+PHBhdGggY2xhc3M9InMxIiBkPSJtMCwyMCAyMCwwIi8+PC9nPjxnIGlkPSJ2bXUtOSI+PHBhdGggY2xhc3M9InMxNCIgZD0ibTAsMCAwLDIwIDMsMCBDIDcsMTAgMTAsMCAyMCwwIi8+PHBhdGggY2xhc3M9InMxIiBkPSJtMCwyMCAzLDAgQyA3LDEwIDEwLDAgMjAsMCIvPjxwYXRoIGNsYXNzPSJzMSIgZD0iTTAsMCAyMCwwIi8+PC9nPjxnIGlkPSJ2bXotOSI+PHBhdGggY2xhc3M9InMxNCIgZD0iTTAsMCAzLDAgQyAxMCwxMCAxNSwxMCAyMCwxMCAxNSwxMCAxMCwxMCAzLDIwIEwgMCwyMCIvPjxwYXRoIGNsYXNzPSJzMSIgZD0ibTAsMCAzLDAgYyA3LDEwIDEyLDEwIDE3LDEwIi8+PHBhdGggY2xhc3M9InMxIiBkPSJtMCwyMCAzLDAgQyAxMCwxMCAxNSwxMCAyMCwxMCIvPjwvZz48ZyBpZD0idm12LTItMiI+PHBhdGggY2xhc3M9InM3IiBkPSJNOSwwIDIwLDAgMjAsMjAgOSwyMCA2LDEwIHoiLz48cGF0aCBjbGFzcz0iczciIGQ9Ik0zLDAgMCwwIDAsMjAgMywyMCA2LDEwIHoiLz48cGF0aCBjbGFzcz0iczEiIGQ9Im0wLDAgMywwIDYsMjAgMTEsMCIvPjxwYXRoIGNsYXNzPSJzMSIgZD0iTTAsMjAgMywyMCA5LDAgMjAsMCIvPjwvZz48ZyBpZD0idm12LTMtMiI+PHBhdGggY2xhc3M9InM3IiBkPSJNOSwwIDIwLDAgMjAsMjAgOSwyMCA2LDEwIHoiLz48cGF0aCBjbGFzcz0iczgiIGQ9Ik0zLDAgMCwwIDAsMjAgMywyMCA2LDEwIHoiLz48cGF0aCBjbGFzcz0iczEiIGQ9Im0wLDAgMywwIDYsMjAgMTEsMCIvPjxwYXRoIGNsYXNzPSJzMSIgZD0iTTAsMjAgMywyMCA5LDAgMjAsMCIvPjwvZz48ZyBpZD0idm12LTQtMiI+PHBhdGggY2xhc3M9InM3IiBkPSJNOSwwIDIwLDAgMjAsMjAgOSwyMCA2LDEwIHoiLz48cGF0aCBjbGFzcz0iczkiIGQ9Ik0zLDAgMCwwIDAsMjAgMywyMCA2LDEwIHoiLz48cGF0aCBjbGFzcz0iczEiIGQ9Im0wLDAgMywwIDYsMjAgMTEsMCIvPjxwYXRoIGNsYXNzPSJzMSIgZD0iTTAsMjAgMywyMCA5LDAgMjAsMCIvPjwvZz48ZyBpZD0idm12LTUtMiI+PHBhdGggY2xhc3M9InM3IiBkPSJNOSwwIDIwLDAgMjAsMjAgOSwyMCA2LDEwIHoiLz48cGF0aCBjbGFzcz0iczEwIiBkPSJNMywwIDAsMCAwLDIwIDMsMjAgNiwxMCB6Ii8+PHBhdGggY2xhc3M9InMxIiBkPSJtMCwwIDMsMCA2LDIwIDExLDAiLz48cGF0aCBjbGFzcz0iczEiIGQ9Ik0wLDIwIDMsMjAgOSwwIDIwLDAiLz48L2c+PGcgaWQ9InZtdi02LTIiPjxwYXRoIGNsYXNzPSJzNyIgZD0iTTksMCAyMCwwIDIwLDIwIDksMjAgNiwxMCB6Ii8+PHBhdGggY2xhc3M9InMxMSIgZD0iTTMsMCAwLDAgMCwyMCAzLDIwIDYsMTAgeiIvPjxwYXRoIGNsYXNzPSJzMSIgZD0ibTAsMCAzLDAgNiwyMCAxMSwwIi8+PHBhdGggY2xhc3M9InMxIiBkPSJNMCwyMCAzLDIwIDksMCAyMCwwIi8+PC9nPjxnIGlkPSJ2bXYtNy0yIj48cGF0aCBjbGFzcz0iczciIGQ9Ik05LDAgMjAsMCAyMCwyMCA5LDIwIDYsMTAgeiIvPjxwYXRoIGNsYXNzPSJzMTIiIGQ9Ik0zLDAgMCwwIDAsMjAgMywyMCA2LDEwIHoiLz48cGF0aCBjbGFzcz0iczEiIGQ9Im0wLDAgMywwIDYsMjAgMTEsMCIvPjxwYXRoIGNsYXNzPSJzMSIgZD0iTTAsMjAgMywyMCA5LDAgMjAsMCIvPjwvZz48ZyBpZD0idm12LTgtMiI+PHBhdGggY2xhc3M9InM3IiBkPSJNOSwwIDIwLDAgMjAsMjAgOSwyMCA2LDEwIHoiLz48cGF0aCBjbGFzcz0iczEzIiBkPSJNMywwIDAsMCAwLDIwIDMsMjAgNiwxMCB6Ii8+PHBhdGggY2xhc3M9InMxIiBkPSJtMCwwIDMsMCA2LDIwIDExLDAiLz48cGF0aCBjbGFzcz0iczEiIGQ9Ik0wLDIwIDMsMjAgOSwwIDIwLDAiLz48L2c+PGcgaWQ9InZtdi05LTIiPjxwYXRoIGNsYXNzPSJzNyIgZD0iTTksMCAyMCwwIDIwLDIwIDksMjAgNiwxMCB6Ii8+PHBhdGggY2xhc3M9InMxNCIgZD0iTTMsMCAwLDAgMCwyMCAzLDIwIDYsMTAgeiIvPjxwYXRoIGNsYXNzPSJzMSIgZD0ibTAsMCAzLDAgNiwyMCAxMSwwIi8+PHBhdGggY2xhc3M9InMxIiBkPSJNMCwyMCAzLDIwIDksMCAyMCwwIi8+PC9nPjxnIGlkPSJ2bXYtMi0zIj48cGF0aCBjbGFzcz0iczgiIGQ9Ik05LDAgMjAsMCAyMCwyMCA5LDIwIDYsMTAgeiIvPjxwYXRoIGNsYXNzPSJzNyIgZD0iTTMsMCAwLDAgMCwyMCAzLDIwIDYsMTAgeiIvPjxwYXRoIGNsYXNzPSJzMSIgZD0ibTAsMCAzLDAgNiwyMCAxMSwwIi8+PHBhdGggY2xhc3M9InMxIiBkPSJNMCwyMCAzLDIwIDksMCAyMCwwIi8+PC9nPjxnIGlkPSJ2bXYtMy0zIj48cGF0aCBjbGFzcz0iczgiIGQ9Ik05LDAgMjAsMCAyMCwyMCA5LDIwIDYsMTAgeiIvPjxwYXRoIGNsYXNzPSJzOCIgZD0iTTMsMCAwLDAgMCwyMCAzLDIwIDYsMTAgeiIvPjxwYXRoIGNsYXNzPSJzMSIgZD0ibTAsMCAzLDAgNiwyMCAxMSwwIi8+PHBhdGggY2xhc3M9InMxIiBkPSJNMCwyMCAzLDIwIDksMCAyMCwwIi8+PC9nPjxnIGlkPSJ2bXYtNC0zIj48cGF0aCBjbGFzcz0iczgiIGQ9Ik05LDAgMjAsMCAyMCwyMCA5LDIwIDYsMTAgeiIvPjxwYXRoIGNsYXNzPSJzOSIgZD0iTTMsMCAwLDAgMCwyMCAzLDIwIDYsMTAgeiIvPjxwYXRoIGNsYXNzPSJzMSIgZD0ibTAsMCAzLDAgNiwyMCAxMSwwIi8+PHBhdGggY2xhc3M9InMxIiBkPSJNMCwyMCAzLDIwIDksMCAyMCwwIi8+PC9nPjxnIGlkPSJ2bXYtNS0zIj48cGF0aCBjbGFzcz0iczgiIGQ9Ik05LDAgMjAsMCAyMCwyMCA5LDIwIDYsMTAgeiIvPjxwYXRoIGNsYXNzPSJzMTAiIGQ9Ik0zLDAgMCwwIDAsMjAgMywyMCA2LDEwIHoiLz48cGF0aCBjbGFzcz0iczEiIGQ9Im0wLDAgMywwIDYsMjAgMTEsMCIvPjxwYXRoIGNsYXNzPSJzMSIgZD0iTTAsMjAgMywyMCA5LDAgMjAsMCIvPjwvZz48ZyBpZD0idm12LTYtMyI+PHBhdGggY2xhc3M9InM4IiBkPSJNOSwwIDIwLDAgMjAsMjAgOSwyMCA2LDEwIHoiLz48cGF0aCBjbGFzcz0iczExIiBkPSJNMywwIDAsMCAwLDIwIDMsMjAgNiwxMCB6Ii8+PHBhdGggY2xhc3M9InMxIiBkPSJtMCwwIDMsMCA2LDIwIDExLDAiLz48cGF0aCBjbGFzcz0iczEiIGQ9Ik0wLDIwIDMsMjAgOSwwIDIwLDAiLz48L2c+PGcgaWQ9InZtdi03LTMiPjxwYXRoIGNsYXNzPSJzOCIgZD0iTTksMCAyMCwwIDIwLDIwIDksMjAgNiwxMCB6Ii8+PHBhdGggY2xhc3M9InMxMiIgZD0iTTMsMCAwLDAgMCwyMCAzLDIwIDYsMTAgeiIvPjxwYXRoIGNsYXNzPSJzMSIgZD0ibTAsMCAzLDAgNiwyMCAxMSwwIi8+PHBhdGggY2xhc3M9InMxIiBkPSJNMCwyMCAzLDIwIDksMCAyMCwwIi8+PC9nPjxnIGlkPSJ2bXYtOC0zIj48cGF0aCBjbGFzcz0iczgiIGQ9Ik05LDAgMjAsMCAyMCwyMCA5LDIwIDYsMTAgeiIvPjxwYXRoIGNsYXNzPSJzMTMiIGQ9Ik0zLDAgMCwwIDAsMjAgMywyMCA2LDEwIHoiLz48cGF0aCBjbGFzcz0iczEiIGQ9Im0wLDAgMywwIDYsMjAgMTEsMCIvPjxwYXRoIGNsYXNzPSJzMSIgZD0iTTAsMjAgMywyMCA5LDAgMjAsMCIvPjwvZz48ZyBpZD0idm12LTktMyI+PHBhdGggY2xhc3M9InM4IiBkPSJNOSwwIDIwLDAgMjAsMjAgOSwyMCA2LDEwIHoiLz48cGF0aCBjbGFzcz0iczE0IiBkPSJNMywwIDAsMCAwLDIwIDMsMjAgNiwxMCB6Ii8+PHBhdGggY2xhc3M9InMxIiBkPSJtMCwwIDMsMCA2LDIwIDExLDAiLz48cGF0aCBjbGFzcz0iczEiIGQ9Ik0wLDIwIDMsMjAgOSwwIDIwLDAiLz48L2c+PGcgaWQ9InZtdi0yLTQiPjxwYXRoIGNsYXNzPSJzOSIgZD0iTTksMCAyMCwwIDIwLDIwIDksMjAgNiwxMCB6Ii8+PHBhdGggY2xhc3M9InM3IiBkPSJNMywwIDAsMCAwLDIwIDMsMjAgNiwxMCB6Ii8+PHBhdGggY2xhc3M9InMxIiBkPSJtMCwwIDMsMCA2LDIwIDExLDAiLz48cGF0aCBjbGFzcz0iczEiIGQ9Ik0wLDIwIDMsMjAgOSwwIDIwLDAiLz48L2c+PGcgaWQ9InZtdi0zLTQiPjxwYXRoIGNsYXNzPSJzOSIgZD0iTTksMCAyMCwwIDIwLDIwIDksMjAgNiwxMCB6Ii8+PHBhdGggY2xhc3M9InM4IiBkPSJNMywwIDAsMCAwLDIwIDMsMjAgNiwxMCB6Ii8+PHBhdGggY2xhc3M9InMxIiBkPSJtMCwwIDMsMCA2LDIwIDExLDAiLz48cGF0aCBjbGFzcz0iczEiIGQ9Ik0wLDIwIDMsMjAgOSwwIDIwLDAiLz48L2c+PGcgaWQ9InZtdi00LTQiPjxwYXRoIGNsYXNzPSJzOSIgZD0iTTksMCAyMCwwIDIwLDIwIDksMjAgNiwxMCB6Ii8+PHBhdGggY2xhc3M9InM5IiBkPSJNMywwIDAsMCAwLDIwIDMsMjAgNiwxMCB6Ii8+PHBhdGggY2xhc3M9InMxIiBkPSJtMCwwIDMsMCA2LDIwIDExLDAiLz48cGF0aCBjbGFzcz0iczEiIGQ9Ik0wLDIwIDMsMjAgOSwwIDIwLDAiLz48L2c+PGcgaWQ9InZtdi01LTQiPjxwYXRoIGNsYXNzPSJzOSIgZD0iTTksMCAyMCwwIDIwLDIwIDksMjAgNiwxMCB6Ii8+PHBhdGggY2xhc3M9InMxMCIgZD0iTTMsMCAwLDAgMCwyMCAzLDIwIDYsMTAgeiIvPjxwYXRoIGNsYXNzPSJzMSIgZD0ibTAsMCAzLDAgNiwyMCAxMSwwIi8+PHBhdGggY2xhc3M9InMxIiBkPSJNMCwyMCAzLDIwIDksMCAyMCwwIi8+PC9nPjxnIGlkPSJ2bXYtNi00Ij48cGF0aCBjbGFzcz0iczkiIGQ9Ik05LDAgMjAsMCAyMCwyMCA5LDIwIDYsMTAgeiIvPjxwYXRoIGNsYXNzPSJzMTEiIGQ9Ik0zLDAgMCwwIDAsMjAgMywyMCA2LDEwIHoiLz48cGF0aCBjbGFzcz0iczEiIGQ9Im0wLDAgMywwIDYsMjAgMTEsMCIvPjxwYXRoIGNsYXNzPSJzMSIgZD0iTTAsMjAgMywyMCA5LDAgMjAsMCIvPjwvZz48ZyBpZD0idm12LTctNCI+PHBhdGggY2xhc3M9InM5IiBkPSJNOSwwIDIwLDAgMjAsMjAgOSwyMCA2LDEwIHoiLz48cGF0aCBjbGFzcz0iczEyIiBkPSJNMywwIDAsMCAwLDIwIDMsMjAgNiwxMCB6Ii8+PHBhdGggY2xhc3M9InMxIiBkPSJtMCwwIDMsMCA2LDIwIDExLDAiLz48cGF0aCBjbGFzcz0iczEiIGQ9Ik0wLDIwIDMsMjAgOSwwIDIwLDAiLz48L2c+PGcgaWQ9InZtdi04LTQiPjxwYXRoIGNsYXNzPSJzOSIgZD0iTTksMCAyMCwwIDIwLDIwIDksMjAgNiwxMCB6Ii8+PHBhdGggY2xhc3M9InMxMyIgZD0iTTMsMCAwLDAgMCwyMCAzLDIwIDYsMTAgeiIvPjxwYXRoIGNsYXNzPSJzMSIgZD0ibTAsMCAzLDAgNiwyMCAxMSwwIi8+PHBhdGggY2xhc3M9InMxIiBkPSJNMCwyMCAzLDIwIDksMCAyMCwwIi8+PC9nPjxnIGlkPSJ2bXYtOS00Ij48cGF0aCBjbGFzcz0iczkiIGQ9Ik05LDAgMjAsMCAyMCwyMCA5LDIwIDYsMTAgeiIvPjxwYXRoIGNsYXNzPSJzMTQiIGQ9Ik0zLDAgMCwwIDAsMjAgMywyMCA2LDEwIHoiLz48cGF0aCBjbGFzcz0iczEiIGQ9Im0wLDAgMywwIDYsMjAgMTEsMCIvPjxwYXRoIGNsYXNzPSJzMSIgZD0iTTAsMjAgMywyMCA5LDAgMjAsMCIvPjwvZz48ZyBpZD0idm12LTItNSI+PHBhdGggY2xhc3M9InMxMCIgZD0iTTksMCAyMCwwIDIwLDIwIDksMjAgNiwxMCB6Ii8+PHBhdGggY2xhc3M9InM3IiBkPSJNMywwIDAsMCAwLDIwIDMsMjAgNiwxMCB6Ii8+PHBhdGggY2xhc3M9InMxIiBkPSJtMCwwIDMsMCA2LDIwIDExLDAiLz48cGF0aCBjbGFzcz0iczEiIGQ9Ik0wLDIwIDMsMjAgOSwwIDIwLDAiLz48L2c+PGcgaWQ9InZtdi0zLTUiPjxwYXRoIGNsYXNzPSJzMTAiIGQ9Ik05LDAgMjAsMCAyMCwyMCA5LDIwIDYsMTAgeiIvPjxwYXRoIGNsYXNzPSJzOCIgZD0iTTMsMCAwLDAgMCwyMCAzLDIwIDYsMTAgeiIvPjxwYXRoIGNsYXNzPSJzMSIgZD0ibTAsMCAzLDAgNiwyMCAxMSwwIi8+PHBhdGggY2xhc3M9InMxIiBkPSJNMCwyMCAzLDIwIDksMCAyMCwwIi8+PC9nPjxnIGlkPSJ2bXYtNC01Ij48cGF0aCBjbGFzcz0iczEwIiBkPSJNOSwwIDIwLDAgMjAsMjAgOSwyMCA2LDEwIHoiLz48cGF0aCBjbGFzcz0iczkiIGQ9Ik0zLDAgMCwwIDAsMjAgMywyMCA2LDEwIHoiLz48cGF0aCBjbGFzcz0iczEiIGQ9Im0wLDAgMywwIDYsMjAgMTEsMCIvPjxwYXRoIGNsYXNzPSJzMSIgZD0iTTAsMjAgMywyMCA5LDAgMjAsMCIvPjwvZz48ZyBpZD0idm12LTUtNSI+PHBhdGggY2xhc3M9InMxMCIgZD0iTTksMCAyMCwwIDIwLDIwIDksMjAgNiwxMCB6Ii8+PHBhdGggY2xhc3M9InMxMCIgZD0iTTMsMCAwLDAgMCwyMCAzLDIwIDYsMTAgeiIvPjxwYXRoIGNsYXNzPSJzMSIgZD0ibTAsMCAzLDAgNiwyMCAxMSwwIi8+PHBhdGggY2xhc3M9InMxIiBkPSJNMCwyMCAzLDIwIDksMCAyMCwwIi8+PC9nPjxnIGlkPSJ2bXYtNi01Ij48cGF0aCBjbGFzcz0iczEwIiBkPSJNOSwwIDIwLDAgMjAsMjAgOSwyMCA2LDEwIHoiLz48cGF0aCBjbGFzcz0iczExIiBkPSJNMywwIDAsMCAwLDIwIDMsMjAgNiwxMCB6Ii8+PHBhdGggY2xhc3M9InMxIiBkPSJtMCwwIDMsMCA2LDIwIDExLDAiLz48cGF0aCBjbGFzcz0iczEiIGQ9Ik0wLDIwIDMsMjAgOSwwIDIwLDAiLz48L2c+PGcgaWQ9InZtdi03LTUiPjxwYXRoIGNsYXNzPSJzMTAiIGQ9Ik05LDAgMjAsMCAyMCwyMCA5LDIwIDYsMTAgeiIvPjxwYXRoIGNsYXNzPSJzMTIiIGQ9Ik0zLDAgMCwwIDAsMjAgMywyMCA2LDEwIHoiLz48cGF0aCBjbGFzcz0iczEiIGQ9Im0wLDAgMywwIDYsMjAgMTEsMCIvPjxwYXRoIGNsYXNzPSJzMSIgZD0iTTAsMjAgMywyMCA5LDAgMjAsMCIvPjwvZz48ZyBpZD0idm12LTgtNSI+PHBhdGggY2xhc3M9InMxMCIgZD0iTTksMCAyMCwwIDIwLDIwIDksMjAgNiwxMCB6Ii8+PHBhdGggY2xhc3M9InMxMyIgZD0iTTMsMCAwLDAgMCwyMCAzLDIwIDYsMTAgeiIvPjxwYXRoIGNsYXNzPSJzMSIgZD0ibTAsMCAzLDAgNiwyMCAxMSwwIi8+PHBhdGggY2xhc3M9InMxIiBkPSJNMCwyMCAzLDIwIDksMCAyMCwwIi8+PC9nPjxnIGlkPSJ2bXYtOS01Ij48cGF0aCBjbGFzcz0iczEwIiBkPSJNOSwwIDIwLDAgMjAsMjAgOSwyMCA2LDEwIHoiLz48cGF0aCBjbGFzcz0iczE0IiBkPSJNMywwIDAsMCAwLDIwIDMsMjAgNiwxMCB6Ii8+PHBhdGggY2xhc3M9InMxIiBkPSJtMCwwIDMsMCA2LDIwIDExLDAiLz48cGF0aCBjbGFzcz0iczEiIGQ9Ik0wLDIwIDMsMjAgOSwwIDIwLDAiLz48L2c+PGcgaWQ9InZtdi0yLTYiPjxwYXRoIGNsYXNzPSJzMTEiIGQ9Ik05LDAgMjAsMCAyMCwyMCA5LDIwIDYsMTAgeiIvPjxwYXRoIGNsYXNzPSJzNyIgZD0iTTMsMCAwLDAgMCwyMCAzLDIwIDYsMTAgeiIvPjxwYXRoIGNsYXNzPSJzMSIgZD0ibTAsMCAzLDAgNiwyMCAxMSwwIi8+PHBhdGggY2xhc3M9InMxIiBkPSJNMCwyMCAzLDIwIDksMCAyMCwwIi8+PC9nPjxnIGlkPSJ2bXYtMy02Ij48cGF0aCBjbGFzcz0iczExIiBkPSJNOSwwIDIwLDAgMjAsMjAgOSwyMCA2LDEwIHoiLz48cGF0aCBjbGFzcz0iczgiIGQ9Ik0zLDAgMCwwIDAsMjAgMywyMCA2LDEwIHoiLz48cGF0aCBjbGFzcz0iczEiIGQ9Im0wLDAgMywwIDYsMjAgMTEsMCIvPjxwYXRoIGNsYXNzPSJzMSIgZD0iTTAsMjAgMywyMCA5LDAgMjAsMCIvPjwvZz48ZyBpZD0idm12LTQtNiI+PHBhdGggY2xhc3M9InMxMSIgZD0iTTksMCAyMCwwIDIwLDIwIDksMjAgNiwxMCB6Ii8+PHBhdGggY2xhc3M9InM5IiBkPSJNMywwIDAsMCAwLDIwIDMsMjAgNiwxMCB6Ii8+PHBhdGggY2xhc3M9InMxIiBkPSJtMCwwIDMsMCA2LDIwIDExLDAiLz48cGF0aCBjbGFzcz0iczEiIGQ9Ik0wLDIwIDMsMjAgOSwwIDIwLDAiLz48L2c+PGcgaWQ9InZtdi01LTYiPjxwYXRoIGNsYXNzPSJzMTEiIGQ9Ik05LDAgMjAsMCAyMCwyMCA5LDIwIDYsMTAgeiIvPjxwYXRoIGNsYXNzPSJzMTAiIGQ9Ik0zLDAgMCwwIDAsMjAgMywyMCA2LDEwIHoiLz48cGF0aCBjbGFzcz0iczEiIGQ9Im0wLDAgMywwIDYsMjAgMTEsMCIvPjxwYXRoIGNsYXNzPSJzMSIgZD0iTTAsMjAgMywyMCA5LDAgMjAsMCIvPjwvZz48ZyBpZD0idm12LTYtNiI+PHBhdGggY2xhc3M9InMxMSIgZD0iTTksMCAyMCwwIDIwLDIwIDksMjAgNiwxMCB6Ii8+PHBhdGggY2xhc3M9InMxMSIgZD0iTTMsMCAwLDAgMCwyMCAzLDIwIDYsMTAgeiIvPjxwYXRoIGNsYXNzPSJzMSIgZD0ibTAsMCAzLDAgNiwyMCAxMSwwIi8+PHBhdGggY2xhc3M9InMxIiBkPSJNMCwyMCAzLDIwIDksMCAyMCwwIi8+PC9nPjxnIGlkPSJ2bXYtNy02Ij48cGF0aCBjbGFzcz0iczExIiBkPSJNOSwwIDIwLDAgMjAsMjAgOSwyMCA2LDEwIHoiLz48cGF0aCBjbGFzcz0iczEyIiBkPSJNMywwIDAsMCAwLDIwIDMsMjAgNiwxMCB6Ii8+PHBhdGggY2xhc3M9InMxIiBkPSJtMCwwIDMsMCA2LDIwIDExLDAiLz48cGF0aCBjbGFzcz0iczEiIGQ9Ik0wLDIwIDMsMjAgOSwwIDIwLDAiLz48L2c+PGcgaWQ9InZtdi04LTYiPjxwYXRoIGNsYXNzPSJzMTEiIGQ9Ik05LDAgMjAsMCAyMCwyMCA5LDIwIDYsMTAgeiIvPjxwYXRoIGNsYXNzPSJzMTMiIGQ9Ik0zLDAgMCwwIDAsMjAgMywyMCA2LDEwIHoiLz48cGF0aCBjbGFzcz0iczEiIGQ9Im0wLDAgMywwIDYsMjAgMTEsMCIvPjxwYXRoIGNsYXNzPSJzMSIgZD0iTTAsMjAgMywyMCA5LDAgMjAsMCIvPjwvZz48ZyBpZD0idm12LTktNiI+PHBhdGggY2xhc3M9InMxMSIgZD0iTTksMCAyMCwwIDIwLDIwIDksMjAgNiwxMCB6Ii8+PHBhdGggY2xhc3M9InMxNCIgZD0iTTMsMCAwLDAgMCwyMCAzLDIwIDYsMTAgeiIvPjxwYXRoIGNsYXNzPSJzMSIgZD0ibTAsMCAzLDAgNiwyMCAxMSwwIi8+PHBhdGggY2xhc3M9InMxIiBkPSJNMCwyMCAzLDIwIDksMCAyMCwwIi8+PC9nPjxnIGlkPSJ2bXYtMi03Ij48cGF0aCBjbGFzcz0iczEyIiBkPSJNOSwwIDIwLDAgMjAsMjAgOSwyMCA2LDEwIHoiLz48cGF0aCBjbGFzcz0iczciIGQ9Ik0zLDAgMCwwIDAsMjAgMywyMCA2LDEwIHoiLz48cGF0aCBjbGFzcz0iczEiIGQ9Im0wLDAgMywwIDYsMjAgMTEsMCIvPjxwYXRoIGNsYXNzPSJzMSIgZD0iTTAsMjAgMywyMCA5LDAgMjAsMCIvPjwvZz48ZyBpZD0idm12LTMtNyI+PHBhdGggY2xhc3M9InMxMiIgZD0iTTksMCAyMCwwIDIwLDIwIDksMjAgNiwxMCB6Ii8+PHBhdGggY2xhc3M9InM4IiBkPSJNMywwIDAsMCAwLDIwIDMsMjAgNiwxMCB6Ii8+PHBhdGggY2xhc3M9InMxIiBkPSJtMCwwIDMsMCA2LDIwIDExLDAiLz48cGF0aCBjbGFzcz0iczEiIGQ9Ik0wLDIwIDMsMjAgOSwwIDIwLDAiLz48L2c+PGcgaWQ9InZtdi00LTciPjxwYXRoIGNsYXNzPSJzMTIiIGQ9Ik05LDAgMjAsMCAyMCwyMCA5LDIwIDYsMTAgeiIvPjxwYXRoIGNsYXNzPSJzOSIgZD0iTTMsMCAwLDAgMCwyMCAzLDIwIDYsMTAgeiIvPjxwYXRoIGNsYXNzPSJzMSIgZD0ibTAsMCAzLDAgNiwyMCAxMSwwIi8+PHBhdGggY2xhc3M9InMxIiBkPSJNMCwyMCAzLDIwIDksMCAyMCwwIi8+PC9nPjxnIGlkPSJ2bXYtNS03Ij48cGF0aCBjbGFzcz0iczEyIiBkPSJNOSwwIDIwLDAgMjAsMjAgOSwyMCA2LDEwIHoiLz48cGF0aCBjbGFzcz0iczEwIiBkPSJNMywwIDAsMCAwLDIwIDMsMjAgNiwxMCB6Ii8+PHBhdGggY2xhc3M9InMxIiBkPSJtMCwwIDMsMCA2LDIwIDExLDAiLz48cGF0aCBjbGFzcz0iczEiIGQ9Ik0wLDIwIDMsMjAgOSwwIDIwLDAiLz48L2c+PGcgaWQ9InZtdi02LTciPjxwYXRoIGNsYXNzPSJzMTIiIGQ9Ik05LDAgMjAsMCAyMCwyMCA5LDIwIDYsMTAgeiIvPjxwYXRoIGNsYXNzPSJzMTEiIGQ9Ik0zLDAgMCwwIDAsMjAgMywyMCA2LDEwIHoiLz48cGF0aCBjbGFzcz0iczEiIGQ9Im0wLDAgMywwIDYsMjAgMTEsMCIvPjxwYXRoIGNsYXNzPSJzMSIgZD0iTTAsMjAgMywyMCA5LDAgMjAsMCIvPjwvZz48ZyBpZD0idm12LTctNyI+PHBhdGggY2xhc3M9InMxMiIgZD0iTTksMCAyMCwwIDIwLDIwIDksMjAgNiwxMCB6Ii8+PHBhdGggY2xhc3M9InMxMiIgZD0iTTMsMCAwLDAgMCwyMCAzLDIwIDYsMTAgeiIvPjxwYXRoIGNsYXNzPSJzMSIgZD0ibTAsMCAzLDAgNiwyMCAxMSwwIi8+PHBhdGggY2xhc3M9InMxIiBkPSJNMCwyMCAzLDIwIDksMCAyMCwwIi8+PC9nPjxnIGlkPSJ2bXYtOC03Ij48cGF0aCBjbGFzcz0iczEyIiBkPSJNOSwwIDIwLDAgMjAsMjAgOSwyMCA2LDEwIHoiLz48cGF0aCBjbGFzcz0iczEzIiBkPSJNMywwIDAsMCAwLDIwIDMsMjAgNiwxMCB6Ii8+PHBhdGggY2xhc3M9InMxIiBkPSJtMCwwIDMsMCA2LDIwIDExLDAiLz48cGF0aCBjbGFzcz0iczEiIGQ9Ik0wLDIwIDMsMjAgOSwwIDIwLDAiLz48L2c+PGcgaWQ9InZtdi05LTciPjxwYXRoIGNsYXNzPSJzMTIiIGQ9Ik05LDAgMjAsMCAyMCwyMCA5LDIwIDYsMTAgeiIvPjxwYXRoIGNsYXNzPSJzMTQiIGQ9Ik0zLDAgMCwwIDAsMjAgMywyMCA2LDEwIHoiLz48cGF0aCBjbGFzcz0iczEiIGQ9Im0wLDAgMywwIDYsMjAgMTEsMCIvPjxwYXRoIGNsYXNzPSJzMSIgZD0iTTAsMjAgMywyMCA5LDAgMjAsMCIvPjwvZz48ZyBpZD0idm12LTItOCI+PHBhdGggY2xhc3M9InMxMyIgZD0iTTksMCAyMCwwIDIwLDIwIDksMjAgNiwxMCB6Ii8+PHBhdGggY2xhc3M9InM3IiBkPSJNMywwIDAsMCAwLDIwIDMsMjAgNiwxMCB6Ii8+PHBhdGggY2xhc3M9InMxIiBkPSJtMCwwIDMsMCA2LDIwIDExLDAiLz48cGF0aCBjbGFzcz0iczEiIGQ9Ik0wLDIwIDMsMjAgOSwwIDIwLDAiLz48L2c+PGcgaWQ9InZtdi0zLTgiPjxwYXRoIGNsYXNzPSJzMTMiIGQ9Ik05LDAgMjAsMCAyMCwyMCA5LDIwIDYsMTAgeiIvPjxwYXRoIGNsYXNzPSJzOCIgZD0iTTMsMCAwLDAgMCwyMCAzLDIwIDYsMTAgeiIvPjxwYXRoIGNsYXNzPSJzMSIgZD0ibTAsMCAzLDAgNiwyMCAxMSwwIi8+PHBhdGggY2xhc3M9InMxIiBkPSJNMCwyMCAzLDIwIDksMCAyMCwwIi8+PC9nPjxnIGlkPSJ2bXYtNC04Ij48cGF0aCBjbGFzcz0iczEzIiBkPSJNOSwwIDIwLDAgMjAsMjAgOSwyMCA2LDEwIHoiLz48cGF0aCBjbGFzcz0iczkiIGQ9Ik0zLDAgMCwwIDAsMjAgMywyMCA2LDEwIHoiLz48cGF0aCBjbGFzcz0iczEiIGQ9Im0wLDAgMywwIDYsMjAgMTEsMCIvPjxwYXRoIGNsYXNzPSJzMSIgZD0iTTAsMjAgMywyMCA5LDAgMjAsMCIvPjwvZz48ZyBpZD0idm12LTUtOCI+PHBhdGggY2xhc3M9InMxMyIgZD0iTTksMCAyMCwwIDIwLDIwIDksMjAgNiwxMCB6Ii8+PHBhdGggY2xhc3M9InMxMCIgZD0iTTMsMCAwLDAgMCwyMCAzLDIwIDYsMTAgeiIvPjxwYXRoIGNsYXNzPSJzMSIgZD0ibTAsMCAzLDAgNiwyMCAxMSwwIi8+PHBhdGggY2xhc3M9InMxIiBkPSJNMCwyMCAzLDIwIDksMCAyMCwwIi8+PC9nPjxnIGlkPSJ2bXYtNi04Ij48cGF0aCBjbGFzcz0iczEzIiBkPSJNOSwwIDIwLDAgMjAsMjAgOSwyMCA2LDEwIHoiLz48cGF0aCBjbGFzcz0iczExIiBkPSJNMywwIDAsMCAwLDIwIDMsMjAgNiwxMCB6Ii8+PHBhdGggY2xhc3M9InMxIiBkPSJtMCwwIDMsMCA2LDIwIDExLDAiLz48cGF0aCBjbGFzcz0iczEiIGQ9Ik0wLDIwIDMsMjAgOSwwIDIwLDAiLz48L2c+PGcgaWQ9InZtdi03LTgiPjxwYXRoIGNsYXNzPSJzMTMiIGQ9Ik05LDAgMjAsMCAyMCwyMCA5LDIwIDYsMTAgeiIvPjxwYXRoIGNsYXNzPSJzMTIiIGQ9Ik0zLDAgMCwwIDAsMjAgMywyMCA2LDEwIHoiLz48cGF0aCBjbGFzcz0iczEiIGQ9Im0wLDAgMywwIDYsMjAgMTEsMCIvPjxwYXRoIGNsYXNzPSJzMSIgZD0iTTAsMjAgMywyMCA5LDAgMjAsMCIvPjwvZz48ZyBpZD0idm12LTgtOCI+PHBhdGggY2xhc3M9InMxMyIgZD0iTTksMCAyMCwwIDIwLDIwIDksMjAgNiwxMCB6Ii8+PHBhdGggY2xhc3M9InMxMyIgZD0iTTMsMCAwLDAgMCwyMCAzLDIwIDYsMTAgeiIvPjxwYXRoIGNsYXNzPSJzMSIgZD0ibTAsMCAzLDAgNiwyMCAxMSwwIi8+PHBhdGggY2xhc3M9InMxIiBkPSJNMCwyMCAzLDIwIDksMCAyMCwwIi8+PC9nPjxnIGlkPSJ2bXYtOS04Ij48cGF0aCBjbGFzcz0iczEzIiBkPSJNOSwwIDIwLDAgMjAsMjAgOSwyMCA2LDEwIHoiLz48cGF0aCBjbGFzcz0iczE0IiBkPSJNMywwIDAsMCAwLDIwIDMsMjAgNiwxMCB6Ii8+PHBhdGggY2xhc3M9InMxIiBkPSJtMCwwIDMsMCA2LDIwIDExLDAiLz48cGF0aCBjbGFzcz0iczEiIGQ9Ik0wLDIwIDMsMjAgOSwwIDIwLDAiLz48L2c+PGcgaWQ9InZtdi0yLTkiPjxwYXRoIGNsYXNzPSJzMTQiIGQ9Ik05LDAgMjAsMCAyMCwyMCA5LDIwIDYsMTAgeiIvPjxwYXRoIGNsYXNzPSJzNyIgZD0iTTMsMCAwLDAgMCwyMCAzLDIwIDYsMTAgeiIvPjxwYXRoIGNsYXNzPSJzMSIgZD0ibTAsMCAzLDAgNiwyMCAxMSwwIi8+PHBhdGggY2xhc3M9InMxIiBkPSJNMCwyMCAzLDIwIDksMCAyMCwwIi8+PC9nPjxnIGlkPSJ2bXYtMy05Ij48cGF0aCBjbGFzcz0iczE0IiBkPSJNOSwwIDIwLDAgMjAsMjAgOSwyMCA2LDEwIHoiLz48cGF0aCBjbGFzcz0iczgiIGQ9Ik0zLDAgMCwwIDAsMjAgMywyMCA2LDEwIHoiLz48cGF0aCBjbGFzcz0iczEiIGQ9Im0wLDAgMywwIDYsMjAgMTEsMCIvPjxwYXRoIGNsYXNzPSJzMSIgZD0iTTAsMjAgMywyMCA5LDAgMjAsMCIvPjwvZz48ZyBpZD0idm12LTQtOSI+PHBhdGggY2xhc3M9InMxNCIgZD0iTTksMCAyMCwwIDIwLDIwIDksMjAgNiwxMCB6Ii8+PHBhdGggY2xhc3M9InM5IiBkPSJNMywwIDAsMCAwLDIwIDMsMjAgNiwxMCB6Ii8+PHBhdGggY2xhc3M9InMxIiBkPSJtMCwwIDMsMCA2LDIwIDExLDAiLz48cGF0aCBjbGFzcz0iczEiIGQ9Ik0wLDIwIDMsMjAgOSwwIDIwLDAiLz48L2c+PGcgaWQ9InZtdi01LTkiPjxwYXRoIGNsYXNzPSJzMTQiIGQ9Ik05LDAgMjAsMCAyMCwyMCA5LDIwIDYsMTAgeiIvPjxwYXRoIGNsYXNzPSJzMTAiIGQ9Ik0zLDAgMCwwIDAsMjAgMywyMCA2LDEwIHoiLz48cGF0aCBjbGFzcz0iczEiIGQ9Im0wLDAgMywwIDYsMjAgMTEsMCIvPjxwYXRoIGNsYXNzPSJzMSIgZD0iTTAsMjAgMywyMCA5LDAgMjAsMCIvPjwvZz48ZyBpZD0idm12LTYtOSI+PHBhdGggY2xhc3M9InMxNCIgZD0iTTksMCAyMCwwIDIwLDIwIDksMjAgNiwxMCB6Ii8+PHBhdGggY2xhc3M9InMxMSIgZD0iTTMsMCAwLDAgMCwyMCAzLDIwIDYsMTAgeiIvPjxwYXRoIGNsYXNzPSJzMSIgZD0ibTAsMCAzLDAgNiwyMCAxMSwwIi8+PHBhdGggY2xhc3M9InMxIiBkPSJNMCwyMCAzLDIwIDksMCAyMCwwIi8+PC9nPjxnIGlkPSJ2bXYtNy05Ij48cGF0aCBjbGFzcz0iczE0IiBkPSJNOSwwIDIwLDAgMjAsMjAgOSwyMCA2LDEwIHoiLz48cGF0aCBjbGFzcz0iczEyIiBkPSJNMywwIDAsMCAwLDIwIDMsMjAgNiwxMCB6Ii8+PHBhdGggY2xhc3M9InMxIiBkPSJtMCwwIDMsMCA2LDIwIDExLDAiLz48cGF0aCBjbGFzcz0iczEiIGQ9Ik0wLDIwIDMsMjAgOSwwIDIwLDAiLz48L2c+PGcgaWQ9InZtdi04LTkiPjxwYXRoIGNsYXNzPSJzMTQiIGQ9Ik05LDAgMjAsMCAyMCwyMCA5LDIwIDYsMTAgeiIvPjxwYXRoIGNsYXNzPSJzMTMiIGQ9Ik0zLDAgMCwwIDAsMjAgMywyMCA2LDEwIHoiLz48cGF0aCBjbGFzcz0iczEiIGQ9Im0wLDAgMywwIDYsMjAgMTEsMCIvPjxwYXRoIGNsYXNzPSJzMSIgZD0iTTAsMjAgMywyMCA5LDAgMjAsMCIvPjwvZz48ZyBpZD0idm12LTktOSI+PHBhdGggY2xhc3M9InMxNCIgZD0iTTksMCAyMCwwIDIwLDIwIDksMjAgNiwxMCB6Ii8+PHBhdGggY2xhc3M9InMxNCIgZD0iTTMsMCAwLDAgMCwyMCAzLDIwIDYsMTAgeiIvPjxwYXRoIGNsYXNzPSJzMSIgZD0ibTAsMCAzLDAgNiwyMCAxMSwwIi8+PHBhdGggY2xhc3M9InMxIiBkPSJNMCwyMCAzLDIwIDksMCAyMCwwIi8+PC9nPjxnIGlkPSJhcnJvdzAiPjxwYXRoIGNsYXNzPSJzMTUiIGQ9Im0tMTIsLTMgOSwzIC05LDMgYyAxLC0yIDEsLTQgMCwtNiB6Ii8+PHBhdGggY2xhc3M9InMxNiIgZD0iTTAsMCAtMTUsMCIvPjwvZz48bWFya2VyIG9yaWVudD0iYXV0byIgcmVmWT0iMCIgcmVmWD0iMTUiIHZpZXdCb3g9IjAgLTQgMTEgOCIgbWFya2VyVW5pdHM9InN0cm9rZVdpZHRoIiBtYXJrZXJXaWR0aD0iMTAiIG1hcmtlckhlaWdodD0iNyIgc3R5bGU9ImZpbGw6IzAwNDFjNCIgaWQ9ImFycm93aGVhZCI+PHBhdGggZD0iTTAgLTQgMTEgMCAwIDR6Ii8+PC9tYXJrZXI+PG1hcmtlciBvcmllbnQ9ImF1dG8iIHJlZlk9IjAiIHJlZlg9Ii0xNSIgdmlld0JveD0iLTExIC00IDExIDgiIG1hcmtlclVuaXRzPSJzdHJva2VXaWR0aCIgbWFya2VyV2lkdGg9IjEwIiBtYXJrZXJIZWlnaHQ9IjciIHN0eWxlPSJmaWxsOiMwMDQxYzQiIGlkPSJhcnJvd3RhaWwiPjxwYXRoIGQ9Ik0wIC00IC0xMSAwIDAgNHoiLz48L21hcmtlcj48bWFya2VyIG9yaWVudD0iYXV0byIgcmVmWT0iMyIgcmVmWD0iMCIgdmlld0JveD0iMCAwIDEgNiIgbWFya2VyVW5pdHM9InN0cm9rZVdpZHRoIiBtYXJrZXJXaWR0aD0iMSIgbWFya2VySGVpZ2h0PSI2IiBzdHlsZT0iZmlsbDojMDA0MWM0IiBpZD0idGVlIj48cGF0aCBzdHlsZT0ic3Ryb2tlOiMwMDQxYzQ7c3Ryb2tlLXdpZHRoOjIiIGQ9Ik0gMCAwIEwgMCA2Ii8+PC9tYXJrZXI+PC9kZWZzPjxnIGlkPSJ3YXZlc18wIj48cmVjdCBzdHlsZT0ic3Ryb2tlOm5vbmU7ZmlsbDp3aGl0ZSIgaGVpZ2h0PSIzMCIgd2lkdGg9IjQwMCIvPjxnIGlkPSJsYW5lc18wIiB0cmFuc2Zvcm09InRyYW5zbGF0ZSg2MC41LDAuNSkiPjxnIGlkPSJnbWFya3NfMCI+PGcgc3R5bGU9InN0cm9rZTojODg4O3N0cm9rZS13aWR0aDowLjU7c3Ryb2tlLWRhc2hhcnJheToxLDMiPjxsaW5lIHkyPSIzMCIgeDI9IjAiIHkxPSIwIiB4MT0iMCIgaWQ9ImdtYXJrXzBfMCIvPjxsaW5lIHkyPSIzMCIgeDI9IjQwIiB5MT0iMCIgeDE9IjQwIiBpZD0iZ21hcmtfMV8wIi8+PGxpbmUgeTI9IjMwIiB4Mj0iODAiIHkxPSIwIiB4MT0iODAiIGlkPSJnbWFya18yXzAiLz48bGluZSB5Mj0iMzAiIHgyPSIxMjAiIHkxPSIwIiB4MT0iMTIwIiBpZD0iZ21hcmtfM18wIi8+PGxpbmUgeTI9IjMwIiB4Mj0iMTYwIiB5MT0iMCIgeDE9IjE2MCIgaWQ9ImdtYXJrXzRfMCIvPjxsaW5lIHkyPSIzMCIgeDI9IjIwMCIgeTE9IjAiIHgxPSIyMDAiIGlkPSJnbWFya181XzAiLz48bGluZSB5Mj0iMzAiIHgyPSIyNDAiIHkxPSIwIiB4MT0iMjQwIiBpZD0iZ21hcmtfNl8wIi8+PGxpbmUgeTI9IjMwIiB4Mj0iMjgwIiB5MT0iMCIgeDE9IjI4MCIgaWQ9ImdtYXJrXzdfMCIvPjxsaW5lIHkyPSIzMCIgeDI9IjMyMCIgeTE9IjAiIHgxPSIzMjAiIGlkPSJnbWFya184XzAiLz48L2c+PC9nPjxnIGlkPSJ3YXZlbGFuZV8wXzAiIHRyYW5zZm9ybT0idHJhbnNsYXRlKDAsNSkiPjx0ZXh0IHhtbDpzcGFjZT0icHJlc2VydmUiIHRleHQtYW5jaG9yPSJlbmQiIGNsYXNzPSJpbmZvIiB5PSIxNSIgeD0iLTEwIj48dHNwYW4+Y2xvY2s8L3RzcGFuPjwvdGV4dD48ZyBpZD0id2F2ZWxhbmVfZHJhd18wXzAiPjx1c2UgeGxpbms6aHJlZj0iIzAwMCIvPjx1c2UgeGxpbms6aHJlZj0iIzAwMCIgdHJhbnNmb3JtPSJ0cmFuc2xhdGUoMjApIi8+PHVzZSB4bGluazpocmVmPSIjUGNsayIgdHJhbnNmb3JtPSJ0cmFuc2xhdGUoNDApIi8+PHVzZSB4bGluazpocmVmPSIjbmNsayIgdHJhbnNmb3JtPSJ0cmFuc2xhdGUoNjApIi8+PHVzZSB4bGluazpocmVmPSIjMDAwIiB0cmFuc2Zvcm09InRyYW5zbGF0ZSg4MCkiLz48dXNlIHhsaW5rOmhyZWY9IiMwMDAiIHRyYW5zZm9ybT0idHJhbnNsYXRlKDEwMCkiLz48dXNlIHhsaW5rOmhyZWY9IiNQY2xrIiB0cmFuc2Zvcm09InRyYW5zbGF0ZSgxMjApIi8+PHVzZSB4bGluazpocmVmPSIjbmNsayIgdHJhbnNmb3JtPSJ0cmFuc2xhdGUoMTQwKSIvPjx1c2UgeGxpbms6aHJlZj0iIzAwMCIgdHJhbnNmb3JtPSJ0cmFuc2xhdGUoMTYwKSIvPjx1c2UgeGxpbms6aHJlZj0iIzAwMCIgdHJhbnNmb3JtPSJ0cmFuc2xhdGUoMTgwKSIvPjx1c2UgeGxpbms6aHJlZj0iI1BjbGsiIHRyYW5zZm9ybT0idHJhbnNsYXRlKDIwMCkiLz48dXNlIHhsaW5rOmhyZWY9IiNuY2xrIiB0cmFuc2Zvcm09InRyYW5zbGF0ZSgyMjApIi8+PHVzZSB4bGluazpocmVmPSIjMDAwIiB0cmFuc2Zvcm09InRyYW5zbGF0ZSgyNDApIi8+PHVzZSB4bGluazpocmVmPSIjMDAwIiB0cmFuc2Zvcm09InRyYW5zbGF0ZSgyNjApIi8+PHVzZSB4bGluazpocmVmPSIjUGNsayIgdHJhbnNmb3JtPSJ0cmFuc2xhdGUoMjgwKSIvPjx1c2UgeGxpbms6aHJlZj0iI25jbGsiIHRyYW5zZm9ybT0idHJhbnNsYXRlKDMwMCkiLz48L2c+PC9nPjxnIGlkPSJ3YXZlYXJjc18wIi8+PGcgaWQ9IndhdmVnYXBzXzAiPjxnIGlkPSJ3YXZlZ2FwXzBfMCIgdHJhbnNmb3JtPSJ0cmFuc2xhdGUoMCw1KSIvPjwvZz48Zy8+PC9nPjxnIGlkPSJncm91cHNfMCI+PGcvPjwvZz48L2c+PC9zdmc+;" vertex="1" parent="1">
          <mxGeometry x="-765" y="105" width="3264.51" height="253" as="geometry" />
        </mxCell>
        <mxCell id="ww2nhfKNjPysvLxSNDaB-11" style="rounded=0;orthogonalLoop=1;jettySize=auto;html=1;exitX=0.25;exitY=0;exitDx=0;exitDy=0;entryX=0.452;entryY=0.006;entryDx=0;entryDy=0;entryPerimeter=0;startArrow=block;startFill=1;endArrow=block;endFill=1;strokeWidth=10;fillColor=#f8cecc;strokeColor=light-dark(#ee1111, #d7817e);" edge="1" parent="1" source="ww2nhfKNjPysvLxSNDaB-7" target="ww2nhfKNjPysvLxSNDaB-7">
          <mxGeometry relative="1" as="geometry" />
        </mxCell>
        <mxCell id="ww2nhfKNjPysvLxSNDaB-12" value="&lt;span style=&quot;font-size: 50px;&quot;&gt;Time Period&lt;/span&gt;" style="text;html=1;align=center;verticalAlign=middle;resizable=0;points=[];autosize=1;strokeColor=none;fillColor=none;" vertex="1" parent="1">
          <mxGeometry x="278" y="31" width="286" height="72" as="geometry" />
        </mxCell>
        <mxCell id="ww2nhfKNjPysvLxSNDaB-14" value="" style="shape=image;verticalLabelPosition=bottom;labelBackgroundColor=default;verticalAlign=top;aspect=fixed;imageAspect=0;editableCssRules=.*;image=data:image/svg+xml,PHN2ZyB4bWxuczp4bGluaz0iaHR0cDovL3d3dy53My5vcmcvMTk5OS94bGluayIgeG1sbnM9Imh0dHA6Ly93d3cudzMub3JnLzIwMDAvc3ZnIiBjbGFzcz0iV2F2ZURyb20iIG92ZXJmbG93PSJoaWRkZW4iIHZpZXdCb3g9IjAgMCA0NDAgMzAuNSIgd2lkdGg9IjQ0MCIgaGVpZ2h0PSIzMC41IiBpZD0ic3ZnY29udGVudF8wIj48c3R5bGUgdHlwZT0idGV4dC9jc3MiPnRleHR7Zm9udC1zaXplOjExcHQ7Zm9udC1zdHlsZTpub3JtYWw7Zm9udC12YXJpYW50Om5vcm1hbDtmb250LXdlaWdodDpub3JtYWw7Zm9udC1zdHJldGNoOm5vcm1hbDt0ZXh0LWFsaWduOmNlbnRlcjtmaWxsLW9wYWNpdHk6MTtmb250LWZhbWlseTpIZWx2ZXRpY2F9Lmgxe2ZvbnQtc2l6ZTozM3B0O2ZvbnQtd2VpZ2h0OmJvbGR9Lmgye2ZvbnQtc2l6ZToyN3B0O2ZvbnQtd2VpZ2h0OmJvbGR9Lmgze2ZvbnQtc2l6ZToyMHB0O2ZvbnQtd2VpZ2h0OmJvbGR9Lmg0e2ZvbnQtc2l6ZToxNHB0O2ZvbnQtd2VpZ2h0OmJvbGR9Lmg1e2ZvbnQtc2l6ZToxMXB0O2ZvbnQtd2VpZ2h0OmJvbGR9Lmg2e2ZvbnQtc2l6ZTo4cHQ7Zm9udC13ZWlnaHQ6Ym9sZH0ubXV0ZWR7ZmlsbDojYWFhfS53YXJuaW5ne2ZpbGw6I2Y2YjkwMH0uZXJyb3J7ZmlsbDojZjYwMDAwfS5pbmZve2ZpbGw6IzAwNDFjNH0uc3VjY2Vzc3tmaWxsOiMwMGFiMDB9LnMxe2ZpbGw6bm9uZTtzdHJva2U6IzAwMDtzdHJva2Utd2lkdGg6MTtzdHJva2UtbGluZWNhcDpyb3VuZDtzdHJva2UtbGluZWpvaW46bWl0ZXI7c3Ryb2tlLW1pdGVybGltaXQ6NDtzdHJva2Utb3BhY2l0eToxO3N0cm9rZS1kYXNoYXJyYXk6bm9uZX0uczJ7ZmlsbDpub25lO3N0cm9rZTojMDAwO3N0cm9rZS13aWR0aDowLjU7c3Ryb2tlLWxpbmVjYXA6cm91bmQ7c3Ryb2tlLWxpbmVqb2luOm1pdGVyO3N0cm9rZS1taXRlcmxpbWl0OjQ7c3Ryb2tlLW9wYWNpdHk6MTtzdHJva2UtZGFzaGFycmF5Om5vbmV9LnMze2NvbG9yOiMwMDA7ZmlsbDpub25lO3N0cm9rZTojMDAwO3N0cm9rZS13aWR0aDoxO3N0cm9rZS1saW5lY2FwOnJvdW5kO3N0cm9rZS1saW5lam9pbjptaXRlcjtzdHJva2UtbWl0ZXJsaW1pdDo0O3N0cm9rZS1vcGFjaXR5OjE7c3Ryb2tlLWRhc2hhcnJheToxLCAzO3N0cm9rZS1kYXNob2Zmc2V0OjA7bWFya2VyOm5vbmU7dmlzaWJpbGl0eTp2aXNpYmxlO2Rpc3BsYXk6aW5saW5lO292ZXJmbG93OnZpc2libGV9LnM0e2NvbG9yOiMwMDA7ZmlsbDpub25lO3N0cm9rZTojMDAwO3N0cm9rZS13aWR0aDoxO3N0cm9rZS1saW5lY2FwOnJvdW5kO3N0cm9rZS1saW5lam9pbjptaXRlcjtzdHJva2UtbWl0ZXJsaW1pdDo0O3N0cm9rZS1vcGFjaXR5OjE7c3Ryb2tlLWRhc2hhcnJheTpub25lO3N0cm9rZS1kYXNob2Zmc2V0OjA7bWFya2VyOm5vbmU7dmlzaWJpbGl0eTp2aXNpYmxlO2Rpc3BsYXk6aW5saW5lO292ZXJmbG93OnZpc2libGV9LnM1e2ZpbGw6I2ZmZjtzdHJva2U6bm9uZX0uczZ7ZmlsbDojMDAwO2ZpbGwtb3BhY2l0eToxO3N0cm9rZTpub25lfS5zN3tjb2xvcjojMDAwO2ZpbGw6I2ZmZjtmaWxsLW9wYWNpdHk6MTtmaWxsLXJ1bGU6bm9uemVybztzdHJva2U6bm9uZTtzdHJva2Utd2lkdGg6MXB4O21hcmtlcjpub25lO3Zpc2liaWxpdHk6dmlzaWJsZTtkaXNwbGF5OmlubGluZTtvdmVyZmxvdzp2aXNpYmxlfS5zOHtjb2xvcjojMDAwO2ZpbGw6I2ZmZmZiNDtmaWxsLW9wYWNpdHk6MTtmaWxsLXJ1bGU6bm9uemVybztzdHJva2U6bm9uZTtzdHJva2Utd2lkdGg6MXB4O21hcmtlcjpub25lO3Zpc2liaWxpdHk6dmlzaWJsZTtkaXNwbGF5OmlubGluZTtvdmVyZmxvdzp2aXNpYmxlfS5zOXtjb2xvcjojMDAwO2ZpbGw6I2ZmZTBiOTtmaWxsLW9wYWNpdHk6MTtmaWxsLXJ1bGU6bm9uemVybztzdHJva2U6bm9uZTtzdHJva2Utd2lkdGg6MXB4O21hcmtlcjpub25lO3Zpc2liaWxpdHk6dmlzaWJsZTtkaXNwbGF5OmlubGluZTtvdmVyZmxvdzp2aXNpYmxlfS5zMTB7Y29sb3I6IzAwMDtmaWxsOiNiOWUwZmY7ZmlsbC1vcGFjaXR5OjE7ZmlsbC1ydWxlOm5vbnplcm87c3Ryb2tlOm5vbmU7c3Ryb2tlLXdpZHRoOjFweDttYXJrZXI6bm9uZTt2aXNpYmlsaXR5OnZpc2libGU7ZGlzcGxheTppbmxpbmU7b3ZlcmZsb3c6dmlzaWJsZX0uczExe2NvbG9yOiMwMDA7ZmlsbDojY2NmZGZlO2ZpbGwtb3BhY2l0eToxO2ZpbGwtcnVsZTpub256ZXJvO3N0cm9rZTpub25lO3N0cm9rZS13aWR0aDoxcHg7bWFya2VyOm5vbmU7dmlzaWJpbGl0eTp2aXNpYmxlO2Rpc3BsYXk6aW5saW5lO292ZXJmbG93OnZpc2libGV9LnMxMntjb2xvcjojMDAwO2ZpbGw6I2NkZmRjNTtmaWxsLW9wYWNpdHk6MTtmaWxsLXJ1bGU6bm9uemVybztzdHJva2U6bm9uZTtzdHJva2Utd2lkdGg6MXB4O21hcmtlcjpub25lO3Zpc2liaWxpdHk6dmlzaWJsZTtkaXNwbGF5OmlubGluZTtvdmVyZmxvdzp2aXNpYmxlfS5zMTN7Y29sb3I6IzAwMDtmaWxsOiNmMGMxZmI7ZmlsbC1vcGFjaXR5OjE7ZmlsbC1ydWxlOm5vbnplcm87c3Ryb2tlOm5vbmU7c3Ryb2tlLXdpZHRoOjFweDttYXJrZXI6bm9uZTt2aXNpYmlsaXR5OnZpc2libGU7ZGlzcGxheTppbmxpbmU7b3ZlcmZsb3c6dmlzaWJsZX0uczE0e2NvbG9yOiMwMDA7ZmlsbDojZjVjMmMwO2ZpbGwtb3BhY2l0eToxO2ZpbGwtcnVsZTpub256ZXJvO3N0cm9rZTpub25lO3N0cm9rZS13aWR0aDoxcHg7bWFya2VyOm5vbmU7dmlzaWJpbGl0eTp2aXNpYmxlO2Rpc3BsYXk6aW5saW5lO292ZXJmbG93OnZpc2libGV9LnMxNXtmaWxsOiMwMDQxYzQ7ZmlsbC1vcGFjaXR5OjE7c3Ryb2tlOm5vbmV9LnMxNntmaWxsOm5vbmU7c3Ryb2tlOiMwMDQxYzQ7c3Ryb2tlLXdpZHRoOjE7c3Ryb2tlLWxpbmVjYXA6cm91bmQ7c3Ryb2tlLWxpbmVqb2luOm1pdGVyO3N0cm9rZS1taXRlcmxpbWl0OjQ7c3Ryb2tlLW9wYWNpdHk6MTtzdHJva2UtZGFzaGFycmF5Om5vbmV9PC9zdHlsZT48ZGVmcz48ZyBpZD0ic29ja2V0Ij48cmVjdCB3aWR0aD0iMjAiIGhlaWdodD0iMjAiIHg9IjYiIHk9IjE1Ii8+PC9nPjxnIGlkPSJwY2xrIj48cGF0aCBjbGFzcz0iczEiIGQ9Ik0wLDIwIDAsMCAyMCwwIi8+PC9nPjxnIGlkPSJuY2xrIj48cGF0aCBjbGFzcz0iczEiIGQ9Im0wLDAgMCwyMCAyMCwwIi8+PC9nPjxnIGlkPSIwMDAiPjxwYXRoIGNsYXNzPSJzMSIgZD0ibTAsMjAgMjAsMCIvPjwvZz48ZyBpZD0iMG0wIj48cGF0aCBjbGFzcz0iczEiIGQ9Im0wLDIwIDMsMCAzLC0xMCAzLDEwIDExLDAiLz48L2c+PGcgaWQ9IjBtMSI+PHBhdGggY2xhc3M9InMxIiBkPSJNMCwyMCAzLDIwIDksMCAyMCwwIi8+PC9nPjxnIGlkPSIwbXgiPjxwYXRoIGNsYXNzPSJzMSIgZD0iTTMsMjAgOSwwIDIwLDAiLz48cGF0aCBjbGFzcz0iczIiIGQ9Im0yMCwxNSAtNSw1Ii8+PHBhdGggY2xhc3M9InMyIiBkPSJNMjAsMTAgMTAsMjAiLz48cGF0aCBjbGFzcz0iczIiIGQ9Ik0yMCw1IDUsMjAiLz48cGF0aCBjbGFzcz0iczIiIGQ9Ik0yMCwwIDQsMTYiLz48cGF0aCBjbGFzcz0iczIiIGQ9Ik0xNSwwIDYsOSIvPjxwYXRoIGNsYXNzPSJzMiIgZD0iTTEwLDAgOSwxIi8+PHBhdGggY2xhc3M9InMxIiBkPSJtMCwyMCAyMCwwIi8+PC9nPjxnIGlkPSIwbWQiPjxwYXRoIGNsYXNzPSJzMyIgZD0ibTgsMjAgMTAsMCIvPjxwYXRoIGNsYXNzPSJzMSIgZD0ibTAsMjAgNSwwIi8+PC9nPjxnIGlkPSIwbXUiPjxwYXRoIGNsYXNzPSJzMSIgZD0ibTAsMjAgMywwIEMgNywxMCAxMC4xMDc2MDMsMCAyMCwwIi8+PC9nPjxnIGlkPSIwbXoiPjxwYXRoIGNsYXNzPSJzMSIgZD0ibTAsMjAgMywwIEMgMTAsMTAgMTUsMTAgMjAsMTAiLz48L2c+PGcgaWQ9IjExMSI+PHBhdGggY2xhc3M9InMxIiBkPSJNMCwwIDIwLDAiLz48L2c+PGcgaWQ9IjFtMCI+PHBhdGggY2xhc3M9InMxIiBkPSJtMCwwIDMsMCA2LDIwIDExLDAiLz48L2c+PGcgaWQ9IjFtMSI+PHBhdGggY2xhc3M9InMxIiBkPSJNMCwwIDMsMCA2LDEwIDksMCAyMCwwIi8+PC9nPjxnIGlkPSIxbXgiPjxwYXRoIGNsYXNzPSJzMSIgZD0ibTMsMCA2LDIwIDExLDAiLz48cGF0aCBjbGFzcz0iczEiIGQ9Ik0wLDAgMjAsMCIvPjxwYXRoIGNsYXNzPSJzMiIgZD0ibTIwLDE1IC01LDUiLz48cGF0aCBjbGFzcz0iczIiIGQ9Ik0yMCwxMCAxMCwyMCIvPjxwYXRoIGNsYXNzPSJzMiIgZD0iTTIwLDUgOCwxNyIvPjxwYXRoIGNsYXNzPSJzMiIgZD0iTTIwLDAgNywxMyIvPjxwYXRoIGNsYXNzPSJzMiIgZD0iTTE1LDAgNiw5Ii8+PHBhdGggY2xhc3M9InMyIiBkPSJNMTAsMCA1LDUiLz48cGF0aCBjbGFzcz0iczIiIGQ9Ik0zLjUsMS41IDUsMCIvPjwvZz48ZyBpZD0iMW1kIj48cGF0aCBjbGFzcz0iczEiIGQ9Im0wLDAgMywwIGMgNCwxMCA3LDIwIDE3LDIwIi8+PC9nPjxnIGlkPSIxbXUiPjxwYXRoIGNsYXNzPSJzMSIgZD0iTTAsMCA1LDAiLz48cGF0aCBjbGFzcz0iczMiIGQ9Ik04LDAgMTgsMCIvPjwvZz48ZyBpZD0iMW16Ij48cGF0aCBjbGFzcz0iczEiIGQ9Im0wLDAgMywwIGMgNywxMCAxMiwxMCAxNywxMCIvPjwvZz48ZyBpZD0ieHh4Ij48cGF0aCBjbGFzcz0iczEiIGQ9Im0wLDIwIDIwLDAiLz48cGF0aCBjbGFzcz0iczEiIGQ9Ik0wLDAgMjAsMCIvPjxwYXRoIGNsYXNzPSJzMiIgZD0iTTAsNSA1LDAiLz48cGF0aCBjbGFzcz0iczIiIGQ9Ik0wLDEwIDEwLDAiLz48cGF0aCBjbGFzcz0iczIiIGQ9Ik0wLDE1IDE1LDAiLz48cGF0aCBjbGFzcz0iczIiIGQ9Ik0wLDIwIDIwLDAiLz48cGF0aCBjbGFzcz0iczIiIGQ9Ik01LDIwIDIwLDUiLz48cGF0aCBjbGFzcz0iczIiIGQ9Ik0xMCwyMCAyMCwxMCIvPjxwYXRoIGNsYXNzPSJzMiIgZD0ibTE1LDIwIDUsLTUiLz48L2c+PGcgaWQ9InhtMCI+PHBhdGggY2xhc3M9InMxIiBkPSJNMCwwIDQsMCA5LDIwIi8+PHBhdGggY2xhc3M9InMxIiBkPSJtMCwyMCAyMCwwIi8+PHBhdGggY2xhc3M9InMyIiBkPSJNMCw1IDQsMSIvPjxwYXRoIGNsYXNzPSJzMiIgZD0iTTAsMTAgNSw1Ii8+PHBhdGggY2xhc3M9InMyIiBkPSJNMCwxNSA2LDkiLz48cGF0aCBjbGFzcz0iczIiIGQ9Ik0wLDIwIDcsMTMiLz48cGF0aCBjbGFzcz0iczIiIGQ9Ik01LDIwIDgsMTciLz48L2c+PGcgaWQ9InhtMSI+PHBhdGggY2xhc3M9InMxIiBkPSJNMCwwIDIwLDAiLz48cGF0aCBjbGFzcz0iczEiIGQ9Ik0wLDIwIDQsMjAgOSwwIi8+PHBhdGggY2xhc3M9InMyIiBkPSJNMCw1IDUsMCIvPjxwYXRoIGNsYXNzPSJzMiIgZD0iTTAsMTAgOSwxIi8+PHBhdGggY2xhc3M9InMyIiBkPSJNMCwxNSA3LDgiLz48cGF0aCBjbGFzcz0iczIiIGQ9Ik0wLDIwIDUsMTUiLz48L2c+PGcgaWQ9InhteCI+PHBhdGggY2xhc3M9InMxIiBkPSJtMCwyMCAyMCwwIi8+PHBhdGggY2xhc3M9InMxIiBkPSJNMCwwIDIwLDAiLz48cGF0aCBjbGFzcz0iczIiIGQ9Ik0wLDUgNSwwIi8+PHBhdGggY2xhc3M9InMyIiBkPSJNMCwxMCAxMCwwIi8+PHBhdGggY2xhc3M9InMyIiBkPSJNMCwxNSAxNSwwIi8+PHBhdGggY2xhc3M9InMyIiBkPSJNMCwyMCAyMCwwIi8+PHBhdGggY2xhc3M9InMyIiBkPSJNNSwyMCAyMCw1Ii8+PHBhdGggY2xhc3M9InMyIiBkPSJNMTAsMjAgMjAsMTAiLz48cGF0aCBjbGFzcz0iczIiIGQ9Im0xNSwyMCA1LC01Ii8+PC9nPjxnIGlkPSJ4bWQiPjxwYXRoIGNsYXNzPSJzMSIgZD0ibTAsMCA0LDAgYyAzLDEwIDYsMjAgMTYsMjAiLz48cGF0aCBjbGFzcz0iczEiIGQ9Im0wLDIwIDIwLDAiLz48cGF0aCBjbGFzcz0iczIiIGQ9Ik0wLDUgNCwxIi8+PHBhdGggY2xhc3M9InMyIiBkPSJNMCwxMCA1LjUsNC41Ii8+PHBhdGggY2xhc3M9InMyIiBkPSJNMCwxNSA2LjUsOC41Ii8+PHBhdGggY2xhc3M9InMyIiBkPSJNMCwyMCA4LDEyIi8+PHBhdGggY2xhc3M9InMyIiBkPSJtNSwyMCA1LC01Ii8+PHBhdGggY2xhc3M9InMyIiBkPSJtMTAsMjAgMi41LC0yLjUiLz48L2c+PGcgaWQ9InhtdSI+PHBhdGggY2xhc3M9InMxIiBkPSJNMCwwIDIwLDAiLz48cGF0aCBjbGFzcz0iczEiIGQ9Im0wLDIwIDQsMCBDIDcsMTAgMTAsMCAyMCwwIi8+PHBhdGggY2xhc3M9InMyIiBkPSJNMCw1IDUsMCIvPjxwYXRoIGNsYXNzPSJzMiIgZD0iTTAsMTAgMTAsMCIvPjxwYXRoIGNsYXNzPSJzMiIgZD0iTTAsMTUgMTAsNSIvPjxwYXRoIGNsYXNzPSJzMiIgZD0iTTAsMjAgNiwxNCIvPjwvZz48ZyBpZD0ieG16Ij48cGF0aCBjbGFzcz0iczEiIGQ9Im0wLDAgNCwwIGMgNiwxMCAxMSwxMCAxNiwxMCIvPjxwYXRoIGNsYXNzPSJzMSIgZD0ibTAsMjAgNCwwIEMgMTAsMTAgMTUsMTAgMjAsMTAiLz48cGF0aCBjbGFzcz0iczIiIGQ9Ik0wLDUgNC41LDAuNSIvPjxwYXRoIGNsYXNzPSJzMiIgZD0iTTAsMTAgNi41LDMuNSIvPjxwYXRoIGNsYXNzPSJzMiIgZD0iTTAsMTUgOC41LDYuNSIvPjxwYXRoIGNsYXNzPSJzMiIgZD0iTTAsMjAgMTEuNSw4LjUiLz48L2c+PGcgaWQ9ImRkZCI+PHBhdGggY2xhc3M9InMzIiBkPSJtMCwyMCAyMCwwIi8+PC9nPjxnIGlkPSJkbTAiPjxwYXRoIGNsYXNzPSJzMyIgZD0ibTAsMjAgMTAsMCIvPjxwYXRoIGNsYXNzPSJzMSIgZD0ibTEyLDIwIDgsMCIvPjwvZz48ZyBpZD0iZG0xIj48cGF0aCBjbGFzcz0iczEiIGQ9Ik0wLDIwIDMsMjAgOSwwIDIwLDAiLz48L2c+PGcgaWQ9ImRteCI+PHBhdGggY2xhc3M9InMxIiBkPSJNMywyMCA5LDAgMjAsMCIvPjxwYXRoIGNsYXNzPSJzMiIgZD0ibTIwLDE1IC01LDUiLz48cGF0aCBjbGFzcz0iczIiIGQ9Ik0yMCwxMCAxMCwyMCIvPjxwYXRoIGNsYXNzPSJzMiIgZD0iTTIwLDUgNSwyMCIvPjxwYXRoIGNsYXNzPSJzMiIgZD0iTTIwLDAgNCwxNiIvPjxwYXRoIGNsYXNzPSJzMiIgZD0iTTE1LDAgNiw5Ii8+PHBhdGggY2xhc3M9InMyIiBkPSJNMTAsMCA5LDEiLz48cGF0aCBjbGFzcz0iczEiIGQ9Im0wLDIwIDIwLDAiLz48L2c+PGcgaWQ9ImRtZCI+PHBhdGggY2xhc3M9InMzIiBkPSJtMCwyMCAyMCwwIi8+PC9nPjxnIGlkPSJkbXUiPjxwYXRoIGNsYXNzPSJzMSIgZD0ibTAsMjAgMywwIEMgNywxMCAxMC4xMDc2MDMsMCAyMCwwIi8+PC9nPjxnIGlkPSJkbXoiPjxwYXRoIGNsYXNzPSJzMSIgZD0ibTAsMjAgMywwIEMgMTAsMTAgMTUsMTAgMjAsMTAiLz48L2c+PGcgaWQ9InV1dSI+PHBhdGggY2xhc3M9InMzIiBkPSJNMCwwIDIwLDAiLz48L2c+PGcgaWQ9InVtMCI+PHBhdGggY2xhc3M9InMxIiBkPSJtMCwwIDMsMCA2LDIwIDExLDAiLz48L2c+PGcgaWQ9InVtMSI+PHBhdGggY2xhc3M9InMzIiBkPSJNMCwwIDEwLDAiLz48cGF0aCBjbGFzcz0iczEiIGQ9Im0xMiwwIDgsMCIvPjwvZz48ZyBpZD0idW14Ij48cGF0aCBjbGFzcz0iczEiIGQ9Im0zLDAgNiwyMCAxMSwwIi8+PHBhdGggY2xhc3M9InMxIiBkPSJNMCwwIDIwLDAiLz48cGF0aCBjbGFzcz0iczIiIGQ9Im0yMCwxNSAtNSw1Ii8+PHBhdGggY2xhc3M9InMyIiBkPSJNMjAsMTAgMTAsMjAiLz48cGF0aCBjbGFzcz0iczIiIGQ9Ik0yMCw1IDgsMTciLz48cGF0aCBjbGFzcz0iczIiIGQ9Ik0yMCwwIDcsMTMiLz48cGF0aCBjbGFzcz0iczIiIGQ9Ik0xNSwwIDYsOSIvPjxwYXRoIGNsYXNzPSJzMiIgZD0iTTEwLDAgNSw1Ii8+PHBhdGggY2xhc3M9InMyIiBkPSJNMy41LDEuNSA1LDAiLz48L2c+PGcgaWQ9InVtZCI+PHBhdGggY2xhc3M9InMxIiBkPSJtMCwwIDMsMCBjIDQsMTAgNywyMCAxNywyMCIvPjwvZz48ZyBpZD0idW11Ij48cGF0aCBjbGFzcz0iczMiIGQ9Ik0wLDAgMjAsMCIvPjwvZz48ZyBpZD0idW16Ij48cGF0aCBjbGFzcz0iczQiIGQ9Im0wLDAgMywwIGMgNywxMCAxMiwxMCAxNywxMCIvPjwvZz48ZyBpZD0ienp6Ij48cGF0aCBjbGFzcz0iczEiIGQ9Im0wLDEwIDIwLDAiLz48L2c+PGcgaWQ9InptMCI+PHBhdGggY2xhc3M9InMxIiBkPSJtMCwxMCA2LDAgMywxMCAxMSwwIi8+PC9nPjxnIGlkPSJ6bTEiPjxwYXRoIGNsYXNzPSJzMSIgZD0iTTAsMTAgNiwxMCA5LDAgMjAsMCIvPjwvZz48ZyBpZD0iem14Ij48cGF0aCBjbGFzcz0iczEiIGQ9Im02LDEwIDMsMTAgMTEsMCIvPjxwYXRoIGNsYXNzPSJzMSIgZD0iTTAsMTAgNiwxMCA5LDAgMjAsMCIvPjxwYXRoIGNsYXNzPSJzMiIgZD0ibTIwLDE1IC01LDUiLz48cGF0aCBjbGFzcz0iczIiIGQ9Ik0yMCwxMCAxMCwyMCIvPjxwYXRoIGNsYXNzPSJzMiIgZD0iTTIwLDUgOCwxNyIvPjxwYXRoIGNsYXNzPSJzMiIgZD0iTTIwLDAgNywxMyIvPjxwYXRoIGNsYXNzPSJzMiIgZD0iTTE1LDAgNi41LDguNSIvPjxwYXRoIGNsYXNzPSJzMiIgZD0iTTEwLDAgOSwxIi8+PC9nPjxnIGlkPSJ6bWQiPjxwYXRoIGNsYXNzPSJzMSIgZD0ibTAsMTAgNywwIGMgMyw1IDgsMTAgMTMsMTAiLz48L2c+PGcgaWQ9InptdSI+PHBhdGggY2xhc3M9InMxIiBkPSJtMCwxMCA3LDAgQyAxMCw1IDE1LDAgMjAsMCIvPjwvZz48ZyBpZD0iem16Ij48cGF0aCBjbGFzcz0iczEiIGQ9Im0wLDEwIDIwLDAiLz48L2c+PGcgaWQ9ImdhcCI+PHBhdGggY2xhc3M9InM1IiBkPSJtNywtMiAtNCwwIGMgLTUsMCAtNSwyNCAtMTAsMjQgbCA0LDAgQyAyLDIyIDIsLTIgNywtMiB6Ii8+PHBhdGggY2xhc3M9InMxIiBkPSJNLTcsMjIgQyAtMiwyMiAtMiwtMiAzLC0yIi8+PHBhdGggY2xhc3M9InMxIiBkPSJNLTMsMjIgQyAyLDIyIDIsLTIgNywtMiIvPjwvZz48ZyBpZD0iUGNsayI+PHBhdGggY2xhc3M9InM2IiBkPSJNLTMsMTIgMCwzIDMsMTIgQyAxLDExIC0xLDExIC0zLDEyIHoiLz48cGF0aCBjbGFzcz0iczEiIGQ9Ik0wLDIwIDAsMCAyMCwwIi8+PC9nPjxnIGlkPSJOY2xrIj48cGF0aCBjbGFzcz0iczYiIGQ9Ik0tMyw4IDAsMTcgMyw4IEMgMSw5IC0xLDkgLTMsOCB6Ii8+PHBhdGggY2xhc3M9InMxIiBkPSJtMCwwIDAsMjAgMjAsMCIvPjwvZz48ZyBpZD0iMG12LTIiPjxwYXRoIGNsYXNzPSJzNyIgZD0iTTksMCAyMCwwIDIwLDIwIDMsMjAgeiIvPjxwYXRoIGNsYXNzPSJzMSIgZD0iTTMsMjAgOSwwIDIwLDAiLz48cGF0aCBjbGFzcz0iczEiIGQ9Im0wLDIwIDIwLDAiLz48L2c+PGcgaWQ9IjFtdi0yIj48cGF0aCBjbGFzcz0iczciIGQ9Ik0yLjg3NSwwIDIwLDAgMjAsMjAgOSwyMCB6Ii8+PHBhdGggY2xhc3M9InMxIiBkPSJtMywwIDYsMjAgMTEsMCIvPjxwYXRoIGNsYXNzPSJzMSIgZD0iTTAsMCAyMCwwIi8+PC9nPjxnIGlkPSJ4bXYtMiI+PHBhdGggY2xhc3M9InM3IiBkPSJNOSwwIDIwLDAgMjAsMjAgOSwyMCA2LDEwIHoiLz48cGF0aCBjbGFzcz0iczEiIGQ9Ik0wLDIwIDMsMjAgOSwwIDIwLDAiLz48cGF0aCBjbGFzcz0iczEiIGQ9Im0wLDAgMywwIDYsMjAgMTEsMCIvPjxwYXRoIGNsYXNzPSJzMiIgZD0iTTAsNSAzLjUsMS41Ii8+PHBhdGggY2xhc3M9InMyIiBkPSJNMCwxMCA0LjUsNS41Ii8+PHBhdGggY2xhc3M9InMyIiBkPSJNMCwxNSA2LDkiLz48cGF0aCBjbGFzcz0iczIiIGQ9Ik0wLDIwIDQsMTYiLz48L2c+PGcgaWQ9ImRtdi0yIj48cGF0aCBjbGFzcz0iczciIGQ9Ik05LDAgMjAsMCAyMCwyMCAzLDIwIHoiLz48cGF0aCBjbGFzcz0iczEiIGQ9Ik0zLDIwIDksMCAyMCwwIi8+PHBhdGggY2xhc3M9InMxIiBkPSJtMCwyMCAyMCwwIi8+PC9nPjxnIGlkPSJ1bXYtMiI+PHBhdGggY2xhc3M9InM3IiBkPSJNMywwIDIwLDAgMjAsMjAgOSwyMCB6Ii8+PHBhdGggY2xhc3M9InMxIiBkPSJtMywwIDYsMjAgMTEsMCIvPjxwYXRoIGNsYXNzPSJzMSIgZD0iTTAsMCAyMCwwIi8+PC9nPjxnIGlkPSJ6bXYtMiI+PHBhdGggY2xhc3M9InM3IiBkPSJNOSwwIDIwLDAgMjAsMjAgOSwyMCA2LDEwIHoiLz48cGF0aCBjbGFzcz0iczEiIGQ9Im02LDEwIDMsMTAgMTEsMCIvPjxwYXRoIGNsYXNzPSJzMSIgZD0iTTAsMTAgNiwxMCA5LDAgMjAsMCIvPjwvZz48ZyBpZD0idnZ2LTIiPjxwYXRoIGNsYXNzPSJzNyIgZD0iTTIwLDIwIDAsMjAgMCwwIDIwLDAiLz48cGF0aCBjbGFzcz0iczEiIGQ9Im0wLDIwIDIwLDAiLz48cGF0aCBjbGFzcz0iczEiIGQ9Ik0wLDAgMjAsMCIvPjwvZz48ZyBpZD0idm0wLTIiPjxwYXRoIGNsYXNzPSJzNyIgZD0iTTAsMjAgMCwwIDMsMCA5LDIwIi8+PHBhdGggY2xhc3M9InMxIiBkPSJNMCwwIDMsMCA5LDIwIi8+PHBhdGggY2xhc3M9InMxIiBkPSJtMCwyMCAyMCwwIi8+PC9nPjxnIGlkPSJ2bTEtMiI+PHBhdGggY2xhc3M9InM3IiBkPSJNMCwwIDAsMjAgMywyMCA5LDAiLz48cGF0aCBjbGFzcz0iczEiIGQ9Ik0wLDAgMjAsMCIvPjxwYXRoIGNsYXNzPSJzMSIgZD0iTTAsMjAgMywyMCA5LDAiLz48L2c+PGcgaWQ9InZteC0yIj48cGF0aCBjbGFzcz0iczciIGQ9Ik0wLDAgMCwyMCAzLDIwIDYsMTAgMywwIi8+PHBhdGggY2xhc3M9InMxIiBkPSJtMCwwIDMsMCA2LDIwIDExLDAiLz48cGF0aCBjbGFzcz0iczEiIGQ9Ik0wLDIwIDMsMjAgOSwwIDIwLDAiLz48cGF0aCBjbGFzcz0iczIiIGQ9Im0yMCwxNSAtNSw1Ii8+PHBhdGggY2xhc3M9InMyIiBkPSJNMjAsMTAgMTAsMjAiLz48cGF0aCBjbGFzcz0iczIiIGQ9Ik0yMCw1IDgsMTciLz48cGF0aCBjbGFzcz0iczIiIGQ9Ik0yMCwwIDcsMTMiLz48cGF0aCBjbGFzcz0iczIiIGQ9Ik0xNSwwIDcsOCIvPjxwYXRoIGNsYXNzPSJzMiIgZD0iTTEwLDAgOSwxIi8+PC9nPjxnIGlkPSJ2bWQtMiI+PHBhdGggY2xhc3M9InM3IiBkPSJtMCwwIDAsMjAgMjAsMCBDIDEwLDIwIDcsMTAgMywwIi8+PHBhdGggY2xhc3M9InMxIiBkPSJtMCwwIDMsMCBjIDQsMTAgNywyMCAxNywyMCIvPjxwYXRoIGNsYXNzPSJzMSIgZD0ibTAsMjAgMjAsMCIvPjwvZz48ZyBpZD0idm11LTIiPjxwYXRoIGNsYXNzPSJzNyIgZD0ibTAsMCAwLDIwIDMsMCBDIDcsMTAgMTAsMCAyMCwwIi8+PHBhdGggY2xhc3M9InMxIiBkPSJtMCwyMCAzLDAgQyA3LDEwIDEwLDAgMjAsMCIvPjxwYXRoIGNsYXNzPSJzMSIgZD0iTTAsMCAyMCwwIi8+PC9nPjxnIGlkPSJ2bXotMiI+PHBhdGggY2xhc3M9InM3IiBkPSJNMCwwIDMsMCBDIDEwLDEwIDE1LDEwIDIwLDEwIDE1LDEwIDEwLDEwIDMsMjAgTCAwLDIwIi8+PHBhdGggY2xhc3M9InMxIiBkPSJtMCwwIDMsMCBjIDcsMTAgMTIsMTAgMTcsMTAiLz48cGF0aCBjbGFzcz0iczEiIGQ9Im0wLDIwIDMsMCBDIDEwLDEwIDE1LDEwIDIwLDEwIi8+PC9nPjxnIGlkPSIwbXYtMyI+PHBhdGggY2xhc3M9InM4IiBkPSJNOSwwIDIwLDAgMjAsMjAgMywyMCB6Ii8+PHBhdGggY2xhc3M9InMxIiBkPSJNMywyMCA5LDAgMjAsMCIvPjxwYXRoIGNsYXNzPSJzMSIgZD0ibTAsMjAgMjAsMCIvPjwvZz48ZyBpZD0iMW12LTMiPjxwYXRoIGNsYXNzPSJzOCIgZD0iTTIuODc1LDAgMjAsMCAyMCwyMCA5LDIwIHoiLz48cGF0aCBjbGFzcz0iczEiIGQ9Im0zLDAgNiwyMCAxMSwwIi8+PHBhdGggY2xhc3M9InMxIiBkPSJNMCwwIDIwLDAiLz48L2c+PGcgaWQ9Inhtdi0zIj48cGF0aCBjbGFzcz0iczgiIGQ9Ik05LDAgMjAsMCAyMCwyMCA5LDIwIDYsMTAgeiIvPjxwYXRoIGNsYXNzPSJzMSIgZD0iTTAsMjAgMywyMCA5LDAgMjAsMCIvPjxwYXRoIGNsYXNzPSJzMSIgZD0ibTAsMCAzLDAgNiwyMCAxMSwwIi8+PHBhdGggY2xhc3M9InMyIiBkPSJNMCw1IDMuNSwxLjUiLz48cGF0aCBjbGFzcz0iczIiIGQ9Ik0wLDEwIDQuNSw1LjUiLz48cGF0aCBjbGFzcz0iczIiIGQ9Ik0wLDE1IDYsOSIvPjxwYXRoIGNsYXNzPSJzMiIgZD0iTTAsMjAgNCwxNiIvPjwvZz48ZyBpZD0iZG12LTMiPjxwYXRoIGNsYXNzPSJzOCIgZD0iTTksMCAyMCwwIDIwLDIwIDMsMjAgeiIvPjxwYXRoIGNsYXNzPSJzMSIgZD0iTTMsMjAgOSwwIDIwLDAiLz48cGF0aCBjbGFzcz0iczEiIGQ9Im0wLDIwIDIwLDAiLz48L2c+PGcgaWQ9InVtdi0zIj48cGF0aCBjbGFzcz0iczgiIGQ9Ik0zLDAgMjAsMCAyMCwyMCA5LDIwIHoiLz48cGF0aCBjbGFzcz0iczEiIGQ9Im0zLDAgNiwyMCAxMSwwIi8+PHBhdGggY2xhc3M9InMxIiBkPSJNMCwwIDIwLDAiLz48L2c+PGcgaWQ9Inptdi0zIj48cGF0aCBjbGFzcz0iczgiIGQ9Ik05LDAgMjAsMCAyMCwyMCA5LDIwIDYsMTAgeiIvPjxwYXRoIGNsYXNzPSJzMSIgZD0ibTYsMTAgMywxMCAxMSwwIi8+PHBhdGggY2xhc3M9InMxIiBkPSJNMCwxMCA2LDEwIDksMCAyMCwwIi8+PC9nPjxnIGlkPSJ2dnYtMyI+PHBhdGggY2xhc3M9InM4IiBkPSJNMjAsMjAgMCwyMCAwLDAgMjAsMCIvPjxwYXRoIGNsYXNzPSJzMSIgZD0ibTAsMjAgMjAsMCIvPjxwYXRoIGNsYXNzPSJzMSIgZD0iTTAsMCAyMCwwIi8+PC9nPjxnIGlkPSJ2bTAtMyI+PHBhdGggY2xhc3M9InM4IiBkPSJNMCwyMCAwLDAgMywwIDksMjAiLz48cGF0aCBjbGFzcz0iczEiIGQ9Ik0wLDAgMywwIDksMjAiLz48cGF0aCBjbGFzcz0iczEiIGQ9Im0wLDIwIDIwLDAiLz48L2c+PGcgaWQ9InZtMS0zIj48cGF0aCBjbGFzcz0iczgiIGQ9Ik0wLDAgMCwyMCAzLDIwIDksMCIvPjxwYXRoIGNsYXNzPSJzMSIgZD0iTTAsMCAyMCwwIi8+PHBhdGggY2xhc3M9InMxIiBkPSJNMCwyMCAzLDIwIDksMCIvPjwvZz48ZyBpZD0idm14LTMiPjxwYXRoIGNsYXNzPSJzOCIgZD0iTTAsMCAwLDIwIDMsMjAgNiwxMCAzLDAiLz48cGF0aCBjbGFzcz0iczEiIGQ9Im0wLDAgMywwIDYsMjAgMTEsMCIvPjxwYXRoIGNsYXNzPSJzMSIgZD0iTTAsMjAgMywyMCA5LDAgMjAsMCIvPjxwYXRoIGNsYXNzPSJzMiIgZD0ibTIwLDE1IC01LDUiLz48cGF0aCBjbGFzcz0iczIiIGQ9Ik0yMCwxMCAxMCwyMCIvPjxwYXRoIGNsYXNzPSJzMiIgZD0iTTIwLDUgOCwxNyIvPjxwYXRoIGNsYXNzPSJzMiIgZD0iTTIwLDAgNywxMyIvPjxwYXRoIGNsYXNzPSJzMiIgZD0iTTE1LDAgNyw4Ii8+PHBhdGggY2xhc3M9InMyIiBkPSJNMTAsMCA5LDEiLz48L2c+PGcgaWQ9InZtZC0zIj48cGF0aCBjbGFzcz0iczgiIGQ9Im0wLDAgMCwyMCAyMCwwIEMgMTAsMjAgNywxMCAzLDAiLz48cGF0aCBjbGFzcz0iczEiIGQ9Im0wLDAgMywwIGMgNCwxMCA3LDIwIDE3LDIwIi8+PHBhdGggY2xhc3M9InMxIiBkPSJtMCwyMCAyMCwwIi8+PC9nPjxnIGlkPSJ2bXUtMyI+PHBhdGggY2xhc3M9InM4IiBkPSJtMCwwIDAsMjAgMywwIEMgNywxMCAxMCwwIDIwLDAiLz48cGF0aCBjbGFzcz0iczEiIGQ9Im0wLDIwIDMsMCBDIDcsMTAgMTAsMCAyMCwwIi8+PHBhdGggY2xhc3M9InMxIiBkPSJNMCwwIDIwLDAiLz48L2c+PGcgaWQ9InZtei0zIj48cGF0aCBjbGFzcz0iczgiIGQ9Ik0wLDAgMywwIEMgMTAsMTAgMTUsMTAgMjAsMTAgMTUsMTAgMTAsMTAgMywyMCBMIDAsMjAiLz48cGF0aCBjbGFzcz0iczEiIGQ9Im0wLDAgMywwIGMgNywxMCAxMiwxMCAxNywxMCIvPjxwYXRoIGNsYXNzPSJzMSIgZD0ibTAsMjAgMywwIEMgMTAsMTAgMTUsMTAgMjAsMTAiLz48L2c+PGcgaWQ9IjBtdi00Ij48cGF0aCBjbGFzcz0iczkiIGQ9Ik05LDAgMjAsMCAyMCwyMCAzLDIwIHoiLz48cGF0aCBjbGFzcz0iczEiIGQ9Ik0zLDIwIDksMCAyMCwwIi8+PHBhdGggY2xhc3M9InMxIiBkPSJtMCwyMCAyMCwwIi8+PC9nPjxnIGlkPSIxbXYtNCI+PHBhdGggY2xhc3M9InM5IiBkPSJNMi44NzUsMCAyMCwwIDIwLDIwIDksMjAgeiIvPjxwYXRoIGNsYXNzPSJzMSIgZD0ibTMsMCA2LDIwIDExLDAiLz48cGF0aCBjbGFzcz0iczEiIGQ9Ik0wLDAgMjAsMCIvPjwvZz48ZyBpZD0ieG12LTQiPjxwYXRoIGNsYXNzPSJzOSIgZD0iTTksMCAyMCwwIDIwLDIwIDksMjAgNiwxMCB6Ii8+PHBhdGggY2xhc3M9InMxIiBkPSJNMCwyMCAzLDIwIDksMCAyMCwwIi8+PHBhdGggY2xhc3M9InMxIiBkPSJtMCwwIDMsMCA2LDIwIDExLDAiLz48cGF0aCBjbGFzcz0iczIiIGQ9Ik0wLDUgMy41LDEuNSIvPjxwYXRoIGNsYXNzPSJzMiIgZD0iTTAsMTAgNC41LDUuNSIvPjxwYXRoIGNsYXNzPSJzMiIgZD0iTTAsMTUgNiw5Ii8+PHBhdGggY2xhc3M9InMyIiBkPSJNMCwyMCA0LDE2Ii8+PC9nPjxnIGlkPSJkbXYtNCI+PHBhdGggY2xhc3M9InM5IiBkPSJNOSwwIDIwLDAgMjAsMjAgMywyMCB6Ii8+PHBhdGggY2xhc3M9InMxIiBkPSJNMywyMCA5LDAgMjAsMCIvPjxwYXRoIGNsYXNzPSJzMSIgZD0ibTAsMjAgMjAsMCIvPjwvZz48ZyBpZD0idW12LTQiPjxwYXRoIGNsYXNzPSJzOSIgZD0iTTMsMCAyMCwwIDIwLDIwIDksMjAgeiIvPjxwYXRoIGNsYXNzPSJzMSIgZD0ibTMsMCA2LDIwIDExLDAiLz48cGF0aCBjbGFzcz0iczEiIGQ9Ik0wLDAgMjAsMCIvPjwvZz48ZyBpZD0iem12LTQiPjxwYXRoIGNsYXNzPSJzOSIgZD0iTTksMCAyMCwwIDIwLDIwIDksMjAgNiwxMCB6Ii8+PHBhdGggY2xhc3M9InMxIiBkPSJtNiwxMCAzLDEwIDExLDAiLz48cGF0aCBjbGFzcz0iczEiIGQ9Ik0wLDEwIDYsMTAgOSwwIDIwLDAiLz48L2c+PGcgaWQ9InZ2di00Ij48cGF0aCBjbGFzcz0iczkiIGQ9Ik0yMCwyMCAwLDIwIDAsMCAyMCwwIi8+PHBhdGggY2xhc3M9InMxIiBkPSJtMCwyMCAyMCwwIi8+PHBhdGggY2xhc3M9InMxIiBkPSJNMCwwIDIwLDAiLz48L2c+PGcgaWQ9InZtMC00Ij48cGF0aCBjbGFzcz0iczkiIGQ9Ik0wLDIwIDAsMCAzLDAgOSwyMCIvPjxwYXRoIGNsYXNzPSJzMSIgZD0iTTAsMCAzLDAgOSwyMCIvPjxwYXRoIGNsYXNzPSJzMSIgZD0ibTAsMjAgMjAsMCIvPjwvZz48ZyBpZD0idm0xLTQiPjxwYXRoIGNsYXNzPSJzOSIgZD0iTTAsMCAwLDIwIDMsMjAgOSwwIi8+PHBhdGggY2xhc3M9InMxIiBkPSJNMCwwIDIwLDAiLz48cGF0aCBjbGFzcz0iczEiIGQ9Ik0wLDIwIDMsMjAgOSwwIi8+PC9nPjxnIGlkPSJ2bXgtNCI+PHBhdGggY2xhc3M9InM5IiBkPSJNMCwwIDAsMjAgMywyMCA2LDEwIDMsMCIvPjxwYXRoIGNsYXNzPSJzMSIgZD0ibTAsMCAzLDAgNiwyMCAxMSwwIi8+PHBhdGggY2xhc3M9InMxIiBkPSJNMCwyMCAzLDIwIDksMCAyMCwwIi8+PHBhdGggY2xhc3M9InMyIiBkPSJtMjAsMTUgLTUsNSIvPjxwYXRoIGNsYXNzPSJzMiIgZD0iTTIwLDEwIDEwLDIwIi8+PHBhdGggY2xhc3M9InMyIiBkPSJNMjAsNSA4LDE3Ii8+PHBhdGggY2xhc3M9InMyIiBkPSJNMjAsMCA3LDEzIi8+PHBhdGggY2xhc3M9InMyIiBkPSJNMTUsMCA3LDgiLz48cGF0aCBjbGFzcz0iczIiIGQ9Ik0xMCwwIDksMSIvPjwvZz48ZyBpZD0idm1kLTQiPjxwYXRoIGNsYXNzPSJzOSIgZD0ibTAsMCAwLDIwIDIwLDAgQyAxMCwyMCA3LDEwIDMsMCIvPjxwYXRoIGNsYXNzPSJzMSIgZD0ibTAsMCAzLDAgYyA0LDEwIDcsMjAgMTcsMjAiLz48cGF0aCBjbGFzcz0iczEiIGQ9Im0wLDIwIDIwLDAiLz48L2c+PGcgaWQ9InZtdS00Ij48cGF0aCBjbGFzcz0iczkiIGQ9Im0wLDAgMCwyMCAzLDAgQyA3LDEwIDEwLDAgMjAsMCIvPjxwYXRoIGNsYXNzPSJzMSIgZD0ibTAsMjAgMywwIEMgNywxMCAxMCwwIDIwLDAiLz48cGF0aCBjbGFzcz0iczEiIGQ9Ik0wLDAgMjAsMCIvPjwvZz48ZyBpZD0idm16LTQiPjxwYXRoIGNsYXNzPSJzOSIgZD0iTTAsMCAzLDAgQyAxMCwxMCAxNSwxMCAyMCwxMCAxNSwxMCAxMCwxMCAzLDIwIEwgMCwyMCIvPjxwYXRoIGNsYXNzPSJzMSIgZD0ibTAsMCAzLDAgYyA3LDEwIDEyLDEwIDE3LDEwIi8+PHBhdGggY2xhc3M9InMxIiBkPSJtMCwyMCAzLDAgQyAxMCwxMCAxNSwxMCAyMCwxMCIvPjwvZz48ZyBpZD0iMG12LTUiPjxwYXRoIGNsYXNzPSJzMTAiIGQ9Ik05LDAgMjAsMCAyMCwyMCAzLDIwIHoiLz48cGF0aCBjbGFzcz0iczEiIGQ9Ik0zLDIwIDksMCAyMCwwIi8+PHBhdGggY2xhc3M9InMxIiBkPSJtMCwyMCAyMCwwIi8+PC9nPjxnIGlkPSIxbXYtNSI+PHBhdGggY2xhc3M9InMxMCIgZD0iTTIuODc1LDAgMjAsMCAyMCwyMCA5LDIwIHoiLz48cGF0aCBjbGFzcz0iczEiIGQ9Im0zLDAgNiwyMCAxMSwwIi8+PHBhdGggY2xhc3M9InMxIiBkPSJNMCwwIDIwLDAiLz48L2c+PGcgaWQ9Inhtdi01Ij48cGF0aCBjbGFzcz0iczEwIiBkPSJNOSwwIDIwLDAgMjAsMjAgOSwyMCA2LDEwIHoiLz48cGF0aCBjbGFzcz0iczEiIGQ9Ik0wLDIwIDMsMjAgOSwwIDIwLDAiLz48cGF0aCBjbGFzcz0iczEiIGQ9Im0wLDAgMywwIDYsMjAgMTEsMCIvPjxwYXRoIGNsYXNzPSJzMiIgZD0iTTAsNSAzLjUsMS41Ii8+PHBhdGggY2xhc3M9InMyIiBkPSJNMCwxMCA0LjUsNS41Ii8+PHBhdGggY2xhc3M9InMyIiBkPSJNMCwxNSA2LDkiLz48cGF0aCBjbGFzcz0iczIiIGQ9Ik0wLDIwIDQsMTYiLz48L2c+PGcgaWQ9ImRtdi01Ij48cGF0aCBjbGFzcz0iczEwIiBkPSJNOSwwIDIwLDAgMjAsMjAgMywyMCB6Ii8+PHBhdGggY2xhc3M9InMxIiBkPSJNMywyMCA5LDAgMjAsMCIvPjxwYXRoIGNsYXNzPSJzMSIgZD0ibTAsMjAgMjAsMCIvPjwvZz48ZyBpZD0idW12LTUiPjxwYXRoIGNsYXNzPSJzMTAiIGQ9Ik0zLDAgMjAsMCAyMCwyMCA5LDIwIHoiLz48cGF0aCBjbGFzcz0iczEiIGQ9Im0zLDAgNiwyMCAxMSwwIi8+PHBhdGggY2xhc3M9InMxIiBkPSJNMCwwIDIwLDAiLz48L2c+PGcgaWQ9Inptdi01Ij48cGF0aCBjbGFzcz0iczEwIiBkPSJNOSwwIDIwLDAgMjAsMjAgOSwyMCA2LDEwIHoiLz48cGF0aCBjbGFzcz0iczEiIGQ9Im02LDEwIDMsMTAgMTEsMCIvPjxwYXRoIGNsYXNzPSJzMSIgZD0iTTAsMTAgNiwxMCA5LDAgMjAsMCIvPjwvZz48ZyBpZD0idnZ2LTUiPjxwYXRoIGNsYXNzPSJzMTAiIGQ9Ik0yMCwyMCAwLDIwIDAsMCAyMCwwIi8+PHBhdGggY2xhc3M9InMxIiBkPSJtMCwyMCAyMCwwIi8+PHBhdGggY2xhc3M9InMxIiBkPSJNMCwwIDIwLDAiLz48L2c+PGcgaWQ9InZtMC01Ij48cGF0aCBjbGFzcz0iczEwIiBkPSJNMCwyMCAwLDAgMywwIDksMjAiLz48cGF0aCBjbGFzcz0iczEiIGQ9Ik0wLDAgMywwIDksMjAiLz48cGF0aCBjbGFzcz0iczEiIGQ9Im0wLDIwIDIwLDAiLz48L2c+PGcgaWQ9InZtMS01Ij48cGF0aCBjbGFzcz0iczEwIiBkPSJNMCwwIDAsMjAgMywyMCA5LDAiLz48cGF0aCBjbGFzcz0iczEiIGQ9Ik0wLDAgMjAsMCIvPjxwYXRoIGNsYXNzPSJzMSIgZD0iTTAsMjAgMywyMCA5LDAiLz48L2c+PGcgaWQ9InZteC01Ij48cGF0aCBjbGFzcz0iczEwIiBkPSJNMCwwIDAsMjAgMywyMCA2LDEwIDMsMCIvPjxwYXRoIGNsYXNzPSJzMSIgZD0ibTAsMCAzLDAgNiwyMCAxMSwwIi8+PHBhdGggY2xhc3M9InMxIiBkPSJNMCwyMCAzLDIwIDksMCAyMCwwIi8+PHBhdGggY2xhc3M9InMyIiBkPSJtMjAsMTUgLTUsNSIvPjxwYXRoIGNsYXNzPSJzMiIgZD0iTTIwLDEwIDEwLDIwIi8+PHBhdGggY2xhc3M9InMyIiBkPSJNMjAsNSA4LDE3Ii8+PHBhdGggY2xhc3M9InMyIiBkPSJNMjAsMCA3LDEzIi8+PHBhdGggY2xhc3M9InMyIiBkPSJNMTUsMCA3LDgiLz48cGF0aCBjbGFzcz0iczIiIGQ9Ik0xMCwwIDksMSIvPjwvZz48ZyBpZD0idm1kLTUiPjxwYXRoIGNsYXNzPSJzMTAiIGQ9Im0wLDAgMCwyMCAyMCwwIEMgMTAsMjAgNywxMCAzLDAiLz48cGF0aCBjbGFzcz0iczEiIGQ9Im0wLDAgMywwIGMgNCwxMCA3LDIwIDE3LDIwIi8+PHBhdGggY2xhc3M9InMxIiBkPSJtMCwyMCAyMCwwIi8+PC9nPjxnIGlkPSJ2bXUtNSI+PHBhdGggY2xhc3M9InMxMCIgZD0ibTAsMCAwLDIwIDMsMCBDIDcsMTAgMTAsMCAyMCwwIi8+PHBhdGggY2xhc3M9InMxIiBkPSJtMCwyMCAzLDAgQyA3LDEwIDEwLDAgMjAsMCIvPjxwYXRoIGNsYXNzPSJzMSIgZD0iTTAsMCAyMCwwIi8+PC9nPjxnIGlkPSJ2bXotNSI+PHBhdGggY2xhc3M9InMxMCIgZD0iTTAsMCAzLDAgQyAxMCwxMCAxNSwxMCAyMCwxMCAxNSwxMCAxMCwxMCAzLDIwIEwgMCwyMCIvPjxwYXRoIGNsYXNzPSJzMSIgZD0ibTAsMCAzLDAgYyA3LDEwIDEyLDEwIDE3LDEwIi8+PHBhdGggY2xhc3M9InMxIiBkPSJtMCwyMCAzLDAgQyAxMCwxMCAxNSwxMCAyMCwxMCIvPjwvZz48ZyBpZD0iMG12LTYiPjxwYXRoIGNsYXNzPSJzMTEiIGQ9Ik05LDAgMjAsMCAyMCwyMCAzLDIwIHoiLz48cGF0aCBjbGFzcz0iczEiIGQ9Ik0zLDIwIDksMCAyMCwwIi8+PHBhdGggY2xhc3M9InMxIiBkPSJtMCwyMCAyMCwwIi8+PC9nPjxnIGlkPSIxbXYtNiI+PHBhdGggY2xhc3M9InMxMSIgZD0iTTIuODc1LDAgMjAsMCAyMCwyMCA5LDIwIHoiLz48cGF0aCBjbGFzcz0iczEiIGQ9Im0zLDAgNiwyMCAxMSwwIi8+PHBhdGggY2xhc3M9InMxIiBkPSJNMCwwIDIwLDAiLz48L2c+PGcgaWQ9Inhtdi02Ij48cGF0aCBjbGFzcz0iczExIiBkPSJNOSwwIDIwLDAgMjAsMjAgOSwyMCA2LDEwIHoiLz48cGF0aCBjbGFzcz0iczEiIGQ9Ik0wLDIwIDMsMjAgOSwwIDIwLDAiLz48cGF0aCBjbGFzcz0iczEiIGQ9Im0wLDAgMywwIDYsMjAgMTEsMCIvPjxwYXRoIGNsYXNzPSJzMiIgZD0iTTAsNSAzLjUsMS41Ii8+PHBhdGggY2xhc3M9InMyIiBkPSJNMCwxMCA0LjUsNS41Ii8+PHBhdGggY2xhc3M9InMyIiBkPSJNMCwxNSA2LDkiLz48cGF0aCBjbGFzcz0iczIiIGQ9Ik0wLDIwIDQsMTYiLz48L2c+PGcgaWQ9ImRtdi02Ij48cGF0aCBjbGFzcz0iczExIiBkPSJNOSwwIDIwLDAgMjAsMjAgMywyMCB6Ii8+PHBhdGggY2xhc3M9InMxIiBkPSJNMywyMCA5LDAgMjAsMCIvPjxwYXRoIGNsYXNzPSJzMSIgZD0ibTAsMjAgMjAsMCIvPjwvZz48ZyBpZD0idW12LTYiPjxwYXRoIGNsYXNzPSJzMTEiIGQ9Ik0zLDAgMjAsMCAyMCwyMCA5LDIwIHoiLz48cGF0aCBjbGFzcz0iczEiIGQ9Im0zLDAgNiwyMCAxMSwwIi8+PHBhdGggY2xhc3M9InMxIiBkPSJNMCwwIDIwLDAiLz48L2c+PGcgaWQ9Inptdi02Ij48cGF0aCBjbGFzcz0iczExIiBkPSJNOSwwIDIwLDAgMjAsMjAgOSwyMCA2LDEwIHoiLz48cGF0aCBjbGFzcz0iczEiIGQ9Im02LDEwIDMsMTAgMTEsMCIvPjxwYXRoIGNsYXNzPSJzMSIgZD0iTTAsMTAgNiwxMCA5LDAgMjAsMCIvPjwvZz48ZyBpZD0idnZ2LTYiPjxwYXRoIGNsYXNzPSJzMTEiIGQ9Ik0yMCwyMCAwLDIwIDAsMCAyMCwwIi8+PHBhdGggY2xhc3M9InMxIiBkPSJtMCwyMCAyMCwwIi8+PHBhdGggY2xhc3M9InMxIiBkPSJNMCwwIDIwLDAiLz48L2c+PGcgaWQ9InZtMC02Ij48cGF0aCBjbGFzcz0iczExIiBkPSJNMCwyMCAwLDAgMywwIDksMjAiLz48cGF0aCBjbGFzcz0iczEiIGQ9Ik0wLDAgMywwIDksMjAiLz48cGF0aCBjbGFzcz0iczEiIGQ9Im0wLDIwIDIwLDAiLz48L2c+PGcgaWQ9InZtMS02Ij48cGF0aCBjbGFzcz0iczExIiBkPSJNMCwwIDAsMjAgMywyMCA5LDAiLz48cGF0aCBjbGFzcz0iczEiIGQ9Ik0wLDAgMjAsMCIvPjxwYXRoIGNsYXNzPSJzMSIgZD0iTTAsMjAgMywyMCA5LDAiLz48L2c+PGcgaWQ9InZteC02Ij48cGF0aCBjbGFzcz0iczExIiBkPSJNMCwwIDAsMjAgMywyMCA2LDEwIDMsMCIvPjxwYXRoIGNsYXNzPSJzMSIgZD0ibTAsMCAzLDAgNiwyMCAxMSwwIi8+PHBhdGggY2xhc3M9InMxIiBkPSJNMCwyMCAzLDIwIDksMCAyMCwwIi8+PHBhdGggY2xhc3M9InMyIiBkPSJtMjAsMTUgLTUsNSIvPjxwYXRoIGNsYXNzPSJzMiIgZD0iTTIwLDEwIDEwLDIwIi8+PHBhdGggY2xhc3M9InMyIiBkPSJNMjAsNSA4LDE3Ii8+PHBhdGggY2xhc3M9InMyIiBkPSJNMjAsMCA3LDEzIi8+PHBhdGggY2xhc3M9InMyIiBkPSJNMTUsMCA3LDgiLz48cGF0aCBjbGFzcz0iczIiIGQ9Ik0xMCwwIDksMSIvPjwvZz48ZyBpZD0idm1kLTYiPjxwYXRoIGNsYXNzPSJzMTEiIGQ9Im0wLDAgMCwyMCAyMCwwIEMgMTAsMjAgNywxMCAzLDAiLz48cGF0aCBjbGFzcz0iczEiIGQ9Im0wLDAgMywwIGMgNCwxMCA3LDIwIDE3LDIwIi8+PHBhdGggY2xhc3M9InMxIiBkPSJtMCwyMCAyMCwwIi8+PC9nPjxnIGlkPSJ2bXUtNiI+PHBhdGggY2xhc3M9InMxMSIgZD0ibTAsMCAwLDIwIDMsMCBDIDcsMTAgMTAsMCAyMCwwIi8+PHBhdGggY2xhc3M9InMxIiBkPSJtMCwyMCAzLDAgQyA3LDEwIDEwLDAgMjAsMCIvPjxwYXRoIGNsYXNzPSJzMSIgZD0iTTAsMCAyMCwwIi8+PC9nPjxnIGlkPSJ2bXotNiI+PHBhdGggY2xhc3M9InMxMSIgZD0iTTAsMCAzLDAgQyAxMCwxMCAxNSwxMCAyMCwxMCAxNSwxMCAxMCwxMCAzLDIwIEwgMCwyMCIvPjxwYXRoIGNsYXNzPSJzMSIgZD0ibTAsMCAzLDAgYyA3LDEwIDEyLDEwIDE3LDEwIi8+PHBhdGggY2xhc3M9InMxIiBkPSJtMCwyMCAzLDAgQyAxMCwxMCAxNSwxMCAyMCwxMCIvPjwvZz48ZyBpZD0iMG12LTciPjxwYXRoIGNsYXNzPSJzMTIiIGQ9Ik05LDAgMjAsMCAyMCwyMCAzLDIwIHoiLz48cGF0aCBjbGFzcz0iczEiIGQ9Ik0zLDIwIDksMCAyMCwwIi8+PHBhdGggY2xhc3M9InMxIiBkPSJtMCwyMCAyMCwwIi8+PC9nPjxnIGlkPSIxbXYtNyI+PHBhdGggY2xhc3M9InMxMiIgZD0iTTIuODc1LDAgMjAsMCAyMCwyMCA5LDIwIHoiLz48cGF0aCBjbGFzcz0iczEiIGQ9Im0zLDAgNiwyMCAxMSwwIi8+PHBhdGggY2xhc3M9InMxIiBkPSJNMCwwIDIwLDAiLz48L2c+PGcgaWQ9Inhtdi03Ij48cGF0aCBjbGFzcz0iczEyIiBkPSJNOSwwIDIwLDAgMjAsMjAgOSwyMCA2LDEwIHoiLz48cGF0aCBjbGFzcz0iczEiIGQ9Ik0wLDIwIDMsMjAgOSwwIDIwLDAiLz48cGF0aCBjbGFzcz0iczEiIGQ9Im0wLDAgMywwIDYsMjAgMTEsMCIvPjxwYXRoIGNsYXNzPSJzMiIgZD0iTTAsNSAzLjUsMS41Ii8+PHBhdGggY2xhc3M9InMyIiBkPSJNMCwxMCA0LjUsNS41Ii8+PHBhdGggY2xhc3M9InMyIiBkPSJNMCwxNSA2LDkiLz48cGF0aCBjbGFzcz0iczIiIGQ9Ik0wLDIwIDQsMTYiLz48L2c+PGcgaWQ9ImRtdi03Ij48cGF0aCBjbGFzcz0iczEyIiBkPSJNOSwwIDIwLDAgMjAsMjAgMywyMCB6Ii8+PHBhdGggY2xhc3M9InMxIiBkPSJNMywyMCA5LDAgMjAsMCIvPjxwYXRoIGNsYXNzPSJzMSIgZD0ibTAsMjAgMjAsMCIvPjwvZz48ZyBpZD0idW12LTciPjxwYXRoIGNsYXNzPSJzMTIiIGQ9Ik0zLDAgMjAsMCAyMCwyMCA5LDIwIHoiLz48cGF0aCBjbGFzcz0iczEiIGQ9Im0zLDAgNiwyMCAxMSwwIi8+PHBhdGggY2xhc3M9InMxIiBkPSJNMCwwIDIwLDAiLz48L2c+PGcgaWQ9Inptdi03Ij48cGF0aCBjbGFzcz0iczEyIiBkPSJNOSwwIDIwLDAgMjAsMjAgOSwyMCA2LDEwIHoiLz48cGF0aCBjbGFzcz0iczEiIGQ9Im02LDEwIDMsMTAgMTEsMCIvPjxwYXRoIGNsYXNzPSJzMSIgZD0iTTAsMTAgNiwxMCA5LDAgMjAsMCIvPjwvZz48ZyBpZD0idnZ2LTciPjxwYXRoIGNsYXNzPSJzMTIiIGQ9Ik0yMCwyMCAwLDIwIDAsMCAyMCwwIi8+PHBhdGggY2xhc3M9InMxIiBkPSJtMCwyMCAyMCwwIi8+PHBhdGggY2xhc3M9InMxIiBkPSJNMCwwIDIwLDAiLz48L2c+PGcgaWQ9InZtMC03Ij48cGF0aCBjbGFzcz0iczEyIiBkPSJNMCwyMCAwLDAgMywwIDksMjAiLz48cGF0aCBjbGFzcz0iczEiIGQ9Ik0wLDAgMywwIDksMjAiLz48cGF0aCBjbGFzcz0iczEiIGQ9Im0wLDIwIDIwLDAiLz48L2c+PGcgaWQ9InZtMS03Ij48cGF0aCBjbGFzcz0iczEyIiBkPSJNMCwwIDAsMjAgMywyMCA5LDAiLz48cGF0aCBjbGFzcz0iczEiIGQ9Ik0wLDAgMjAsMCIvPjxwYXRoIGNsYXNzPSJzMSIgZD0iTTAsMjAgMywyMCA5LDAiLz48L2c+PGcgaWQ9InZteC03Ij48cGF0aCBjbGFzcz0iczEyIiBkPSJNMCwwIDAsMjAgMywyMCA2LDEwIDMsMCIvPjxwYXRoIGNsYXNzPSJzMSIgZD0ibTAsMCAzLDAgNiwyMCAxMSwwIi8+PHBhdGggY2xhc3M9InMxIiBkPSJNMCwyMCAzLDIwIDksMCAyMCwwIi8+PHBhdGggY2xhc3M9InMyIiBkPSJtMjAsMTUgLTUsNSIvPjxwYXRoIGNsYXNzPSJzMiIgZD0iTTIwLDEwIDEwLDIwIi8+PHBhdGggY2xhc3M9InMyIiBkPSJNMjAsNSA4LDE3Ii8+PHBhdGggY2xhc3M9InMyIiBkPSJNMjAsMCA3LDEzIi8+PHBhdGggY2xhc3M9InMyIiBkPSJNMTUsMCA3LDgiLz48cGF0aCBjbGFzcz0iczIiIGQ9Ik0xMCwwIDksMSIvPjwvZz48ZyBpZD0idm1kLTciPjxwYXRoIGNsYXNzPSJzMTIiIGQ9Im0wLDAgMCwyMCAyMCwwIEMgMTAsMjAgNywxMCAzLDAiLz48cGF0aCBjbGFzcz0iczEiIGQ9Im0wLDAgMywwIGMgNCwxMCA3LDIwIDE3LDIwIi8+PHBhdGggY2xhc3M9InMxIiBkPSJtMCwyMCAyMCwwIi8+PC9nPjxnIGlkPSJ2bXUtNyI+PHBhdGggY2xhc3M9InMxMiIgZD0ibTAsMCAwLDIwIDMsMCBDIDcsMTAgMTAsMCAyMCwwIi8+PHBhdGggY2xhc3M9InMxIiBkPSJtMCwyMCAzLDAgQyA3LDEwIDEwLDAgMjAsMCIvPjxwYXRoIGNsYXNzPSJzMSIgZD0iTTAsMCAyMCwwIi8+PC9nPjxnIGlkPSJ2bXotNyI+PHBhdGggY2xhc3M9InMxMiIgZD0iTTAsMCAzLDAgQyAxMCwxMCAxNSwxMCAyMCwxMCAxNSwxMCAxMCwxMCAzLDIwIEwgMCwyMCIvPjxwYXRoIGNsYXNzPSJzMSIgZD0ibTAsMCAzLDAgYyA3LDEwIDEyLDEwIDE3LDEwIi8+PHBhdGggY2xhc3M9InMxIiBkPSJtMCwyMCAzLDAgQyAxMCwxMCAxNSwxMCAyMCwxMCIvPjwvZz48ZyBpZD0iMG12LTgiPjxwYXRoIGNsYXNzPSJzMTMiIGQ9Ik05LDAgMjAsMCAyMCwyMCAzLDIwIHoiLz48cGF0aCBjbGFzcz0iczEiIGQ9Ik0zLDIwIDksMCAyMCwwIi8+PHBhdGggY2xhc3M9InMxIiBkPSJtMCwyMCAyMCwwIi8+PC9nPjxnIGlkPSIxbXYtOCI+PHBhdGggY2xhc3M9InMxMyIgZD0iTTIuODc1LDAgMjAsMCAyMCwyMCA5LDIwIHoiLz48cGF0aCBjbGFzcz0iczEiIGQ9Im0zLDAgNiwyMCAxMSwwIi8+PHBhdGggY2xhc3M9InMxIiBkPSJNMCwwIDIwLDAiLz48L2c+PGcgaWQ9Inhtdi04Ij48cGF0aCBjbGFzcz0iczEzIiBkPSJNOSwwIDIwLDAgMjAsMjAgOSwyMCA2LDEwIHoiLz48cGF0aCBjbGFzcz0iczEiIGQ9Ik0wLDIwIDMsMjAgOSwwIDIwLDAiLz48cGF0aCBjbGFzcz0iczEiIGQ9Im0wLDAgMywwIDYsMjAgMTEsMCIvPjxwYXRoIGNsYXNzPSJzMiIgZD0iTTAsNSAzLjUsMS41Ii8+PHBhdGggY2xhc3M9InMyIiBkPSJNMCwxMCA0LjUsNS41Ii8+PHBhdGggY2xhc3M9InMyIiBkPSJNMCwxNSA2LDkiLz48cGF0aCBjbGFzcz0iczIiIGQ9Ik0wLDIwIDQsMTYiLz48L2c+PGcgaWQ9ImRtdi04Ij48cGF0aCBjbGFzcz0iczEzIiBkPSJNOSwwIDIwLDAgMjAsMjAgMywyMCB6Ii8+PHBhdGggY2xhc3M9InMxIiBkPSJNMywyMCA5LDAgMjAsMCIvPjxwYXRoIGNsYXNzPSJzMSIgZD0ibTAsMjAgMjAsMCIvPjwvZz48ZyBpZD0idW12LTgiPjxwYXRoIGNsYXNzPSJzMTMiIGQ9Ik0zLDAgMjAsMCAyMCwyMCA5LDIwIHoiLz48cGF0aCBjbGFzcz0iczEiIGQ9Im0zLDAgNiwyMCAxMSwwIi8+PHBhdGggY2xhc3M9InMxIiBkPSJNMCwwIDIwLDAiLz48L2c+PGcgaWQ9Inptdi04Ij48cGF0aCBjbGFzcz0iczEzIiBkPSJNOSwwIDIwLDAgMjAsMjAgOSwyMCA2LDEwIHoiLz48cGF0aCBjbGFzcz0iczEiIGQ9Im02LDEwIDMsMTAgMTEsMCIvPjxwYXRoIGNsYXNzPSJzMSIgZD0iTTAsMTAgNiwxMCA5LDAgMjAsMCIvPjwvZz48ZyBpZD0idnZ2LTgiPjxwYXRoIGNsYXNzPSJzMTMiIGQ9Ik0yMCwyMCAwLDIwIDAsMCAyMCwwIi8+PHBhdGggY2xhc3M9InMxIiBkPSJtMCwyMCAyMCwwIi8+PHBhdGggY2xhc3M9InMxIiBkPSJNMCwwIDIwLDAiLz48L2c+PGcgaWQ9InZtMC04Ij48cGF0aCBjbGFzcz0iczEzIiBkPSJNMCwyMCAwLDAgMywwIDksMjAiLz48cGF0aCBjbGFzcz0iczEiIGQ9Ik0wLDAgMywwIDksMjAiLz48cGF0aCBjbGFzcz0iczEiIGQ9Im0wLDIwIDIwLDAiLz48L2c+PGcgaWQ9InZtMS04Ij48cGF0aCBjbGFzcz0iczEzIiBkPSJNMCwwIDAsMjAgMywyMCA5LDAiLz48cGF0aCBjbGFzcz0iczEiIGQ9Ik0wLDAgMjAsMCIvPjxwYXRoIGNsYXNzPSJzMSIgZD0iTTAsMjAgMywyMCA5LDAiLz48L2c+PGcgaWQ9InZteC04Ij48cGF0aCBjbGFzcz0iczEzIiBkPSJNMCwwIDAsMjAgMywyMCA2LDEwIDMsMCIvPjxwYXRoIGNsYXNzPSJzMSIgZD0ibTAsMCAzLDAgNiwyMCAxMSwwIi8+PHBhdGggY2xhc3M9InMxIiBkPSJNMCwyMCAzLDIwIDksMCAyMCwwIi8+PHBhdGggY2xhc3M9InMyIiBkPSJtMjAsMTUgLTUsNSIvPjxwYXRoIGNsYXNzPSJzMiIgZD0iTTIwLDEwIDEwLDIwIi8+PHBhdGggY2xhc3M9InMyIiBkPSJNMjAsNSA4LDE3Ii8+PHBhdGggY2xhc3M9InMyIiBkPSJNMjAsMCA3LDEzIi8+PHBhdGggY2xhc3M9InMyIiBkPSJNMTUsMCA3LDgiLz48cGF0aCBjbGFzcz0iczIiIGQ9Ik0xMCwwIDksMSIvPjwvZz48ZyBpZD0idm1kLTgiPjxwYXRoIGNsYXNzPSJzMTMiIGQ9Im0wLDAgMCwyMCAyMCwwIEMgMTAsMjAgNywxMCAzLDAiLz48cGF0aCBjbGFzcz0iczEiIGQ9Im0wLDAgMywwIGMgNCwxMCA3LDIwIDE3LDIwIi8+PHBhdGggY2xhc3M9InMxIiBkPSJtMCwyMCAyMCwwIi8+PC9nPjxnIGlkPSJ2bXUtOCI+PHBhdGggY2xhc3M9InMxMyIgZD0ibTAsMCAwLDIwIDMsMCBDIDcsMTAgMTAsMCAyMCwwIi8+PHBhdGggY2xhc3M9InMxIiBkPSJtMCwyMCAzLDAgQyA3LDEwIDEwLDAgMjAsMCIvPjxwYXRoIGNsYXNzPSJzMSIgZD0iTTAsMCAyMCwwIi8+PC9nPjxnIGlkPSJ2bXotOCI+PHBhdGggY2xhc3M9InMxMyIgZD0iTTAsMCAzLDAgQyAxMCwxMCAxNSwxMCAyMCwxMCAxNSwxMCAxMCwxMCAzLDIwIEwgMCwyMCIvPjxwYXRoIGNsYXNzPSJzMSIgZD0ibTAsMCAzLDAgYyA3LDEwIDEyLDEwIDE3LDEwIi8+PHBhdGggY2xhc3M9InMxIiBkPSJtMCwyMCAzLDAgQyAxMCwxMCAxNSwxMCAyMCwxMCIvPjwvZz48ZyBpZD0iMG12LTkiPjxwYXRoIGNsYXNzPSJzMTQiIGQ9Ik05LDAgMjAsMCAyMCwyMCAzLDIwIHoiLz48cGF0aCBjbGFzcz0iczEiIGQ9Ik0zLDIwIDksMCAyMCwwIi8+PHBhdGggY2xhc3M9InMxIiBkPSJtMCwyMCAyMCwwIi8+PC9nPjxnIGlkPSIxbXYtOSI+PHBhdGggY2xhc3M9InMxNCIgZD0iTTIuODc1LDAgMjAsMCAyMCwyMCA5LDIwIHoiLz48cGF0aCBjbGFzcz0iczEiIGQ9Im0zLDAgNiwyMCAxMSwwIi8+PHBhdGggY2xhc3M9InMxIiBkPSJNMCwwIDIwLDAiLz48L2c+PGcgaWQ9Inhtdi05Ij48cGF0aCBjbGFzcz0iczE0IiBkPSJNOSwwIDIwLDAgMjAsMjAgOSwyMCA2LDEwIHoiLz48cGF0aCBjbGFzcz0iczEiIGQ9Ik0wLDIwIDMsMjAgOSwwIDIwLDAiLz48cGF0aCBjbGFzcz0iczEiIGQ9Im0wLDAgMywwIDYsMjAgMTEsMCIvPjxwYXRoIGNsYXNzPSJzMiIgZD0iTTAsNSAzLjUsMS41Ii8+PHBhdGggY2xhc3M9InMyIiBkPSJNMCwxMCA0LjUsNS41Ii8+PHBhdGggY2xhc3M9InMyIiBkPSJNMCwxNSA2LDkiLz48cGF0aCBjbGFzcz0iczIiIGQ9Ik0wLDIwIDQsMTYiLz48L2c+PGcgaWQ9ImRtdi05Ij48cGF0aCBjbGFzcz0iczE0IiBkPSJNOSwwIDIwLDAgMjAsMjAgMywyMCB6Ii8+PHBhdGggY2xhc3M9InMxIiBkPSJNMywyMCA5LDAgMjAsMCIvPjxwYXRoIGNsYXNzPSJzMSIgZD0ibTAsMjAgMjAsMCIvPjwvZz48ZyBpZD0idW12LTkiPjxwYXRoIGNsYXNzPSJzMTQiIGQ9Ik0zLDAgMjAsMCAyMCwyMCA5LDIwIHoiLz48cGF0aCBjbGFzcz0iczEiIGQ9Im0zLDAgNiwyMCAxMSwwIi8+PHBhdGggY2xhc3M9InMxIiBkPSJNMCwwIDIwLDAiLz48L2c+PGcgaWQ9Inptdi05Ij48cGF0aCBjbGFzcz0iczE0IiBkPSJNOSwwIDIwLDAgMjAsMjAgOSwyMCA2LDEwIHoiLz48cGF0aCBjbGFzcz0iczEiIGQ9Im02LDEwIDMsMTAgMTEsMCIvPjxwYXRoIGNsYXNzPSJzMSIgZD0iTTAsMTAgNiwxMCA5LDAgMjAsMCIvPjwvZz48ZyBpZD0idnZ2LTkiPjxwYXRoIGNsYXNzPSJzMTQiIGQ9Ik0yMCwyMCAwLDIwIDAsMCAyMCwwIi8+PHBhdGggY2xhc3M9InMxIiBkPSJtMCwyMCAyMCwwIi8+PHBhdGggY2xhc3M9InMxIiBkPSJNMCwwIDIwLDAiLz48L2c+PGcgaWQ9InZtMC05Ij48cGF0aCBjbGFzcz0iczE0IiBkPSJNMCwyMCAwLDAgMywwIDksMjAiLz48cGF0aCBjbGFzcz0iczEiIGQ9Ik0wLDAgMywwIDksMjAiLz48cGF0aCBjbGFzcz0iczEiIGQ9Im0wLDIwIDIwLDAiLz48L2c+PGcgaWQ9InZtMS05Ij48cGF0aCBjbGFzcz0iczE0IiBkPSJNMCwwIDAsMjAgMywyMCA5LDAiLz48cGF0aCBjbGFzcz0iczEiIGQ9Ik0wLDAgMjAsMCIvPjxwYXRoIGNsYXNzPSJzMSIgZD0iTTAsMjAgMywyMCA5LDAiLz48L2c+PGcgaWQ9InZteC05Ij48cGF0aCBjbGFzcz0iczE0IiBkPSJNMCwwIDAsMjAgMywyMCA2LDEwIDMsMCIvPjxwYXRoIGNsYXNzPSJzMSIgZD0ibTAsMCAzLDAgNiwyMCAxMSwwIi8+PHBhdGggY2xhc3M9InMxIiBkPSJNMCwyMCAzLDIwIDksMCAyMCwwIi8+PHBhdGggY2xhc3M9InMyIiBkPSJtMjAsMTUgLTUsNSIvPjxwYXRoIGNsYXNzPSJzMiIgZD0iTTIwLDEwIDEwLDIwIi8+PHBhdGggY2xhc3M9InMyIiBkPSJNMjAsNSA4LDE3Ii8+PHBhdGggY2xhc3M9InMyIiBkPSJNMjAsMCA3LDEzIi8+PHBhdGggY2xhc3M9InMyIiBkPSJNMTUsMCA3LDgiLz48cGF0aCBjbGFzcz0iczIiIGQ9Ik0xMCwwIDksMSIvPjwvZz48ZyBpZD0idm1kLTkiPjxwYXRoIGNsYXNzPSJzMTQiIGQ9Im0wLDAgMCwyMCAyMCwwIEMgMTAsMjAgNywxMCAzLDAiLz48cGF0aCBjbGFzcz0iczEiIGQ9Im0wLDAgMywwIGMgNCwxMCA3LDIwIDE3LDIwIi8+PHBhdGggY2xhc3M9InMxIiBkPSJtMCwyMCAyMCwwIi8+PC9nPjxnIGlkPSJ2bXUtOSI+PHBhdGggY2xhc3M9InMxNCIgZD0ibTAsMCAwLDIwIDMsMCBDIDcsMTAgMTAsMCAyMCwwIi8+PHBhdGggY2xhc3M9InMxIiBkPSJtMCwyMCAzLDAgQyA3LDEwIDEwLDAgMjAsMCIvPjxwYXRoIGNsYXNzPSJzMSIgZD0iTTAsMCAyMCwwIi8+PC9nPjxnIGlkPSJ2bXotOSI+PHBhdGggY2xhc3M9InMxNCIgZD0iTTAsMCAzLDAgQyAxMCwxMCAxNSwxMCAyMCwxMCAxNSwxMCAxMCwxMCAzLDIwIEwgMCwyMCIvPjxwYXRoIGNsYXNzPSJzMSIgZD0ibTAsMCAzLDAgYyA3LDEwIDEyLDEwIDE3LDEwIi8+PHBhdGggY2xhc3M9InMxIiBkPSJtMCwyMCAzLDAgQyAxMCwxMCAxNSwxMCAyMCwxMCIvPjwvZz48ZyBpZD0idm12LTItMiI+PHBhdGggY2xhc3M9InM3IiBkPSJNOSwwIDIwLDAgMjAsMjAgOSwyMCA2LDEwIHoiLz48cGF0aCBjbGFzcz0iczciIGQ9Ik0zLDAgMCwwIDAsMjAgMywyMCA2LDEwIHoiLz48cGF0aCBjbGFzcz0iczEiIGQ9Im0wLDAgMywwIDYsMjAgMTEsMCIvPjxwYXRoIGNsYXNzPSJzMSIgZD0iTTAsMjAgMywyMCA5LDAgMjAsMCIvPjwvZz48ZyBpZD0idm12LTMtMiI+PHBhdGggY2xhc3M9InM3IiBkPSJNOSwwIDIwLDAgMjAsMjAgOSwyMCA2LDEwIHoiLz48cGF0aCBjbGFzcz0iczgiIGQ9Ik0zLDAgMCwwIDAsMjAgMywyMCA2LDEwIHoiLz48cGF0aCBjbGFzcz0iczEiIGQ9Im0wLDAgMywwIDYsMjAgMTEsMCIvPjxwYXRoIGNsYXNzPSJzMSIgZD0iTTAsMjAgMywyMCA5LDAgMjAsMCIvPjwvZz48ZyBpZD0idm12LTQtMiI+PHBhdGggY2xhc3M9InM3IiBkPSJNOSwwIDIwLDAgMjAsMjAgOSwyMCA2LDEwIHoiLz48cGF0aCBjbGFzcz0iczkiIGQ9Ik0zLDAgMCwwIDAsMjAgMywyMCA2LDEwIHoiLz48cGF0aCBjbGFzcz0iczEiIGQ9Im0wLDAgMywwIDYsMjAgMTEsMCIvPjxwYXRoIGNsYXNzPSJzMSIgZD0iTTAsMjAgMywyMCA5LDAgMjAsMCIvPjwvZz48ZyBpZD0idm12LTUtMiI+PHBhdGggY2xhc3M9InM3IiBkPSJNOSwwIDIwLDAgMjAsMjAgOSwyMCA2LDEwIHoiLz48cGF0aCBjbGFzcz0iczEwIiBkPSJNMywwIDAsMCAwLDIwIDMsMjAgNiwxMCB6Ii8+PHBhdGggY2xhc3M9InMxIiBkPSJtMCwwIDMsMCA2LDIwIDExLDAiLz48cGF0aCBjbGFzcz0iczEiIGQ9Ik0wLDIwIDMsMjAgOSwwIDIwLDAiLz48L2c+PGcgaWQ9InZtdi02LTIiPjxwYXRoIGNsYXNzPSJzNyIgZD0iTTksMCAyMCwwIDIwLDIwIDksMjAgNiwxMCB6Ii8+PHBhdGggY2xhc3M9InMxMSIgZD0iTTMsMCAwLDAgMCwyMCAzLDIwIDYsMTAgeiIvPjxwYXRoIGNsYXNzPSJzMSIgZD0ibTAsMCAzLDAgNiwyMCAxMSwwIi8+PHBhdGggY2xhc3M9InMxIiBkPSJNMCwyMCAzLDIwIDksMCAyMCwwIi8+PC9nPjxnIGlkPSJ2bXYtNy0yIj48cGF0aCBjbGFzcz0iczciIGQ9Ik05LDAgMjAsMCAyMCwyMCA5LDIwIDYsMTAgeiIvPjxwYXRoIGNsYXNzPSJzMTIiIGQ9Ik0zLDAgMCwwIDAsMjAgMywyMCA2LDEwIHoiLz48cGF0aCBjbGFzcz0iczEiIGQ9Im0wLDAgMywwIDYsMjAgMTEsMCIvPjxwYXRoIGNsYXNzPSJzMSIgZD0iTTAsMjAgMywyMCA5LDAgMjAsMCIvPjwvZz48ZyBpZD0idm12LTgtMiI+PHBhdGggY2xhc3M9InM3IiBkPSJNOSwwIDIwLDAgMjAsMjAgOSwyMCA2LDEwIHoiLz48cGF0aCBjbGFzcz0iczEzIiBkPSJNMywwIDAsMCAwLDIwIDMsMjAgNiwxMCB6Ii8+PHBhdGggY2xhc3M9InMxIiBkPSJtMCwwIDMsMCA2LDIwIDExLDAiLz48cGF0aCBjbGFzcz0iczEiIGQ9Ik0wLDIwIDMsMjAgOSwwIDIwLDAiLz48L2c+PGcgaWQ9InZtdi05LTIiPjxwYXRoIGNsYXNzPSJzNyIgZD0iTTksMCAyMCwwIDIwLDIwIDksMjAgNiwxMCB6Ii8+PHBhdGggY2xhc3M9InMxNCIgZD0iTTMsMCAwLDAgMCwyMCAzLDIwIDYsMTAgeiIvPjxwYXRoIGNsYXNzPSJzMSIgZD0ibTAsMCAzLDAgNiwyMCAxMSwwIi8+PHBhdGggY2xhc3M9InMxIiBkPSJNMCwyMCAzLDIwIDksMCAyMCwwIi8+PC9nPjxnIGlkPSJ2bXYtMi0zIj48cGF0aCBjbGFzcz0iczgiIGQ9Ik05LDAgMjAsMCAyMCwyMCA5LDIwIDYsMTAgeiIvPjxwYXRoIGNsYXNzPSJzNyIgZD0iTTMsMCAwLDAgMCwyMCAzLDIwIDYsMTAgeiIvPjxwYXRoIGNsYXNzPSJzMSIgZD0ibTAsMCAzLDAgNiwyMCAxMSwwIi8+PHBhdGggY2xhc3M9InMxIiBkPSJNMCwyMCAzLDIwIDksMCAyMCwwIi8+PC9nPjxnIGlkPSJ2bXYtMy0zIj48cGF0aCBjbGFzcz0iczgiIGQ9Ik05LDAgMjAsMCAyMCwyMCA5LDIwIDYsMTAgeiIvPjxwYXRoIGNsYXNzPSJzOCIgZD0iTTMsMCAwLDAgMCwyMCAzLDIwIDYsMTAgeiIvPjxwYXRoIGNsYXNzPSJzMSIgZD0ibTAsMCAzLDAgNiwyMCAxMSwwIi8+PHBhdGggY2xhc3M9InMxIiBkPSJNMCwyMCAzLDIwIDksMCAyMCwwIi8+PC9nPjxnIGlkPSJ2bXYtNC0zIj48cGF0aCBjbGFzcz0iczgiIGQ9Ik05LDAgMjAsMCAyMCwyMCA5LDIwIDYsMTAgeiIvPjxwYXRoIGNsYXNzPSJzOSIgZD0iTTMsMCAwLDAgMCwyMCAzLDIwIDYsMTAgeiIvPjxwYXRoIGNsYXNzPSJzMSIgZD0ibTAsMCAzLDAgNiwyMCAxMSwwIi8+PHBhdGggY2xhc3M9InMxIiBkPSJNMCwyMCAzLDIwIDksMCAyMCwwIi8+PC9nPjxnIGlkPSJ2bXYtNS0zIj48cGF0aCBjbGFzcz0iczgiIGQ9Ik05LDAgMjAsMCAyMCwyMCA5LDIwIDYsMTAgeiIvPjxwYXRoIGNsYXNzPSJzMTAiIGQ9Ik0zLDAgMCwwIDAsMjAgMywyMCA2LDEwIHoiLz48cGF0aCBjbGFzcz0iczEiIGQ9Im0wLDAgMywwIDYsMjAgMTEsMCIvPjxwYXRoIGNsYXNzPSJzMSIgZD0iTTAsMjAgMywyMCA5LDAgMjAsMCIvPjwvZz48ZyBpZD0idm12LTYtMyI+PHBhdGggY2xhc3M9InM4IiBkPSJNOSwwIDIwLDAgMjAsMjAgOSwyMCA2LDEwIHoiLz48cGF0aCBjbGFzcz0iczExIiBkPSJNMywwIDAsMCAwLDIwIDMsMjAgNiwxMCB6Ii8+PHBhdGggY2xhc3M9InMxIiBkPSJtMCwwIDMsMCA2LDIwIDExLDAiLz48cGF0aCBjbGFzcz0iczEiIGQ9Ik0wLDIwIDMsMjAgOSwwIDIwLDAiLz48L2c+PGcgaWQ9InZtdi03LTMiPjxwYXRoIGNsYXNzPSJzOCIgZD0iTTksMCAyMCwwIDIwLDIwIDksMjAgNiwxMCB6Ii8+PHBhdGggY2xhc3M9InMxMiIgZD0iTTMsMCAwLDAgMCwyMCAzLDIwIDYsMTAgeiIvPjxwYXRoIGNsYXNzPSJzMSIgZD0ibTAsMCAzLDAgNiwyMCAxMSwwIi8+PHBhdGggY2xhc3M9InMxIiBkPSJNMCwyMCAzLDIwIDksMCAyMCwwIi8+PC9nPjxnIGlkPSJ2bXYtOC0zIj48cGF0aCBjbGFzcz0iczgiIGQ9Ik05LDAgMjAsMCAyMCwyMCA5LDIwIDYsMTAgeiIvPjxwYXRoIGNsYXNzPSJzMTMiIGQ9Ik0zLDAgMCwwIDAsMjAgMywyMCA2LDEwIHoiLz48cGF0aCBjbGFzcz0iczEiIGQ9Im0wLDAgMywwIDYsMjAgMTEsMCIvPjxwYXRoIGNsYXNzPSJzMSIgZD0iTTAsMjAgMywyMCA5LDAgMjAsMCIvPjwvZz48ZyBpZD0idm12LTktMyI+PHBhdGggY2xhc3M9InM4IiBkPSJNOSwwIDIwLDAgMjAsMjAgOSwyMCA2LDEwIHoiLz48cGF0aCBjbGFzcz0iczE0IiBkPSJNMywwIDAsMCAwLDIwIDMsMjAgNiwxMCB6Ii8+PHBhdGggY2xhc3M9InMxIiBkPSJtMCwwIDMsMCA2LDIwIDExLDAiLz48cGF0aCBjbGFzcz0iczEiIGQ9Ik0wLDIwIDMsMjAgOSwwIDIwLDAiLz48L2c+PGcgaWQ9InZtdi0yLTQiPjxwYXRoIGNsYXNzPSJzOSIgZD0iTTksMCAyMCwwIDIwLDIwIDksMjAgNiwxMCB6Ii8+PHBhdGggY2xhc3M9InM3IiBkPSJNMywwIDAsMCAwLDIwIDMsMjAgNiwxMCB6Ii8+PHBhdGggY2xhc3M9InMxIiBkPSJtMCwwIDMsMCA2LDIwIDExLDAiLz48cGF0aCBjbGFzcz0iczEiIGQ9Ik0wLDIwIDMsMjAgOSwwIDIwLDAiLz48L2c+PGcgaWQ9InZtdi0zLTQiPjxwYXRoIGNsYXNzPSJzOSIgZD0iTTksMCAyMCwwIDIwLDIwIDksMjAgNiwxMCB6Ii8+PHBhdGggY2xhc3M9InM4IiBkPSJNMywwIDAsMCAwLDIwIDMsMjAgNiwxMCB6Ii8+PHBhdGggY2xhc3M9InMxIiBkPSJtMCwwIDMsMCA2LDIwIDExLDAiLz48cGF0aCBjbGFzcz0iczEiIGQ9Ik0wLDIwIDMsMjAgOSwwIDIwLDAiLz48L2c+PGcgaWQ9InZtdi00LTQiPjxwYXRoIGNsYXNzPSJzOSIgZD0iTTksMCAyMCwwIDIwLDIwIDksMjAgNiwxMCB6Ii8+PHBhdGggY2xhc3M9InM5IiBkPSJNMywwIDAsMCAwLDIwIDMsMjAgNiwxMCB6Ii8+PHBhdGggY2xhc3M9InMxIiBkPSJtMCwwIDMsMCA2LDIwIDExLDAiLz48cGF0aCBjbGFzcz0iczEiIGQ9Ik0wLDIwIDMsMjAgOSwwIDIwLDAiLz48L2c+PGcgaWQ9InZtdi01LTQiPjxwYXRoIGNsYXNzPSJzOSIgZD0iTTksMCAyMCwwIDIwLDIwIDksMjAgNiwxMCB6Ii8+PHBhdGggY2xhc3M9InMxMCIgZD0iTTMsMCAwLDAgMCwyMCAzLDIwIDYsMTAgeiIvPjxwYXRoIGNsYXNzPSJzMSIgZD0ibTAsMCAzLDAgNiwyMCAxMSwwIi8+PHBhdGggY2xhc3M9InMxIiBkPSJNMCwyMCAzLDIwIDksMCAyMCwwIi8+PC9nPjxnIGlkPSJ2bXYtNi00Ij48cGF0aCBjbGFzcz0iczkiIGQ9Ik05LDAgMjAsMCAyMCwyMCA5LDIwIDYsMTAgeiIvPjxwYXRoIGNsYXNzPSJzMTEiIGQ9Ik0zLDAgMCwwIDAsMjAgMywyMCA2LDEwIHoiLz48cGF0aCBjbGFzcz0iczEiIGQ9Im0wLDAgMywwIDYsMjAgMTEsMCIvPjxwYXRoIGNsYXNzPSJzMSIgZD0iTTAsMjAgMywyMCA5LDAgMjAsMCIvPjwvZz48ZyBpZD0idm12LTctNCI+PHBhdGggY2xhc3M9InM5IiBkPSJNOSwwIDIwLDAgMjAsMjAgOSwyMCA2LDEwIHoiLz48cGF0aCBjbGFzcz0iczEyIiBkPSJNMywwIDAsMCAwLDIwIDMsMjAgNiwxMCB6Ii8+PHBhdGggY2xhc3M9InMxIiBkPSJtMCwwIDMsMCA2LDIwIDExLDAiLz48cGF0aCBjbGFzcz0iczEiIGQ9Ik0wLDIwIDMsMjAgOSwwIDIwLDAiLz48L2c+PGcgaWQ9InZtdi04LTQiPjxwYXRoIGNsYXNzPSJzOSIgZD0iTTksMCAyMCwwIDIwLDIwIDksMjAgNiwxMCB6Ii8+PHBhdGggY2xhc3M9InMxMyIgZD0iTTMsMCAwLDAgMCwyMCAzLDIwIDYsMTAgeiIvPjxwYXRoIGNsYXNzPSJzMSIgZD0ibTAsMCAzLDAgNiwyMCAxMSwwIi8+PHBhdGggY2xhc3M9InMxIiBkPSJNMCwyMCAzLDIwIDksMCAyMCwwIi8+PC9nPjxnIGlkPSJ2bXYtOS00Ij48cGF0aCBjbGFzcz0iczkiIGQ9Ik05LDAgMjAsMCAyMCwyMCA5LDIwIDYsMTAgeiIvPjxwYXRoIGNsYXNzPSJzMTQiIGQ9Ik0zLDAgMCwwIDAsMjAgMywyMCA2LDEwIHoiLz48cGF0aCBjbGFzcz0iczEiIGQ9Im0wLDAgMywwIDYsMjAgMTEsMCIvPjxwYXRoIGNsYXNzPSJzMSIgZD0iTTAsMjAgMywyMCA5LDAgMjAsMCIvPjwvZz48ZyBpZD0idm12LTItNSI+PHBhdGggY2xhc3M9InMxMCIgZD0iTTksMCAyMCwwIDIwLDIwIDksMjAgNiwxMCB6Ii8+PHBhdGggY2xhc3M9InM3IiBkPSJNMywwIDAsMCAwLDIwIDMsMjAgNiwxMCB6Ii8+PHBhdGggY2xhc3M9InMxIiBkPSJtMCwwIDMsMCA2LDIwIDExLDAiLz48cGF0aCBjbGFzcz0iczEiIGQ9Ik0wLDIwIDMsMjAgOSwwIDIwLDAiLz48L2c+PGcgaWQ9InZtdi0zLTUiPjxwYXRoIGNsYXNzPSJzMTAiIGQ9Ik05LDAgMjAsMCAyMCwyMCA5LDIwIDYsMTAgeiIvPjxwYXRoIGNsYXNzPSJzOCIgZD0iTTMsMCAwLDAgMCwyMCAzLDIwIDYsMTAgeiIvPjxwYXRoIGNsYXNzPSJzMSIgZD0ibTAsMCAzLDAgNiwyMCAxMSwwIi8+PHBhdGggY2xhc3M9InMxIiBkPSJNMCwyMCAzLDIwIDksMCAyMCwwIi8+PC9nPjxnIGlkPSJ2bXYtNC01Ij48cGF0aCBjbGFzcz0iczEwIiBkPSJNOSwwIDIwLDAgMjAsMjAgOSwyMCA2LDEwIHoiLz48cGF0aCBjbGFzcz0iczkiIGQ9Ik0zLDAgMCwwIDAsMjAgMywyMCA2LDEwIHoiLz48cGF0aCBjbGFzcz0iczEiIGQ9Im0wLDAgMywwIDYsMjAgMTEsMCIvPjxwYXRoIGNsYXNzPSJzMSIgZD0iTTAsMjAgMywyMCA5LDAgMjAsMCIvPjwvZz48ZyBpZD0idm12LTUtNSI+PHBhdGggY2xhc3M9InMxMCIgZD0iTTksMCAyMCwwIDIwLDIwIDksMjAgNiwxMCB6Ii8+PHBhdGggY2xhc3M9InMxMCIgZD0iTTMsMCAwLDAgMCwyMCAzLDIwIDYsMTAgeiIvPjxwYXRoIGNsYXNzPSJzMSIgZD0ibTAsMCAzLDAgNiwyMCAxMSwwIi8+PHBhdGggY2xhc3M9InMxIiBkPSJNMCwyMCAzLDIwIDksMCAyMCwwIi8+PC9nPjxnIGlkPSJ2bXYtNi01Ij48cGF0aCBjbGFzcz0iczEwIiBkPSJNOSwwIDIwLDAgMjAsMjAgOSwyMCA2LDEwIHoiLz48cGF0aCBjbGFzcz0iczExIiBkPSJNMywwIDAsMCAwLDIwIDMsMjAgNiwxMCB6Ii8+PHBhdGggY2xhc3M9InMxIiBkPSJtMCwwIDMsMCA2LDIwIDExLDAiLz48cGF0aCBjbGFzcz0iczEiIGQ9Ik0wLDIwIDMsMjAgOSwwIDIwLDAiLz48L2c+PGcgaWQ9InZtdi03LTUiPjxwYXRoIGNsYXNzPSJzMTAiIGQ9Ik05LDAgMjAsMCAyMCwyMCA5LDIwIDYsMTAgeiIvPjxwYXRoIGNsYXNzPSJzMTIiIGQ9Ik0zLDAgMCwwIDAsMjAgMywyMCA2LDEwIHoiLz48cGF0aCBjbGFzcz0iczEiIGQ9Im0wLDAgMywwIDYsMjAgMTEsMCIvPjxwYXRoIGNsYXNzPSJzMSIgZD0iTTAsMjAgMywyMCA5LDAgMjAsMCIvPjwvZz48ZyBpZD0idm12LTgtNSI+PHBhdGggY2xhc3M9InMxMCIgZD0iTTksMCAyMCwwIDIwLDIwIDksMjAgNiwxMCB6Ii8+PHBhdGggY2xhc3M9InMxMyIgZD0iTTMsMCAwLDAgMCwyMCAzLDIwIDYsMTAgeiIvPjxwYXRoIGNsYXNzPSJzMSIgZD0ibTAsMCAzLDAgNiwyMCAxMSwwIi8+PHBhdGggY2xhc3M9InMxIiBkPSJNMCwyMCAzLDIwIDksMCAyMCwwIi8+PC9nPjxnIGlkPSJ2bXYtOS01Ij48cGF0aCBjbGFzcz0iczEwIiBkPSJNOSwwIDIwLDAgMjAsMjAgOSwyMCA2LDEwIHoiLz48cGF0aCBjbGFzcz0iczE0IiBkPSJNMywwIDAsMCAwLDIwIDMsMjAgNiwxMCB6Ii8+PHBhdGggY2xhc3M9InMxIiBkPSJtMCwwIDMsMCA2LDIwIDExLDAiLz48cGF0aCBjbGFzcz0iczEiIGQ9Ik0wLDIwIDMsMjAgOSwwIDIwLDAiLz48L2c+PGcgaWQ9InZtdi0yLTYiPjxwYXRoIGNsYXNzPSJzMTEiIGQ9Ik05LDAgMjAsMCAyMCwyMCA5LDIwIDYsMTAgeiIvPjxwYXRoIGNsYXNzPSJzNyIgZD0iTTMsMCAwLDAgMCwyMCAzLDIwIDYsMTAgeiIvPjxwYXRoIGNsYXNzPSJzMSIgZD0ibTAsMCAzLDAgNiwyMCAxMSwwIi8+PHBhdGggY2xhc3M9InMxIiBkPSJNMCwyMCAzLDIwIDksMCAyMCwwIi8+PC9nPjxnIGlkPSJ2bXYtMy02Ij48cGF0aCBjbGFzcz0iczExIiBkPSJNOSwwIDIwLDAgMjAsMjAgOSwyMCA2LDEwIHoiLz48cGF0aCBjbGFzcz0iczgiIGQ9Ik0zLDAgMCwwIDAsMjAgMywyMCA2LDEwIHoiLz48cGF0aCBjbGFzcz0iczEiIGQ9Im0wLDAgMywwIDYsMjAgMTEsMCIvPjxwYXRoIGNsYXNzPSJzMSIgZD0iTTAsMjAgMywyMCA5LDAgMjAsMCIvPjwvZz48ZyBpZD0idm12LTQtNiI+PHBhdGggY2xhc3M9InMxMSIgZD0iTTksMCAyMCwwIDIwLDIwIDksMjAgNiwxMCB6Ii8+PHBhdGggY2xhc3M9InM5IiBkPSJNMywwIDAsMCAwLDIwIDMsMjAgNiwxMCB6Ii8+PHBhdGggY2xhc3M9InMxIiBkPSJtMCwwIDMsMCA2LDIwIDExLDAiLz48cGF0aCBjbGFzcz0iczEiIGQ9Ik0wLDIwIDMsMjAgOSwwIDIwLDAiLz48L2c+PGcgaWQ9InZtdi01LTYiPjxwYXRoIGNsYXNzPSJzMTEiIGQ9Ik05LDAgMjAsMCAyMCwyMCA5LDIwIDYsMTAgeiIvPjxwYXRoIGNsYXNzPSJzMTAiIGQ9Ik0zLDAgMCwwIDAsMjAgMywyMCA2LDEwIHoiLz48cGF0aCBjbGFzcz0iczEiIGQ9Im0wLDAgMywwIDYsMjAgMTEsMCIvPjxwYXRoIGNsYXNzPSJzMSIgZD0iTTAsMjAgMywyMCA5LDAgMjAsMCIvPjwvZz48ZyBpZD0idm12LTYtNiI+PHBhdGggY2xhc3M9InMxMSIgZD0iTTksMCAyMCwwIDIwLDIwIDksMjAgNiwxMCB6Ii8+PHBhdGggY2xhc3M9InMxMSIgZD0iTTMsMCAwLDAgMCwyMCAzLDIwIDYsMTAgeiIvPjxwYXRoIGNsYXNzPSJzMSIgZD0ibTAsMCAzLDAgNiwyMCAxMSwwIi8+PHBhdGggY2xhc3M9InMxIiBkPSJNMCwyMCAzLDIwIDksMCAyMCwwIi8+PC9nPjxnIGlkPSJ2bXYtNy02Ij48cGF0aCBjbGFzcz0iczExIiBkPSJNOSwwIDIwLDAgMjAsMjAgOSwyMCA2LDEwIHoiLz48cGF0aCBjbGFzcz0iczEyIiBkPSJNMywwIDAsMCAwLDIwIDMsMjAgNiwxMCB6Ii8+PHBhdGggY2xhc3M9InMxIiBkPSJtMCwwIDMsMCA2LDIwIDExLDAiLz48cGF0aCBjbGFzcz0iczEiIGQ9Ik0wLDIwIDMsMjAgOSwwIDIwLDAiLz48L2c+PGcgaWQ9InZtdi04LTYiPjxwYXRoIGNsYXNzPSJzMTEiIGQ9Ik05LDAgMjAsMCAyMCwyMCA5LDIwIDYsMTAgeiIvPjxwYXRoIGNsYXNzPSJzMTMiIGQ9Ik0zLDAgMCwwIDAsMjAgMywyMCA2LDEwIHoiLz48cGF0aCBjbGFzcz0iczEiIGQ9Im0wLDAgMywwIDYsMjAgMTEsMCIvPjxwYXRoIGNsYXNzPSJzMSIgZD0iTTAsMjAgMywyMCA5LDAgMjAsMCIvPjwvZz48ZyBpZD0idm12LTktNiI+PHBhdGggY2xhc3M9InMxMSIgZD0iTTksMCAyMCwwIDIwLDIwIDksMjAgNiwxMCB6Ii8+PHBhdGggY2xhc3M9InMxNCIgZD0iTTMsMCAwLDAgMCwyMCAzLDIwIDYsMTAgeiIvPjxwYXRoIGNsYXNzPSJzMSIgZD0ibTAsMCAzLDAgNiwyMCAxMSwwIi8+PHBhdGggY2xhc3M9InMxIiBkPSJNMCwyMCAzLDIwIDksMCAyMCwwIi8+PC9nPjxnIGlkPSJ2bXYtMi03Ij48cGF0aCBjbGFzcz0iczEyIiBkPSJNOSwwIDIwLDAgMjAsMjAgOSwyMCA2LDEwIHoiLz48cGF0aCBjbGFzcz0iczciIGQ9Ik0zLDAgMCwwIDAsMjAgMywyMCA2LDEwIHoiLz48cGF0aCBjbGFzcz0iczEiIGQ9Im0wLDAgMywwIDYsMjAgMTEsMCIvPjxwYXRoIGNsYXNzPSJzMSIgZD0iTTAsMjAgMywyMCA5LDAgMjAsMCIvPjwvZz48ZyBpZD0idm12LTMtNyI+PHBhdGggY2xhc3M9InMxMiIgZD0iTTksMCAyMCwwIDIwLDIwIDksMjAgNiwxMCB6Ii8+PHBhdGggY2xhc3M9InM4IiBkPSJNMywwIDAsMCAwLDIwIDMsMjAgNiwxMCB6Ii8+PHBhdGggY2xhc3M9InMxIiBkPSJtMCwwIDMsMCA2LDIwIDExLDAiLz48cGF0aCBjbGFzcz0iczEiIGQ9Ik0wLDIwIDMsMjAgOSwwIDIwLDAiLz48L2c+PGcgaWQ9InZtdi00LTciPjxwYXRoIGNsYXNzPSJzMTIiIGQ9Ik05LDAgMjAsMCAyMCwyMCA5LDIwIDYsMTAgeiIvPjxwYXRoIGNsYXNzPSJzOSIgZD0iTTMsMCAwLDAgMCwyMCAzLDIwIDYsMTAgeiIvPjxwYXRoIGNsYXNzPSJzMSIgZD0ibTAsMCAzLDAgNiwyMCAxMSwwIi8+PHBhdGggY2xhc3M9InMxIiBkPSJNMCwyMCAzLDIwIDksMCAyMCwwIi8+PC9nPjxnIGlkPSJ2bXYtNS03Ij48cGF0aCBjbGFzcz0iczEyIiBkPSJNOSwwIDIwLDAgMjAsMjAgOSwyMCA2LDEwIHoiLz48cGF0aCBjbGFzcz0iczEwIiBkPSJNMywwIDAsMCAwLDIwIDMsMjAgNiwxMCB6Ii8+PHBhdGggY2xhc3M9InMxIiBkPSJtMCwwIDMsMCA2LDIwIDExLDAiLz48cGF0aCBjbGFzcz0iczEiIGQ9Ik0wLDIwIDMsMjAgOSwwIDIwLDAiLz48L2c+PGcgaWQ9InZtdi02LTciPjxwYXRoIGNsYXNzPSJzMTIiIGQ9Ik05LDAgMjAsMCAyMCwyMCA5LDIwIDYsMTAgeiIvPjxwYXRoIGNsYXNzPSJzMTEiIGQ9Ik0zLDAgMCwwIDAsMjAgMywyMCA2LDEwIHoiLz48cGF0aCBjbGFzcz0iczEiIGQ9Im0wLDAgMywwIDYsMjAgMTEsMCIvPjxwYXRoIGNsYXNzPSJzMSIgZD0iTTAsMjAgMywyMCA5LDAgMjAsMCIvPjwvZz48ZyBpZD0idm12LTctNyI+PHBhdGggY2xhc3M9InMxMiIgZD0iTTksMCAyMCwwIDIwLDIwIDksMjAgNiwxMCB6Ii8+PHBhdGggY2xhc3M9InMxMiIgZD0iTTMsMCAwLDAgMCwyMCAzLDIwIDYsMTAgeiIvPjxwYXRoIGNsYXNzPSJzMSIgZD0ibTAsMCAzLDAgNiwyMCAxMSwwIi8+PHBhdGggY2xhc3M9InMxIiBkPSJNMCwyMCAzLDIwIDksMCAyMCwwIi8+PC9nPjxnIGlkPSJ2bXYtOC03Ij48cGF0aCBjbGFzcz0iczEyIiBkPSJNOSwwIDIwLDAgMjAsMjAgOSwyMCA2LDEwIHoiLz48cGF0aCBjbGFzcz0iczEzIiBkPSJNMywwIDAsMCAwLDIwIDMsMjAgNiwxMCB6Ii8+PHBhdGggY2xhc3M9InMxIiBkPSJtMCwwIDMsMCA2LDIwIDExLDAiLz48cGF0aCBjbGFzcz0iczEiIGQ9Ik0wLDIwIDMsMjAgOSwwIDIwLDAiLz48L2c+PGcgaWQ9InZtdi05LTciPjxwYXRoIGNsYXNzPSJzMTIiIGQ9Ik05LDAgMjAsMCAyMCwyMCA5LDIwIDYsMTAgeiIvPjxwYXRoIGNsYXNzPSJzMTQiIGQ9Ik0zLDAgMCwwIDAsMjAgMywyMCA2LDEwIHoiLz48cGF0aCBjbGFzcz0iczEiIGQ9Im0wLDAgMywwIDYsMjAgMTEsMCIvPjxwYXRoIGNsYXNzPSJzMSIgZD0iTTAsMjAgMywyMCA5LDAgMjAsMCIvPjwvZz48ZyBpZD0idm12LTItOCI+PHBhdGggY2xhc3M9InMxMyIgZD0iTTksMCAyMCwwIDIwLDIwIDksMjAgNiwxMCB6Ii8+PHBhdGggY2xhc3M9InM3IiBkPSJNMywwIDAsMCAwLDIwIDMsMjAgNiwxMCB6Ii8+PHBhdGggY2xhc3M9InMxIiBkPSJtMCwwIDMsMCA2LDIwIDExLDAiLz48cGF0aCBjbGFzcz0iczEiIGQ9Ik0wLDIwIDMsMjAgOSwwIDIwLDAiLz48L2c+PGcgaWQ9InZtdi0zLTgiPjxwYXRoIGNsYXNzPSJzMTMiIGQ9Ik05LDAgMjAsMCAyMCwyMCA5LDIwIDYsMTAgeiIvPjxwYXRoIGNsYXNzPSJzOCIgZD0iTTMsMCAwLDAgMCwyMCAzLDIwIDYsMTAgeiIvPjxwYXRoIGNsYXNzPSJzMSIgZD0ibTAsMCAzLDAgNiwyMCAxMSwwIi8+PHBhdGggY2xhc3M9InMxIiBkPSJNMCwyMCAzLDIwIDksMCAyMCwwIi8+PC9nPjxnIGlkPSJ2bXYtNC04Ij48cGF0aCBjbGFzcz0iczEzIiBkPSJNOSwwIDIwLDAgMjAsMjAgOSwyMCA2LDEwIHoiLz48cGF0aCBjbGFzcz0iczkiIGQ9Ik0zLDAgMCwwIDAsMjAgMywyMCA2LDEwIHoiLz48cGF0aCBjbGFzcz0iczEiIGQ9Im0wLDAgMywwIDYsMjAgMTEsMCIvPjxwYXRoIGNsYXNzPSJzMSIgZD0iTTAsMjAgMywyMCA5LDAgMjAsMCIvPjwvZz48ZyBpZD0idm12LTUtOCI+PHBhdGggY2xhc3M9InMxMyIgZD0iTTksMCAyMCwwIDIwLDIwIDksMjAgNiwxMCB6Ii8+PHBhdGggY2xhc3M9InMxMCIgZD0iTTMsMCAwLDAgMCwyMCAzLDIwIDYsMTAgeiIvPjxwYXRoIGNsYXNzPSJzMSIgZD0ibTAsMCAzLDAgNiwyMCAxMSwwIi8+PHBhdGggY2xhc3M9InMxIiBkPSJNMCwyMCAzLDIwIDksMCAyMCwwIi8+PC9nPjxnIGlkPSJ2bXYtNi04Ij48cGF0aCBjbGFzcz0iczEzIiBkPSJNOSwwIDIwLDAgMjAsMjAgOSwyMCA2LDEwIHoiLz48cGF0aCBjbGFzcz0iczExIiBkPSJNMywwIDAsMCAwLDIwIDMsMjAgNiwxMCB6Ii8+PHBhdGggY2xhc3M9InMxIiBkPSJtMCwwIDMsMCA2LDIwIDExLDAiLz48cGF0aCBjbGFzcz0iczEiIGQ9Ik0wLDIwIDMsMjAgOSwwIDIwLDAiLz48L2c+PGcgaWQ9InZtdi03LTgiPjxwYXRoIGNsYXNzPSJzMTMiIGQ9Ik05LDAgMjAsMCAyMCwyMCA5LDIwIDYsMTAgeiIvPjxwYXRoIGNsYXNzPSJzMTIiIGQ9Ik0zLDAgMCwwIDAsMjAgMywyMCA2LDEwIHoiLz48cGF0aCBjbGFzcz0iczEiIGQ9Im0wLDAgMywwIDYsMjAgMTEsMCIvPjxwYXRoIGNsYXNzPSJzMSIgZD0iTTAsMjAgMywyMCA5LDAgMjAsMCIvPjwvZz48ZyBpZD0idm12LTgtOCI+PHBhdGggY2xhc3M9InMxMyIgZD0iTTksMCAyMCwwIDIwLDIwIDksMjAgNiwxMCB6Ii8+PHBhdGggY2xhc3M9InMxMyIgZD0iTTMsMCAwLDAgMCwyMCAzLDIwIDYsMTAgeiIvPjxwYXRoIGNsYXNzPSJzMSIgZD0ibTAsMCAzLDAgNiwyMCAxMSwwIi8+PHBhdGggY2xhc3M9InMxIiBkPSJNMCwyMCAzLDIwIDksMCAyMCwwIi8+PC9nPjxnIGlkPSJ2bXYtOS04Ij48cGF0aCBjbGFzcz0iczEzIiBkPSJNOSwwIDIwLDAgMjAsMjAgOSwyMCA2LDEwIHoiLz48cGF0aCBjbGFzcz0iczE0IiBkPSJNMywwIDAsMCAwLDIwIDMsMjAgNiwxMCB6Ii8+PHBhdGggY2xhc3M9InMxIiBkPSJtMCwwIDMsMCA2LDIwIDExLDAiLz48cGF0aCBjbGFzcz0iczEiIGQ9Ik0wLDIwIDMsMjAgOSwwIDIwLDAiLz48L2c+PGcgaWQ9InZtdi0yLTkiPjxwYXRoIGNsYXNzPSJzMTQiIGQ9Ik05LDAgMjAsMCAyMCwyMCA5LDIwIDYsMTAgeiIvPjxwYXRoIGNsYXNzPSJzNyIgZD0iTTMsMCAwLDAgMCwyMCAzLDIwIDYsMTAgeiIvPjxwYXRoIGNsYXNzPSJzMSIgZD0ibTAsMCAzLDAgNiwyMCAxMSwwIi8+PHBhdGggY2xhc3M9InMxIiBkPSJNMCwyMCAzLDIwIDksMCAyMCwwIi8+PC9nPjxnIGlkPSJ2bXYtMy05Ij48cGF0aCBjbGFzcz0iczE0IiBkPSJNOSwwIDIwLDAgMjAsMjAgOSwyMCA2LDEwIHoiLz48cGF0aCBjbGFzcz0iczgiIGQ9Ik0zLDAgMCwwIDAsMjAgMywyMCA2LDEwIHoiLz48cGF0aCBjbGFzcz0iczEiIGQ9Im0wLDAgMywwIDYsMjAgMTEsMCIvPjxwYXRoIGNsYXNzPSJzMSIgZD0iTTAsMjAgMywyMCA5LDAgMjAsMCIvPjwvZz48ZyBpZD0idm12LTQtOSI+PHBhdGggY2xhc3M9InMxNCIgZD0iTTksMCAyMCwwIDIwLDIwIDksMjAgNiwxMCB6Ii8+PHBhdGggY2xhc3M9InM5IiBkPSJNMywwIDAsMCAwLDIwIDMsMjAgNiwxMCB6Ii8+PHBhdGggY2xhc3M9InMxIiBkPSJtMCwwIDMsMCA2LDIwIDExLDAiLz48cGF0aCBjbGFzcz0iczEiIGQ9Ik0wLDIwIDMsMjAgOSwwIDIwLDAiLz48L2c+PGcgaWQ9InZtdi01LTkiPjxwYXRoIGNsYXNzPSJzMTQiIGQ9Ik05LDAgMjAsMCAyMCwyMCA5LDIwIDYsMTAgeiIvPjxwYXRoIGNsYXNzPSJzMTAiIGQ9Ik0zLDAgMCwwIDAsMjAgMywyMCA2LDEwIHoiLz48cGF0aCBjbGFzcz0iczEiIGQ9Im0wLDAgMywwIDYsMjAgMTEsMCIvPjxwYXRoIGNsYXNzPSJzMSIgZD0iTTAsMjAgMywyMCA5LDAgMjAsMCIvPjwvZz48ZyBpZD0idm12LTYtOSI+PHBhdGggY2xhc3M9InMxNCIgZD0iTTksMCAyMCwwIDIwLDIwIDksMjAgNiwxMCB6Ii8+PHBhdGggY2xhc3M9InMxMSIgZD0iTTMsMCAwLDAgMCwyMCAzLDIwIDYsMTAgeiIvPjxwYXRoIGNsYXNzPSJzMSIgZD0ibTAsMCAzLDAgNiwyMCAxMSwwIi8+PHBhdGggY2xhc3M9InMxIiBkPSJNMCwyMCAzLDIwIDksMCAyMCwwIi8+PC9nPjxnIGlkPSJ2bXYtNy05Ij48cGF0aCBjbGFzcz0iczE0IiBkPSJNOSwwIDIwLDAgMjAsMjAgOSwyMCA2LDEwIHoiLz48cGF0aCBjbGFzcz0iczEyIiBkPSJNMywwIDAsMCAwLDIwIDMsMjAgNiwxMCB6Ii8+PHBhdGggY2xhc3M9InMxIiBkPSJtMCwwIDMsMCA2LDIwIDExLDAiLz48cGF0aCBjbGFzcz0iczEiIGQ9Ik0wLDIwIDMsMjAgOSwwIDIwLDAiLz48L2c+PGcgaWQ9InZtdi04LTkiPjxwYXRoIGNsYXNzPSJzMTQiIGQ9Ik05LDAgMjAsMCAyMCwyMCA5LDIwIDYsMTAgeiIvPjxwYXRoIGNsYXNzPSJzMTMiIGQ9Ik0zLDAgMCwwIDAsMjAgMywyMCA2LDEwIHoiLz48cGF0aCBjbGFzcz0iczEiIGQ9Im0wLDAgMywwIDYsMjAgMTEsMCIvPjxwYXRoIGNsYXNzPSJzMSIgZD0iTTAsMjAgMywyMCA5LDAgMjAsMCIvPjwvZz48ZyBpZD0idm12LTktOSI+PHBhdGggY2xhc3M9InMxNCIgZD0iTTksMCAyMCwwIDIwLDIwIDksMjAgNiwxMCB6Ii8+PHBhdGggY2xhc3M9InMxNCIgZD0iTTMsMCAwLDAgMCwyMCAzLDIwIDYsMTAgeiIvPjxwYXRoIGNsYXNzPSJzMSIgZD0ibTAsMCAzLDAgNiwyMCAxMSwwIi8+PHBhdGggY2xhc3M9InMxIiBkPSJNMCwyMCAzLDIwIDksMCAyMCwwIi8+PC9nPjxnIGlkPSJhcnJvdzAiPjxwYXRoIGNsYXNzPSJzMTUiIGQ9Im0tMTIsLTMgOSwzIC05LDMgYyAxLC0yIDEsLTQgMCwtNiB6Ii8+PHBhdGggY2xhc3M9InMxNiIgZD0iTTAsMCAtMTUsMCIvPjwvZz48bWFya2VyIG9yaWVudD0iYXV0byIgcmVmWT0iMCIgcmVmWD0iMTUiIHZpZXdCb3g9IjAgLTQgMTEgOCIgbWFya2VyVW5pdHM9InN0cm9rZVdpZHRoIiBtYXJrZXJXaWR0aD0iMTAiIG1hcmtlckhlaWdodD0iNyIgc3R5bGU9ImZpbGw6IzAwNDFjNCIgaWQ9ImFycm93aGVhZCI+PHBhdGggZD0iTTAgLTQgMTEgMCAwIDR6Ii8+PC9tYXJrZXI+PG1hcmtlciBvcmllbnQ9ImF1dG8iIHJlZlk9IjAiIHJlZlg9Ii0xNSIgdmlld0JveD0iLTExIC00IDExIDgiIG1hcmtlclVuaXRzPSJzdHJva2VXaWR0aCIgbWFya2VyV2lkdGg9IjEwIiBtYXJrZXJIZWlnaHQ9IjciIHN0eWxlPSJmaWxsOiMwMDQxYzQiIGlkPSJhcnJvd3RhaWwiPjxwYXRoIGQ9Ik0wIC00IC0xMSAwIDAgNHoiLz48L21hcmtlcj48bWFya2VyIG9yaWVudD0iYXV0byIgcmVmWT0iMyIgcmVmWD0iMCIgdmlld0JveD0iMCAwIDEgNiIgbWFya2VyVW5pdHM9InN0cm9rZVdpZHRoIiBtYXJrZXJXaWR0aD0iMSIgbWFya2VySGVpZ2h0PSI2IiBzdHlsZT0iZmlsbDojMDA0MWM0IiBpZD0idGVlIj48cGF0aCBzdHlsZT0ic3Ryb2tlOiMwMDQxYzQ7c3Ryb2tlLXdpZHRoOjIiIGQ9Ik0gMCAwIEwgMCA2Ii8+PC9tYXJrZXI+PC9kZWZzPjxnIGlkPSJ3YXZlc18wIj48cmVjdCBzdHlsZT0ic3Ryb2tlOm5vbmU7ZmlsbDp3aGl0ZSIgaGVpZ2h0PSIzMCIgd2lkdGg9IjQ0MCIvPjxnIGlkPSJsYW5lc18wIiB0cmFuc2Zvcm09InRyYW5zbGF0ZSg2MC41LDAuNSkiPjxnIGlkPSJnbWFya3NfMCI+PGcgc3R5bGU9InN0cm9rZTojODg4O3N0cm9rZS13aWR0aDowLjU7c3Ryb2tlLWRhc2hhcnJheToxLDMiPjxsaW5lIHkyPSIzMCIgeDI9IjAiIHkxPSIwIiB4MT0iMCIgaWQ9ImdtYXJrXzBfMCIvPjxsaW5lIHkyPSIzMCIgeDI9IjQwIiB5MT0iMCIgeDE9IjQwIiBpZD0iZ21hcmtfMV8wIi8+PGxpbmUgeTI9IjMwIiB4Mj0iODAiIHkxPSIwIiB4MT0iODAiIGlkPSJnbWFya18yXzAiLz48bGluZSB5Mj0iMzAiIHgyPSIxMjAiIHkxPSIwIiB4MT0iMTIwIiBpZD0iZ21hcmtfM18wIi8+PGxpbmUgeTI9IjMwIiB4Mj0iMTYwIiB5MT0iMCIgeDE9IjE2MCIgaWQ9ImdtYXJrXzRfMCIvPjxsaW5lIHkyPSIzMCIgeDI9IjIwMCIgeTE9IjAiIHgxPSIyMDAiIGlkPSJnbWFya181XzAiLz48bGluZSB5Mj0iMzAiIHgyPSIyNDAiIHkxPSIwIiB4MT0iMjQwIiBpZD0iZ21hcmtfNl8wIi8+PGxpbmUgeTI9IjMwIiB4Mj0iMjgwIiB5MT0iMCIgeDE9IjI4MCIgaWQ9ImdtYXJrXzdfMCIvPjxsaW5lIHkyPSIzMCIgeDI9IjMyMCIgeTE9IjAiIHgxPSIzMjAiIGlkPSJnbWFya184XzAiLz48bGluZSB5Mj0iMzAiIHgyPSIzNjAiIHkxPSIwIiB4MT0iMzYwIiBpZD0iZ21hcmtfOV8wIi8+PC9nPjwvZz48ZyBpZD0id2F2ZWxhbmVfMF8wIiB0cmFuc2Zvcm09InRyYW5zbGF0ZSgwLDUpIj48dGV4dCB4bWw6c3BhY2U9InByZXNlcnZlIiB0ZXh0LWFuY2hvcj0iZW5kIiBjbGFzcz0iaW5mbyIgeT0iMTUiIHg9Ii0xMCI+PHRzcGFuPmNsb2NrPC90c3Bhbj48L3RleHQ+PGcgaWQ9IndhdmVsYW5lX2RyYXdfMF8wIj48dXNlIHhsaW5rOmhyZWY9IiMxMTEiLz48dXNlIHhsaW5rOmhyZWY9IiMxMTEiIHRyYW5zZm9ybT0idHJhbnNsYXRlKDIwKSIvPjx1c2UgeGxpbms6aHJlZj0iI05jbGsiIHRyYW5zZm9ybT0idHJhbnNsYXRlKDQwKSIvPjx1c2UgeGxpbms6aHJlZj0iI3BjbGsiIHRyYW5zZm9ybT0idHJhbnNsYXRlKDYwKSIvPjx1c2UgeGxpbms6aHJlZj0iIzExMSIgdHJhbnNmb3JtPSJ0cmFuc2xhdGUoODApIi8+PHVzZSB4bGluazpocmVmPSIjMTExIiB0cmFuc2Zvcm09InRyYW5zbGF0ZSgxMDApIi8+PHVzZSB4bGluazpocmVmPSIjTmNsayIgdHJhbnNmb3JtPSJ0cmFuc2xhdGUoMTIwKSIvPjx1c2UgeGxpbms6aHJlZj0iI3BjbGsiIHRyYW5zZm9ybT0idHJhbnNsYXRlKDE0MCkiLz48dXNlIHhsaW5rOmhyZWY9IiMxMTEiIHRyYW5zZm9ybT0idHJhbnNsYXRlKDE2MCkiLz48dXNlIHhsaW5rOmhyZWY9IiMxMTEiIHRyYW5zZm9ybT0idHJhbnNsYXRlKDE4MCkiLz48dXNlIHhsaW5rOmhyZWY9IiNOY2xrIiB0cmFuc2Zvcm09InRyYW5zbGF0ZSgyMDApIi8+PHVzZSB4bGluazpocmVmPSIjcGNsayIgdHJhbnNmb3JtPSJ0cmFuc2xhdGUoMjIwKSIvPjx1c2UgeGxpbms6aHJlZj0iIzExMSIgdHJhbnNmb3JtPSJ0cmFuc2xhdGUoMjQwKSIvPjx1c2UgeGxpbms6aHJlZj0iIzExMSIgdHJhbnNmb3JtPSJ0cmFuc2xhdGUoMjYwKSIvPjx1c2UgeGxpbms6aHJlZj0iI05jbGsiIHRyYW5zZm9ybT0idHJhbnNsYXRlKDI4MCkiLz48dXNlIHhsaW5rOmhyZWY9IiNwY2xrIiB0cmFuc2Zvcm09InRyYW5zbGF0ZSgzMDApIi8+PHVzZSB4bGluazpocmVmPSIjMTExIiB0cmFuc2Zvcm09InRyYW5zbGF0ZSgzMjApIi8+PHVzZSB4bGluazpocmVmPSIjMTExIiB0cmFuc2Zvcm09InRyYW5zbGF0ZSgzNDApIi8+PC9nPjwvZz48ZyBpZD0id2F2ZWFyY3NfMCIvPjxnIGlkPSJ3YXZlZ2Fwc18wIj48ZyBpZD0id2F2ZWdhcF8wXzAiIHRyYW5zZm9ybT0idHJhbnNsYXRlKDAsNSkiLz48L2c+PGcvPjwvZz48ZyBpZD0iZ3JvdXBzXzAiPjxnLz48L2c+PC9nPjwvc3ZnPg==;" vertex="1" parent="1">
          <mxGeometry x="-713" y="478" width="3207.7" height="226" as="geometry" />
        </mxCell>
        <mxCell id="ww2nhfKNjPysvLxSNDaB-15" style="rounded=0;orthogonalLoop=1;jettySize=auto;html=1;exitX=0.25;exitY=0;exitDx=0;exitDy=0;startArrow=block;startFill=1;endArrow=block;endFill=1;strokeWidth=10;fillColor=#f8cecc;strokeColor=light-dark(#ee1111, #d7817e);" edge="1" parent="1">
          <mxGeometry relative="1" as="geometry">
            <mxPoint x="18" y="479" as="sourcePoint" />
            <mxPoint x="604" y="481" as="targetPoint" />
          </mxGeometry>
        </mxCell>
        <mxCell id="ww2nhfKNjPysvLxSNDaB-16" value="&lt;span style=&quot;font-size: 50px;&quot;&gt;Time Period&lt;/span&gt;" style="text;html=1;align=center;verticalAlign=middle;resizable=0;points=[];autosize=1;strokeColor=none;fillColor=none;" vertex="1" parent="1">
          <mxGeometry x="245" y="405" width="286" height="72" as="geometry" />
        </mxCell>
        <mxCell id="ww2nhfKNjPysvLxSNDaB-19" value="" style="html=1;rounded=0;endArrow=none;startFill=0;strokeWidth=2;fontSize=20;" edge="1" parent="1">
          <mxGeometry width="100" relative="1" as="geometry">
            <mxPoint x="50" y="920" as="sourcePoint" />
            <mxPoint x="130" y="920" as="targetPoint" />
          </mxGeometry>
        </mxCell>
        <mxCell id="ww2nhfKNjPysvLxSNDaB-20" value="" style="html=1;rounded=0;endArrow=none;startFill=0;strokeWidth=2;fontSize=20;" edge="1" parent="1">
          <mxGeometry width="100" relative="1" as="geometry">
            <mxPoint x="130" y="920" as="sourcePoint" />
            <mxPoint x="170" y="880" as="targetPoint" />
          </mxGeometry>
        </mxCell>
        <mxCell id="ww2nhfKNjPysvLxSNDaB-21" value="" style="html=1;rounded=0;endArrow=none;startFill=0;strokeWidth=2;fontSize=20;" edge="1" parent="1">
          <mxGeometry width="100" relative="1" as="geometry">
            <mxPoint x="170" y="880" as="sourcePoint" />
            <mxPoint x="250" y="880" as="targetPoint" />
          </mxGeometry>
        </mxCell>
        <mxCell id="ww2nhfKNjPysvLxSNDaB-22" value="" style="html=1;rounded=0;endArrow=none;startFill=0;strokeWidth=2;fontSize=20;" edge="1" parent="1">
          <mxGeometry width="100" relative="1" as="geometry">
            <mxPoint x="290" y="920" as="sourcePoint" />
            <mxPoint x="250" y="880" as="targetPoint" />
          </mxGeometry>
        </mxCell>
        <mxCell id="ww2nhfKNjPysvLxSNDaB-23" value="" style="html=1;rounded=0;endArrow=none;startFill=0;strokeWidth=2;fontSize=20;" edge="1" parent="1">
          <mxGeometry width="100" relative="1" as="geometry">
            <mxPoint x="290" y="920" as="sourcePoint" />
            <mxPoint x="370" y="920" as="targetPoint" />
          </mxGeometry>
        </mxCell>
        <mxCell id="ww2nhfKNjPysvLxSNDaB-24" value="" style="html=1;rounded=0;endArrow=none;startFill=0;strokeWidth=3;fontSize=20;" edge="1" parent="1">
          <mxGeometry width="100" relative="1" as="geometry">
            <mxPoint x="490" y="920" as="sourcePoint" />
            <mxPoint x="610" y="920" as="targetPoint" />
          </mxGeometry>
        </mxCell>
        <mxCell id="ww2nhfKNjPysvLxSNDaB-25" value="" style="html=1;rounded=0;endArrow=none;startFill=0;strokeWidth=3;fontSize=20;" edge="1" parent="1">
          <mxGeometry width="100" relative="1" as="geometry">
            <mxPoint x="610" y="920" as="sourcePoint" />
            <mxPoint x="730" y="840" as="targetPoint" />
          </mxGeometry>
        </mxCell>
        <mxCell id="ww2nhfKNjPysvLxSNDaB-29" value="" style="html=1;rounded=0;endArrow=none;startFill=0;strokeWidth=3;fontSize=20;" edge="1" parent="1">
          <mxGeometry width="100" relative="1" as="geometry">
            <mxPoint x="730" y="840" as="sourcePoint" />
            <mxPoint x="850" y="840" as="targetPoint" />
          </mxGeometry>
        </mxCell>
        <mxCell id="ww2nhfKNjPysvLxSNDaB-30" value="" style="html=1;rounded=0;endArrow=none;startFill=0;strokeWidth=3;fontSize=20;" edge="1" parent="1">
          <mxGeometry width="100" relative="1" as="geometry">
            <mxPoint x="970" y="920" as="sourcePoint" />
            <mxPoint x="850" y="840" as="targetPoint" />
          </mxGeometry>
        </mxCell>
        <mxCell id="ww2nhfKNjPysvLxSNDaB-31" value="" style="html=1;rounded=0;endArrow=none;startFill=0;strokeWidth=3;fontSize=20;" edge="1" parent="1">
          <mxGeometry width="100" relative="1" as="geometry">
            <mxPoint x="970" y="920" as="sourcePoint" />
            <mxPoint x="1090" y="920" as="targetPoint" />
          </mxGeometry>
        </mxCell>
        <mxCell id="ww2nhfKNjPysvLxSNDaB-32" value="" style="endArrow=none;html=1;rounded=0;dashed=1;strokeWidth=2;fontSize=20;" edge="1" parent="1">
          <mxGeometry width="50" height="50" relative="1" as="geometry">
            <mxPoint x="130" y="1000" as="sourcePoint" />
            <mxPoint x="130" y="920" as="targetPoint" />
          </mxGeometry>
        </mxCell>
        <mxCell id="ww2nhfKNjPysvLxSNDaB-33" value="" style="endArrow=none;html=1;rounded=0;dashed=1;strokeWidth=2;fontSize=20;" edge="1" parent="1">
          <mxGeometry width="50" height="50" relative="1" as="geometry">
            <mxPoint x="170" y="1000" as="sourcePoint" />
            <mxPoint x="170" y="880" as="targetPoint" />
          </mxGeometry>
        </mxCell>
        <mxCell id="ww2nhfKNjPysvLxSNDaB-34" value="" style="endArrow=none;html=1;rounded=0;dashed=1;strokeWidth=2;fontSize=20;" edge="1" parent="1">
          <mxGeometry width="50" height="50" relative="1" as="geometry">
            <mxPoint x="250" y="1000" as="sourcePoint" />
            <mxPoint x="250" y="880" as="targetPoint" />
          </mxGeometry>
        </mxCell>
        <mxCell id="ww2nhfKNjPysvLxSNDaB-35" value="" style="endArrow=none;html=1;rounded=0;dashed=1;strokeWidth=2;fontSize=20;" edge="1" parent="1">
          <mxGeometry width="50" height="50" relative="1" as="geometry">
            <mxPoint x="290" y="1000" as="sourcePoint" />
            <mxPoint x="290" y="920" as="targetPoint" />
          </mxGeometry>
        </mxCell>
        <mxCell id="ww2nhfKNjPysvLxSNDaB-36" value="Rise Time" style="text;html=1;align=center;verticalAlign=middle;resizable=0;points=[];autosize=1;strokeColor=none;fillColor=none;strokeWidth=2;fontSize=20;" vertex="1" parent="1">
          <mxGeometry x="98" y="1010" width="107" height="36" as="geometry" />
        </mxCell>
        <mxCell id="ww2nhfKNjPysvLxSNDaB-37" value="Fall Time" style="text;html=1;align=center;verticalAlign=middle;resizable=0;points=[];autosize=1;strokeColor=none;fillColor=none;strokeWidth=2;fontSize=20;" vertex="1" parent="1">
          <mxGeometry x="221" y="1010" width="99" height="36" as="geometry" />
        </mxCell>
        <mxCell id="ww2nhfKNjPysvLxSNDaB-39" value="" style="endArrow=classic;startArrow=classic;html=1;rounded=0;strokeWidth=2;fontSize=20;" edge="1" parent="1">
          <mxGeometry width="50" height="50" relative="1" as="geometry">
            <mxPoint x="250" y="1011" as="sourcePoint" />
            <mxPoint x="290" y="1011" as="targetPoint" />
          </mxGeometry>
        </mxCell>
        <mxCell id="ww2nhfKNjPysvLxSNDaB-40" value="" style="endArrow=classic;startArrow=classic;html=1;rounded=0;strokeWidth=2;fontSize=20;" edge="1" parent="1">
          <mxGeometry width="50" height="50" relative="1" as="geometry">
            <mxPoint x="130" y="1010" as="sourcePoint" />
            <mxPoint x="170" y="1010" as="targetPoint" />
          </mxGeometry>
        </mxCell>
        <mxCell id="ww2nhfKNjPysvLxSNDaB-41" value="" style="endArrow=none;html=1;rounded=0;dashed=1;strokeWidth=3;fontSize=20;" edge="1" parent="1">
          <mxGeometry width="50" height="50" relative="1" as="geometry">
            <mxPoint x="610" y="1000" as="sourcePoint" />
            <mxPoint x="610" y="920" as="targetPoint" />
          </mxGeometry>
        </mxCell>
        <mxCell id="ww2nhfKNjPysvLxSNDaB-42" value="" style="endArrow=none;html=1;rounded=0;dashed=1;strokeWidth=3;fontSize=20;" edge="1" parent="1">
          <mxGeometry width="50" height="50" relative="1" as="geometry">
            <mxPoint x="730" y="1000" as="sourcePoint" />
            <mxPoint x="730" y="840" as="targetPoint" />
          </mxGeometry>
        </mxCell>
        <mxCell id="ww2nhfKNjPysvLxSNDaB-45" value="" style="endArrow=none;html=1;rounded=0;dashed=1;strokeWidth=3;fontSize=20;" edge="1" parent="1">
          <mxGeometry width="50" height="50" relative="1" as="geometry">
            <mxPoint x="970" y="1000" as="sourcePoint" />
            <mxPoint x="970" y="920" as="targetPoint" />
          </mxGeometry>
        </mxCell>
        <mxCell id="ww2nhfKNjPysvLxSNDaB-46" value="" style="endArrow=none;html=1;rounded=0;dashed=1;strokeWidth=3;fontSize=20;" edge="1" parent="1">
          <mxGeometry width="50" height="50" relative="1" as="geometry">
            <mxPoint x="850" y="1000" as="sourcePoint" />
            <mxPoint x="850" y="840" as="targetPoint" />
          </mxGeometry>
        </mxCell>
        <mxCell id="ww2nhfKNjPysvLxSNDaB-47" value="Rise Time" style="text;html=1;align=center;verticalAlign=middle;resizable=0;points=[];autosize=1;strokeColor=none;fillColor=none;strokeWidth=3;fontSize=20;" vertex="1" parent="1">
          <mxGeometry x="608" y="1000" width="107" height="36" as="geometry" />
        </mxCell>
        <mxCell id="ww2nhfKNjPysvLxSNDaB-48" value="Fall Time" style="text;html=1;align=center;verticalAlign=middle;resizable=0;points=[];autosize=1;strokeColor=none;fillColor=none;strokeWidth=3;fontSize=20;" vertex="1" parent="1">
          <mxGeometry x="856" y="1000" width="99" height="36" as="geometry" />
        </mxCell>
        <mxCell id="ww2nhfKNjPysvLxSNDaB-49" value="" style="endArrow=classic;startArrow=classic;html=1;rounded=0;strokeWidth=3;fontSize=20;" edge="1" parent="1">
          <mxGeometry width="50" height="50" relative="1" as="geometry">
            <mxPoint x="850" y="1000" as="sourcePoint" />
            <mxPoint x="970" y="1000" as="targetPoint" />
          </mxGeometry>
        </mxCell>
        <mxCell id="ww2nhfKNjPysvLxSNDaB-50" value="" style="endArrow=classic;startArrow=classic;html=1;rounded=0;strokeWidth=3;fontSize=20;" edge="1" parent="1">
          <mxGeometry width="50" height="50" relative="1" as="geometry">
            <mxPoint x="610" y="1000" as="sourcePoint" />
            <mxPoint x="730" y="1000" as="targetPoint" />
          </mxGeometry>
        </mxCell>
        <mxCell id="ww2nhfKNjPysvLxSNDaB-51" value="T&lt;sub&gt;r&lt;/sub&gt;" style="text;html=1;align=center;verticalAlign=middle;resizable=0;points=[];autosize=1;strokeColor=none;fillColor=none;fontColor=#FF3333;fontSize=20;strokeWidth=2;" vertex="1" parent="1">
          <mxGeometry x="136" y="1029" width="36" height="41" as="geometry" />
        </mxCell>
        <mxCell id="ww2nhfKNjPysvLxSNDaB-52" value="T&lt;sub&gt;f&lt;/sub&gt;" style="text;html=1;align=center;verticalAlign=middle;resizable=0;points=[];autosize=1;strokeColor=none;fillColor=none;fontColor=#FF3333;fontSize=20;strokeWidth=2;" vertex="1" parent="1">
          <mxGeometry x="256.5" y="1029" width="35" height="41" as="geometry" />
        </mxCell>
        <mxCell id="ww2nhfKNjPysvLxSNDaB-53" value="T&lt;sub&gt;r&lt;/sub&gt;" style="text;html=1;align=center;verticalAlign=middle;resizable=0;points=[];autosize=1;strokeColor=none;fillColor=none;fontColor=#FF3333;fontSize=20;" vertex="1" parent="1">
          <mxGeometry x="650" y="1021" width="36" height="41" as="geometry" />
        </mxCell>
        <mxCell id="ww2nhfKNjPysvLxSNDaB-54" value="T&lt;sub&gt;f&lt;/sub&gt;" style="text;html=1;align=center;verticalAlign=middle;resizable=0;points=[];autosize=1;strokeColor=none;fillColor=none;fontColor=#FF3333;fontSize=20;" vertex="1" parent="1">
          <mxGeometry x="891" y="1021" width="35" height="41" as="geometry" />
        </mxCell>
        <mxCell id="ww2nhfKNjPysvLxSNDaB-55" value="" style="html=1;rounded=0;endArrow=none;startFill=0;strokeWidth=3;fontSize=20;" edge="1" parent="1">
          <mxGeometry width="100" relative="1" as="geometry">
            <mxPoint x="291" y="1338" as="sourcePoint" />
            <mxPoint x="411" y="1338" as="targetPoint" />
          </mxGeometry>
        </mxCell>
        <mxCell id="ww2nhfKNjPysvLxSNDaB-56" value="" style="html=1;rounded=0;endArrow=none;startFill=0;strokeWidth=3;fontSize=20;" edge="1" parent="1">
          <mxGeometry width="100" relative="1" as="geometry">
            <mxPoint x="411" y="1338" as="sourcePoint" />
            <mxPoint x="531" y="1258" as="targetPoint" />
          </mxGeometry>
        </mxCell>
        <mxCell id="ww2nhfKNjPysvLxSNDaB-57" value="" style="html=1;rounded=0;endArrow=none;startFill=0;strokeWidth=3;fontSize=20;" edge="1" parent="1">
          <mxGeometry width="100" relative="1" as="geometry">
            <mxPoint x="531" y="1258" as="sourcePoint" />
            <mxPoint x="651" y="1258" as="targetPoint" />
          </mxGeometry>
        </mxCell>
        <mxCell id="ww2nhfKNjPysvLxSNDaB-58" value="" style="html=1;rounded=0;endArrow=none;startFill=0;strokeWidth=3;fontSize=20;" edge="1" parent="1">
          <mxGeometry width="100" relative="1" as="geometry">
            <mxPoint x="771" y="1338" as="sourcePoint" />
            <mxPoint x="651" y="1258" as="targetPoint" />
          </mxGeometry>
        </mxCell>
        <mxCell id="ww2nhfKNjPysvLxSNDaB-59" value="" style="html=1;rounded=0;endArrow=none;startFill=0;strokeWidth=3;fontSize=20;" edge="1" parent="1">
          <mxGeometry width="100" relative="1" as="geometry">
            <mxPoint x="771" y="1338" as="sourcePoint" />
            <mxPoint x="891" y="1338" as="targetPoint" />
          </mxGeometry>
        </mxCell>
        <mxCell id="ww2nhfKNjPysvLxSNDaB-60" value="" style="endArrow=none;html=1;rounded=0;dashed=1;strokeWidth=3;fontSize=20;" edge="1" parent="1">
          <mxGeometry width="50" height="50" relative="1" as="geometry">
            <mxPoint x="411" y="1418" as="sourcePoint" />
            <mxPoint x="411" y="1338" as="targetPoint" />
          </mxGeometry>
        </mxCell>
        <mxCell id="ww2nhfKNjPysvLxSNDaB-61" value="" style="endArrow=none;html=1;rounded=0;dashed=1;strokeWidth=3;fontSize=20;" edge="1" parent="1">
          <mxGeometry width="50" height="50" relative="1" as="geometry">
            <mxPoint x="531" y="1418" as="sourcePoint" />
            <mxPoint x="531" y="1258" as="targetPoint" />
          </mxGeometry>
        </mxCell>
        <mxCell id="ww2nhfKNjPysvLxSNDaB-62" value="" style="endArrow=none;html=1;rounded=0;dashed=1;strokeWidth=3;fontSize=20;" edge="1" parent="1">
          <mxGeometry width="50" height="50" relative="1" as="geometry">
            <mxPoint x="771" y="1418" as="sourcePoint" />
            <mxPoint x="771" y="1338" as="targetPoint" />
          </mxGeometry>
        </mxCell>
        <mxCell id="ww2nhfKNjPysvLxSNDaB-63" value="" style="endArrow=none;html=1;rounded=0;dashed=1;strokeWidth=3;fontSize=20;" edge="1" parent="1">
          <mxGeometry width="50" height="50" relative="1" as="geometry">
            <mxPoint x="651" y="1418" as="sourcePoint" />
            <mxPoint x="651" y="1258" as="targetPoint" />
          </mxGeometry>
        </mxCell>
        <mxCell id="ww2nhfKNjPysvLxSNDaB-66" value="" style="endArrow=classic;startArrow=classic;html=1;rounded=0;strokeWidth=3;fontSize=20;strokeColor=#FF3333;" edge="1" parent="1">
          <mxGeometry width="50" height="50" relative="1" as="geometry">
            <mxPoint x="652" y="1361" as="sourcePoint" />
            <mxPoint x="772" y="1361" as="targetPoint" />
          </mxGeometry>
        </mxCell>
        <mxCell id="ww2nhfKNjPysvLxSNDaB-67" value="" style="endArrow=classic;startArrow=classic;html=1;rounded=0;strokeWidth=3;fontSize=20;strokeColor=#FF3333;" edge="1" parent="1">
          <mxGeometry width="50" height="50" relative="1" as="geometry">
            <mxPoint x="411" y="1361" as="sourcePoint" />
            <mxPoint x="531" y="1361" as="targetPoint" />
          </mxGeometry>
        </mxCell>
        <mxCell id="ww2nhfKNjPysvLxSNDaB-68" value="T&lt;sub&gt;r&lt;/sub&gt;" style="text;html=1;align=center;verticalAlign=middle;resizable=0;points=[];autosize=1;strokeColor=none;fillColor=none;fontColor=#FF3333;fontSize=20;" vertex="1" parent="1">
          <mxGeometry x="454.5" y="1322" width="36" height="41" as="geometry" />
        </mxCell>
        <mxCell id="ww2nhfKNjPysvLxSNDaB-69" value="T&lt;sub&gt;f&lt;/sub&gt;" style="text;html=1;align=center;verticalAlign=middle;resizable=0;points=[];autosize=1;strokeColor=none;fillColor=none;fontColor=#FF3333;fontSize=20;" vertex="1" parent="1">
          <mxGeometry x="689" y="1322" width="35" height="41" as="geometry" />
        </mxCell>
        <mxCell id="ww2nhfKNjPysvLxSNDaB-70" value="" style="endArrow=classic;startArrow=classic;html=1;rounded=0;strokeWidth=3;fontSize=20;strokeColor=#0000CC;" edge="1" parent="1">
          <mxGeometry width="50" height="50" relative="1" as="geometry">
            <mxPoint x="289" y="1418.2" as="sourcePoint" />
            <mxPoint x="409" y="1418.2" as="targetPoint" />
          </mxGeometry>
        </mxCell>
        <mxCell id="ww2nhfKNjPysvLxSNDaB-71" value="" style="endArrow=classic;startArrow=classic;html=1;rounded=0;strokeWidth=3;fontSize=20;strokeColor=#0000CC;" edge="1" parent="1">
          <mxGeometry width="50" height="50" relative="1" as="geometry">
            <mxPoint x="778" y="1418.2" as="sourcePoint" />
            <mxPoint x="898" y="1418.2" as="targetPoint" />
          </mxGeometry>
        </mxCell>
        <mxCell id="ww2nhfKNjPysvLxSNDaB-72" value="Delay Time" style="text;html=1;align=center;verticalAlign=middle;resizable=0;points=[];autosize=1;strokeColor=none;fillColor=none;fontColor=light-dark(#0000CC,#FF7777);fontSize=20;" vertex="1" parent="1">
          <mxGeometry x="283" y="1372" width="118" height="36" as="geometry" />
        </mxCell>
        <mxCell id="ww2nhfKNjPysvLxSNDaB-73" value="Delay Time" style="text;html=1;align=center;verticalAlign=middle;resizable=0;points=[];autosize=1;strokeColor=none;fillColor=none;fontColor=light-dark(#0000CC,#FF7777);fontSize=20;" vertex="1" parent="1">
          <mxGeometry x="778" y="1372" width="118" height="36" as="geometry" />
        </mxCell>
        <mxCell id="ww2nhfKNjPysvLxSNDaB-74" value="Rise Time" style="text;html=1;align=center;verticalAlign=middle;resizable=0;points=[];autosize=1;strokeColor=none;fillColor=none;fontColor=#FF3333;fontSize=20;" vertex="1" parent="1">
          <mxGeometry x="419" y="1372" width="107" height="36" as="geometry" />
        </mxCell>
        <mxCell id="ww2nhfKNjPysvLxSNDaB-75" value="Fall Time" style="text;html=1;align=center;verticalAlign=middle;resizable=0;points=[];autosize=1;strokeColor=none;fillColor=none;fontColor=#FF3333;fontSize=20;" vertex="1" parent="1">
          <mxGeometry x="657" y="1372" width="99" height="36" as="geometry" />
        </mxCell>
        <mxCell id="ww2nhfKNjPysvLxSNDaB-76" value="Pulse Width" style="text;html=1;align=center;verticalAlign=middle;resizable=0;points=[];autosize=1;strokeColor=none;fillColor=none;fontColor=#009900;fontSize=20;" vertex="1" parent="1">
          <mxGeometry x="527" y="1372" width="125" height="36" as="geometry" />
        </mxCell>
        <mxCell id="ww2nhfKNjPysvLxSNDaB-77" value="" style="endArrow=classic;startArrow=classic;html=1;rounded=0;strokeWidth=3;fontSize=20;strokeColor=#009900;" edge="1" parent="1">
          <mxGeometry width="50" height="50" relative="1" as="geometry">
            <mxPoint x="532" y="1418.53" as="sourcePoint" />
            <mxPoint x="648" y="1419" as="targetPoint" />
          </mxGeometry>
        </mxCell>
        <mxCell id="ww2nhfKNjPysvLxSNDaB-78" value="T&lt;sub&gt;delay&lt;/sub&gt;" style="text;html=1;align=center;verticalAlign=middle;resizable=0;points=[];autosize=1;strokeColor=none;fillColor=none;fontColor=#0000CC;fontSize=20;" vertex="1" parent="1">
          <mxGeometry x="311" y="1423" width="70" height="41" as="geometry" />
        </mxCell>
        <mxCell id="ww2nhfKNjPysvLxSNDaB-79" value="T&lt;sub&gt;pw&lt;/sub&gt;" style="text;html=1;align=center;verticalAlign=middle;resizable=0;points=[];autosize=1;strokeColor=none;fillColor=none;fontColor=#009900;fontSize=20;" vertex="1" parent="1">
          <mxGeometry x="554.5" y="1423" width="52" height="41" as="geometry" />
        </mxCell>
        <mxCell id="ww2nhfKNjPysvLxSNDaB-80" value="T&lt;sub&gt;delay&lt;/sub&gt;" style="text;html=1;align=center;verticalAlign=middle;resizable=0;points=[];autosize=1;strokeColor=none;fillColor=none;fontColor=#0000CC;fontSize=20;" vertex="1" parent="1">
          <mxGeometry x="807" y="1423" width="70" height="41" as="geometry" />
        </mxCell>
        <mxCell id="ww2nhfKNjPysvLxSNDaB-81" value="&lt;span style=&quot;background-color: light-dark(#ffffff, var(--ge-dark-color, #121212));&quot;&gt;&lt;font style=&quot;color: rgb(51, 0, 26);&quot;&gt;Period = (&lt;span style=&quot;color: rgb(255, 51, 51);&quot;&gt;T&lt;/span&gt;&lt;sub style=&quot;color: rgb(255, 51, 51);&quot;&gt;r&lt;/sub&gt;&amp;nbsp;+&amp;nbsp;&lt;span style=&quot;color: rgb(0, 153, 0);&quot;&gt;T&lt;/span&gt;&lt;sub style=&quot;color: rgb(0, 153, 0);&quot;&gt;pw&lt;/sub&gt;&amp;nbsp;+&amp;nbsp;&lt;span style=&quot;color: rgb(255, 51, 51);&quot;&gt;T&lt;/span&gt;&lt;sub style=&quot;color: rgb(255, 51, 51);&quot;&gt;f&lt;/sub&gt;) + (2 *&amp;nbsp;&lt;/font&gt;&lt;font style=&quot;color: rgb(51, 0, 26);&quot;&gt;&lt;font style=&quot;color: rgb(0, 0, 204);&quot;&gt;T&lt;sub style=&quot;&quot;&gt;delay&lt;/sub&gt;)&lt;/font&gt;&lt;/font&gt;&lt;/span&gt;" style="text;html=1;align=center;verticalAlign=middle;resizable=0;points=[];autosize=1;strokeColor=none;fillColor=none;fontColor=light-dark(#0000CC,#FF7777);fontSize=20;" vertex="1" parent="1">
          <mxGeometry x="435" y="1160" width="343" height="41" as="geometry" />
        </mxCell>
        <mxCell id="ww2nhfKNjPysvLxSNDaB-82" value="" style="endArrow=classic;startArrow=classic;html=1;rounded=0;strokeWidth=3;fontSize=20;strokeColor=#33001A;" edge="1" parent="1">
          <mxGeometry width="50" height="50" relative="1" as="geometry">
            <mxPoint x="291.5" y="1208" as="sourcePoint" />
            <mxPoint x="890" y="1208" as="targetPoint" />
          </mxGeometry>
        </mxCell>
        <mxCell id="ww2nhfKNjPysvLxSNDaB-83" value="" style="endArrow=none;html=1;rounded=0;dashed=1;strokeWidth=3;fontSize=20;strokeColor=#FF8000;" edge="1" parent="1">
          <mxGeometry width="50" height="50" relative="1" as="geometry">
            <mxPoint x="291.5" y="1340" as="sourcePoint" />
            <mxPoint x="291.5" y="1180" as="targetPoint" />
          </mxGeometry>
        </mxCell>
        <mxCell id="ww2nhfKNjPysvLxSNDaB-84" value="" style="endArrow=none;html=1;rounded=0;dashed=1;strokeWidth=3;fontSize=20;strokeColor=#FF8000;" edge="1" parent="1">
          <mxGeometry width="50" height="50" relative="1" as="geometry">
            <mxPoint x="890.33" y="1340" as="sourcePoint" />
            <mxPoint x="890.33" y="1180" as="targetPoint" />
          </mxGeometry>
        </mxCell>
        <mxCell id="ww2nhfKNjPysvLxSNDaB-85" value="" style="html=1;rounded=0;endArrow=none;startFill=0;strokeWidth=3;fontSize=20;" edge="1" parent="1">
          <mxGeometry width="100" relative="1" as="geometry">
            <mxPoint x="278" y="1640" as="sourcePoint" />
            <mxPoint x="398" y="1640" as="targetPoint" />
          </mxGeometry>
        </mxCell>
        <mxCell id="ww2nhfKNjPysvLxSNDaB-86" value="" style="html=1;rounded=0;endArrow=none;startFill=0;strokeWidth=3;fontSize=20;" edge="1" parent="1">
          <mxGeometry width="100" relative="1" as="geometry">
            <mxPoint x="399" y="1641" as="sourcePoint" />
            <mxPoint x="399" y="1520" as="targetPoint" />
          </mxGeometry>
        </mxCell>
        <mxCell id="ww2nhfKNjPysvLxSNDaB-87" value="" style="html=1;rounded=0;endArrow=none;startFill=0;strokeWidth=3;fontSize=20;" edge="1" parent="1">
          <mxGeometry width="100" relative="1" as="geometry">
            <mxPoint x="400" y="1520" as="sourcePoint" />
            <mxPoint x="520" y="1520" as="targetPoint" />
          </mxGeometry>
        </mxCell>
        <mxCell id="ww2nhfKNjPysvLxSNDaB-88" value="" style="html=1;rounded=0;endArrow=none;startFill=0;strokeWidth=3;fontSize=20;" edge="1" parent="1">
          <mxGeometry width="100" relative="1" as="geometry">
            <mxPoint x="520" y="1641" as="sourcePoint" />
            <mxPoint x="520" y="1520" as="targetPoint" />
          </mxGeometry>
        </mxCell>
        <mxCell id="ww2nhfKNjPysvLxSNDaB-89" value="" style="html=1;rounded=0;endArrow=none;startFill=0;strokeWidth=3;fontSize=20;" edge="1" parent="1">
          <mxGeometry width="100" relative="1" as="geometry">
            <mxPoint x="520.5" y="1640" as="sourcePoint" />
            <mxPoint x="640.5" y="1640" as="targetPoint" />
          </mxGeometry>
        </mxCell>
        <mxCell id="ww2nhfKNjPysvLxSNDaB-90" value="Delay Time" style="text;html=1;align=center;verticalAlign=middle;resizable=0;points=[];autosize=1;strokeColor=none;fillColor=none;fontColor=light-dark(#0000CC,#FF7777);fontSize=20;" vertex="1" parent="1">
          <mxGeometry x="283" y="1640" width="118" height="36" as="geometry" />
        </mxCell>
        <mxCell id="ww2nhfKNjPysvLxSNDaB-91" value="Delay Time" style="text;html=1;align=center;verticalAlign=middle;resizable=0;points=[];autosize=1;strokeColor=none;fillColor=none;fontColor=light-dark(#0000CC,#FF7777);fontSize=20;" vertex="1" parent="1">
          <mxGeometry x="520" y="1640" width="118" height="36" as="geometry" />
        </mxCell>
        <mxCell id="ww2nhfKNjPysvLxSNDaB-92" value="Pulse Width" style="text;html=1;align=center;verticalAlign=middle;resizable=0;points=[];autosize=1;strokeColor=none;fillColor=none;fontColor=#009900;fontSize=20;" vertex="1" parent="1">
          <mxGeometry x="402" y="1480" width="125" height="36" as="geometry" />
        </mxCell>
      </root>
    </mxGraphModel>
  </diagram>
</mxfile>
